<?xml version="1.0" encoding="UTF-8" standalone="no"?>
<!-- Created with Inkscape (http://www.inkscape.org/) -->

<svg
   xmlns:dc="http://purl.org/dc/elements/1.1/"
   xmlns:cc="http://creativecommons.org/ns#"
   xmlns:rdf="http://www.w3.org/1999/02/22-rdf-syntax-ns#"
   xmlns:svg="http://www.w3.org/2000/svg"
   xmlns="http://www.w3.org/2000/svg"
   xmlns:sodipodi="http://sodipodi.sourceforge.net/DTD/sodipodi-0.dtd"
   xmlns:inkscape="http://www.inkscape.org/namespaces/inkscape"
   width="142.77095mm"
   height="93.446609mm"
   viewBox="0 0 142.77095 93.446609"
   version="1.1"
   id="svg6106"
   inkscape:version="0.92.5 (2060ec1f9f, 2020-04-08)"
   sodipodi:docname="publications.svg">
  <defs
     id="defs6100" />
  <sodipodi:namedview
     id="base"
     pagecolor="#ffffff"
     bordercolor="#666666"
     borderopacity="1.0"
     inkscape:pageopacity="0.0"
     inkscape:pageshadow="2"
     inkscape:zoom="1.0633188"
     inkscape:cx="305.39939"
     inkscape:cy="96.985856"
     inkscape:document-units="mm"
     inkscape:current-layer="layer1"
     showgrid="false"
     inkscape:window-width="1366"
     inkscape:window-height="713"
     inkscape:window-x="0"
     inkscape:window-y="0"
     inkscape:window-maximized="1" />
  <metadata
     id="metadata6103">
    <rdf:RDF>
      <cc:Work
         rdf:about="">
        <dc:format>image/svg+xml</dc:format>
        <dc:type
           rdf:resource="http://purl.org/dc/dcmitype/StillImage" />
        <dc:title />
      </cc:Work>
    </rdf:RDF>
  </metadata>
  <g
     inkscape:label="Layer 1"
     inkscape:groupmode="layer"
     id="layer1"
     transform="translate(-32.180007,-77.91955)"
     style="display:inline">
    <path
       id="path5153"
       transform="scale(0.26458333)"
       style="display:inline;stroke-width:0.99999994"
       d="m 385.66211,314.03516 c -7.16583,-0.003 -14.34814,0.45713 -21.41406,1.67187 -4.39763,0.75603 -5.46461,1.15235 -9.63867,2.29688 -1.26978,0.41853 -2.54078,0.83538 -3.81055,1.2539 l -7.95313,6.1875 c 1.28621,-0.45279 2.57317,-0.90463 3.85938,-1.35742 4.1362,-1.22249 5.33043,-1.68421 9.6914,-2.5 8.051,-1.50607 16.27593,-1.93805 24.45118,-1.87305 2.13418,0.128 4.27341,0.18782 6.40234,0.38477 10.07732,0.93226 19.94379,3.51642 28.88086,8.33594 1.57897,0.95126 3.20708,1.82716 4.73828,2.85351 7.31792,4.90509 13.32552,11.41687 17.7832,19 0.84556,1.55817 1.75721,3.08373 2.53711,4.67578 3.79389,7.74478 6.03268,16.18039 6.27344,24.81055 -0.068,1.61125 -0.0513,3.22867 -0.20508,4.83399 -0.78319,8.18187 -3.9248,15.79255 -8.77148,22.39648 -2.92475,3.54055 -3.64028,4.67587 -7.08203,7.76367 -1.09748,0.98461 -2.82798,1.50031 -3.73828,2.58203 0.25085,-0.0251 0.5019,-0.0502 0.7539,-0.0566 0.1474,-0.004 0.29577,10e-4 0.44336,-0.004 0.26343,-0.008 0.52593,-0.0303 0.78906,-0.0469 0.17348,0.008 0.34801,0.012 0.52149,0.0195 0.60911,0.034 0.24679,0.0343 0.82226,0.0547 0.37342,0.0113 0.7476,3.3e-4 1.1211,-0.008 0.0868,-0.005 0.17312,-0.0161 0.25976,-0.0234 2.76136,-1.69861 5.19738,-3.4509 8.16407,-6.20117 3.45146,-3.19975 4.11981,-4.30903 7.04101,-7.95703 4.83655,-6.78637 7.92086,-14.57999 8.60938,-22.91211 0.13455,-1.63646 0.0985,-3.28253 0.14843,-4.92383 -0.34348,-8.76279 -2.68779,-17.31085 -6.55273,-25.16992 -0.79415,-1.61489 -1.71439,-3.16413 -2.57227,-4.7461 -4.51596,-7.71199 -10.58424,-14.35943 -18.00976,-19.36133 -1.55615,-1.0481 -3.20832,-1.94682 -4.8125,-2.91992 -9.03836,-4.90638 -19.01093,-7.59077 -29.21289,-8.60351 -2.14341,-0.21277 -4.29804,-0.28652 -6.44727,-0.42969 -1.02262,-0.0186 -2.04662,-0.0269 -3.07031,-0.0273 z m -17.05469,12.96875 c -0.83078,0.002 -1.66296,0.074 -2.49414,0.0898 -4.18526,0.53309 -8.03356,2.08288 -11.6582,4.20508 -4.27737,2.50436 -8.57146,4.99047 -12.70313,7.72851 -2.92626,1.93922 -5.87022,5.13519 -8.3164,7.57813 -5.60036,6.18526 -9.8743,13.44057 -11.90039,21.58594 -1.42836,5.74166 -1.16461,7.32392 -1.35547,13.22851 0.26116,2.28132 0.34202,4.59028 0.7832,6.84375 1.35761,6.93457 4.39577,13.49989 8.5,19.22852 3.53798,4.93829 5.19828,6.12493 9.56836,10.2832 0.66218,0.56479 1.33775,1.1096 2.01953,1.64453 0.10424,-0.26577 0.22192,-0.38398 0.34766,-0.37109 0.17046,0.0175 0.35203,0.24426 0.52734,0.51367 0.10639,-0.037 0.21273,-0.0767 0.32031,-0.10742 0.17465,0.16324 0.17871,0.16498 0.24219,0.21875 0.0555,-10e-4 0.12354,0.0471 0.1836,0.0644 0.0178,0.004 0.0352,0.008 0.0527,0.0156 0.063,0.0227 0.12645,0.0465 0.18945,0.0703 0.004,1.9e-4 0.008,-0.001 0.0117,0 0.0288,0.0103 0.0575,0.0223 0.0859,0.0332 0.36521,0.0354 0.13965,-0.002 0.46094,0.0703 0.009,0.002 -0.0179,-0.006 -0.0274,-0.01 -0.009,-0.003 -0.0288,10e-4 -0.0254,-0.008 0.004,-0.0113 0.0208,-0.003 0.0312,-0.004 0.2315,-0.0302 0.39924,0.0232 0.64453,0.0742 0.0272,0.008 0.0524,0.0216 0.0801,0.0254 0.0147,0.002 -0.0399,-0.0142 -0.0352,-0.0293 0.19492,-0.0265 0.34101,7.3e-4 0.55469,0.0293 0.11108,0.0151 0.15738,0.0412 0.25977,0.0312 0.21316,-0.0265 0.42328,0.0287 0.63281,0.0566 0.0291,0.004 0.0588,-8e-5 0.0879,0.004 0.81935,0.11565 -0.10444,9.1e-4 0.41211,0.0644 0.0391,6e-4 0.0783,-10e-4 0.11719,0.002 0.1158,0.0113 0.37343,0.0449 0.50586,0.0547 0.16777,0.0113 0.33808,10e-4 0.50586,-0.004 0.34488,-0.0227 0.68936,-0.003 1.02734,0.0723 0.40324,0.0903 0.12887,0.0491 0.35742,0.0801 0.37444,-0.0378 0.75117,-0.0393 1.12696,-0.0352 0.39174,0.008 0.78203,0.004 1.17382,0.004 0.35222,-1.9e-4 0.70443,4e-5 1.05664,0 0.26109,0.0265 0.51446,0.091 0.77735,0.0801 0.12593,-0.004 0.14434,0.007 0.082,-0.0195 0.40668,-0.12132 0.82496,-0.0622 1.24023,-0.0547 0.0904,-0.0714 0.45069,-0.0733 0.52735,-0.082 0.34356,-0.0393 -0.0453,-0.0187 0.39258,-0.0527 0.0861,-0.008 0.17347,-0.008 0.25976,-0.0117 0.30391,-0.0714 0.6092,-0.15871 0.92188,-0.18554 0.0979,-0.008 0.19676,-0.008 0.29492,-0.0117 0.0822,0.004 0.16381,0.0117 0.24609,0.0117 0.011,-1.9e-4 0.0183,-0.0156 0.0293,-0.0156 0.46628,-0.0635 -0.0408,0.015 0.25781,-0.0508 0.26959,-0.059 0.26077,-0.0473 0.55274,-0.0703 0.0619,-0.0124 0.12516,-0.0102 0.1875,-0.0176 -3.71384,-1.99908 -7.23649,-4.37069 -10.50977,-7.12695 -4.28625,-4.0399 -5.98672,-5.25374 -9.44922,-10.06836 -4.03464,-5.61022 -6.9942,-12.05463 -8.26367,-18.86719 -0.41307,-2.21624 -0.46798,-4.48425 -0.70117,-6.72656 0.264,-5.81081 0.0211,-7.36725 1.51562,-13 2.13619,-8.05064 6.52838,-15.15468 12.17578,-21.20313 1.39276,-1.34158 2.72383,-2.75038 4.17774,-4.02539 1.38168,-1.21163 4.32214,-1.58812 4.31836,-3.42578 -2.2e-4,-0.0742 -0.012,-0.1243 -0.0234,-0.17578 1.12374,-0.50618 2.28221,-0.93722 3.45898,-1.30274 1.12971,-0.3509 2.30323,-0.53907 3.45508,-0.80859 1.05695,-0.0671 2.11342,-0.2367 3.17188,-0.20117 3.94068,0.13273 7.61503,1.89004 10.55078,4.43164 l 8.97656,-5.58399 c -3.23041,-2.49782 -6.99933,-4.43953 -11.14453,-4.74023 -0.27638,-0.02 -0.55315,-0.0279 -0.83008,-0.0273 z m -18.99804,8.79882 c -0.91117,0.78385 -2.0821,1.86207 -2.93946,1.75586 -1.22597,-0.15187 1.22704,-1.06872 2.93946,-1.75586 z m -8.34766,83.7461 c -0.009,-0.003 -0.0226,0.007 -0.0332,0.008 0.0655,0.0511 0.13153,0.10155 0.19726,0.15234 0.0502,-0.0148 0.10253,-0.019 0.15234,-0.0351 -0.10354,-0.046 -0.20821,-0.0907 -0.3164,-0.125 z m 0.69336,0.0605 c 0.0168,0.0264 0.0342,0.0511 0.0508,0.0781 0.14779,0.0225 0.29508,0.0451 0.44336,0.0645 -0.0576,-0.0581 -0.15276,-0.0772 -0.49414,-0.14257 z m 0.60742,0.13281 c 0.006,0.006 0.0303,0.0263 0.0352,0.0312 0.0229,0.003 0.0455,0.007 0.0684,0.01 0.01,10e-4 -0.0128,-0.0158 -0.0215,-0.0195 -0.0185,-0.01 -0.0523,-0.0145 -0.082,-0.0215 z m 0.38867,0.10547 c 0.0636,0.007 0.007,0.004 0.0508,0.008 -0.004,-0.001 -0.009,-0.002 -0.0137,-0.004 -0.0125,-0.002 -0.0498,-0.008 -0.0371,-0.004 z m 0.0723,0.0137 c 0.0201,0.008 0.0402,0.0163 0.0605,0.0234 0.002,7.5e-4 0.01,-0.003 0.008,-0.004 -0.0222,-0.007 -0.0459,-0.0132 -0.0684,-0.0195 z m -0.8125,0.16406 c 0.15524,0.27016 0.29243,0.50838 0.39453,0.57813 0.10209,0.0697 0.16909,-0.029 0.18164,-0.42969 -0.008,-0.026 -0.0139,-0.0405 -0.0195,-0.0606 -0.0202,0.0825 -0.0361,0.15867 -0.0547,0.26563 -0.002,-0.008 0.006,-0.0199 -0.002,-0.0254 -0.16271,-0.11293 -0.33147,-0.22084 -0.5,-0.32813 z m 0.55664,0.0879 c 0.001,-0.004 0.003,-0.0118 0.004,-0.0156 0.01,0.0339 0.007,0.0306 0.0176,0.0644 6e-5,-0.002 0.002,-0.002 0.002,-0.004 7.8e-4,-0.0493 -0.003,-0.0402 -0.006,-0.0527 -0.009,-0.008 -0.005,-0.004 -0.0137,-0.0117 -2.1e-4,-10e-4 -4e-4,-0.002 -0.002,-0.004 -0.0103,-0.01 -0.006,-0.006 -0.0156,-0.0156 0.003,0.0109 0.01,0.026 0.0137,0.0391 z m 0.0215,0.0488 c -1.6e-4,0.006 -0.002,0.006 -0.002,0.0117 0.0185,0.0605 0.008,0.0375 0.0469,0.14062 0.0183,0.0491 -0.0181,-0.0715 -0.043,-0.15039 z m -0.01,-0.10352 c -10e-4,0.003 -0.003,0.0172 -0.004,0.0215 0.006,0.0115 0.005,0.0102 0.008,0.0176 -0.002,-0.006 10e-4,-0.0482 -0.004,-0.0391 z m 35.57617,7.02735 c -0.0345,0.0102 -0.0493,0.008 -0.0723,0.0176 -0.005,0.002 -0.009,0.006 -0.0137,0.008 0.0262,-0.006 0.052,-0.0134 0.0781,-0.0195 0.003,-0.002 0.005,-0.004 0.008,-0.006 z"
       inkscape:connector-curvature="0" />
    <path
       id="path5163"
       d="m 95.298396,94.050526 c 0.18246,0.764212 0.46045,1.501217 0.72995,2.237965 0.003,0.01609 0.27494,0.787543 0.33359,0.741569 0.0271,-0.02125 0.007,-0.116391 -0.0234,-0.100598 -0.81702,0.421791 -1.60234,0.902333 -2.4035,1.3535 -0.0191,-0.200242 0.002,-0.08313 -0.089,-0.345556 0,0 2.44231,-1.359506 2.44231,-1.359506 v 0 c 0.13302,0.317013 0.0738,0.162097 0.17956,0.463971 -2.39494,1.50873 -2.2894,2.342634 -2.86808,0.590642 -0.25969,-0.748072 -0.52932,-1.492697 -0.76922,-2.247474 0,0 2.46776,-1.334513 2.46776,-1.334513 z"
       inkscape:connector-curvature="0"
       style="display:inline;stroke-width:0.26458332" />
    <path
       id="path5165"
       d="m 95.135926,93.486582 c 0.98564,-0.07185 1.97406,-0.09367 2.9618,-0.115723 0.74893,-0.01439 1.49794,-0.02397 2.246874,-0.03802 0.15872,-0.0011 0.31742,-0.0038 0.47613,-0.0055 0.1646,0.184669 0.13483,0.33224 0.1269,0.570394 -0.0246,0.828409 -0.0294,1.657263 -0.0335,2.485975 -0.001,0.84135 0.001,1.682755 0.0199,2.523921 0.0372,1.265821 0.12619,0.447927 -2.493134,1.744321 -0.0406,0.0201 -0.0665,-0.0616 -0.1028,-0.0887 -0.0356,-0.0266 -0.0748,-0.048 -0.11224,-0.072 0,0 2.367464,-1.518568 2.367464,-1.518568 v 0 c 0.0412,0.0275 0.0817,0.05608 0.12359,0.08249 0.0275,0.01733 0.11158,0.03086 0.0844,0.04867 -2.654034,1.740088 -2.382724,2.310378 -2.357574,1.072628 0.0184,-0.848252 0.0216,-1.696726 0.0213,-2.545158 -0.003,-0.820164 -0.007,-1.640351 -0.0216,-2.460408 -0.002,-0.117073 -0.0519,-0.498399 0.0856,-0.181166 -0.15126,-0.0042 -0.30257,-0.0062 -0.45388,-0.0072 -0.73155,-0.01064 -1.46325,-0.0071 -2.19473,0.007 -0.99916,0.02334 -2.00181,0.0453 -2.99401,0.174514 0,0 2.24952,-1.677511 2.24952,-1.677511 z"
       inkscape:connector-curvature="0"
       style="display:inline;stroke-width:0.26458332" />
    <path
       id="path5167"
       d="m 93.873856,98.472941 c 1.20467,0.132284 2.41993,0.06685 3.62864,0.03893 0.84978,-0.0209 0.43363,-0.0109 1.24842,-0.03006 0,0 -2.21451,1.615669 -2.21451,1.615669 v 0 c -0.8059,0.013 -0.39393,0.006 -1.23592,0.0217 -1.23549,0.0261 -2.47374,0.0753 -3.70741,-0.0236 0,0 2.28078,-1.6226 2.28078,-1.622599 z"
       inkscape:connector-curvature="0"
       style="display:inline;stroke-width:0.26458332" />
    <path
       id="path5169"
       d="m 105.83801,93.90741 c -0.14066,0.911863 -0.011,1.837902 0.1207,2.742959 0.0785,0.336066 0.10875,0.694397 0.26724,1.007235 0.0219,0.04323 0.0418,0.09438 0.0837,0.118903 0.0174,0.01019 0.0528,-0.05854 0.0348,-0.04939 -0.80419,0.410401 -1.59976,0.837478 -2.39964,1.256218 0,0 2.57616,-1.138743 2.57616,-1.138743 v 0 c -0.84022,0.484492 -1.6563,1.013503 -2.52067,1.453478 -0.0391,0.0199 -0.15834,-0.154472 -0.21464,-0.282805 -0.15019,-0.342371 -0.18705,-0.717246 -0.2653,-1.078989 -0.12678,-0.921346 -0.26672,-1.854113 -0.19827,-2.7861 0,0 2.51594,-1.242769 2.51594,-1.242769 z"
       inkscape:connector-curvature="0"
       style="display:inline;stroke-width:0.26458332" />
    <path
       id="path5171"
       d="m 105.78306,92.907653 c 0.92332,0.386556 1.90371,0.568751 2.89043,0.699516 0.77059,0.09011 1.54656,0.113191 2.32169,0.114773 0.47926,-0.03442 0.61307,0.03582 0.81432,0.479031 0.23066,0.8089 0.21645,1.665661 0.23901,2.500003 0.0153,0.855393 0.0203,1.710928 0.0384,2.566271 0,0 -2.48931,1.268013 -2.48931,1.268013 v 0 c 0.0197,-0.859237 0.0216,-1.718914 0.002,-2.578196 -0.0222,-0.792469 -0.0206,-1.605581 -0.23279,-2.374781 -0.004,-0.0082 -0.0648,-0.166333 -0.11057,-0.192489 -0.14614,-0.0835 -0.37282,0.02281 -0.52541,-0.02851 -0.7705,-0.02336 -1.54144,-0.06627 -2.30595,-0.168757 -1.01255,-0.154064 -2.01565,-0.364678 -2.97407,-0.735349 0,0 2.33189,-1.549529 2.33189,-1.549529 z"
       inkscape:connector-curvature="0"
       style="display:inline;stroke-width:0.26458332" />
    <path
       id="path5173"
       d="m 104.62137,98.749745 c 1.24055,-0.18946 2.48897,-0.303479 3.74033,-0.391173 0.21481,-0.0123 0.42961,-0.02461 0.64442,-0.03691 0,0 -2.20282,1.619364 -2.20282,1.619364 v 0 c -0.21163,0.01161 -0.42327,0.0232 -0.6349,0.03481 -1.26641,0.09004 -2.53201,0.211774 -3.77819,0.463224 0,0 2.23116,-1.689314 2.23116,-1.689315 z"
       inkscape:connector-curvature="0"
       style="display:inline;stroke-width:0.26458332" />
    <path
       id="path5175"
       d="m 91.559256,97.592709 c -1.24434,-0.151318 -2.49907,-0.132358 -3.74955,-0.107272 -1.40357,0.07183 -2.85005,0.147362 -4.14925,0.728278 -1.37664,0.892257 2.72007,-1.828191 1.91223,-1.041394 0,0 -2.52827,1.235384 -2.52827,1.235384 v 0 c -0.0449,-1.251021 1.80363,-1.370314 2.78999,-1.903735 1.32991,-0.47195 2.75374,-0.548772 4.15308,-0.607655 1.28769,-0.02733 2.57823,-0.04647 3.86232,0.07534 0,0 -2.29055,1.621049 -2.29055,1.621049 z"
       inkscape:connector-curvature="0"
       style="display:inline;stroke-width:0.26458332" />
    <path
       id="path5177"
       d="m 102.13893,95.413056 c 0.68756,0.01251 1.37498,0.02928 2.0614,-0.01582 0,0 -2.22804,1.635971 -2.22804,1.635971 v 0 c -0.70108,0.02474 -1.40244,0.01341 -2.103754,0.02939 0,0 2.270394,-1.649537 2.270394,-1.649537 z"
       inkscape:connector-curvature="0"
       style="display:inline;stroke-width:0.26458332" />
    <path
       id="path5179"
       d="m 113.32323,94.814386 c 1.12162,-0.08376 2.24393,-0.09341 3.36738,-0.05851 0.76524,0.02869 0.39003,0.0048 1.12577,0.06973 0,0 -2.23847,1.597909 -2.23847,1.597909 v 0 c -0.72086,-0.05714 -0.3522,-0.03471 -1.10608,-0.0655 -1.13377,-0.03108 -2.26879,-0.0079 -3.39658,0.124105 0,0 2.24798,-1.667737 2.24798,-1.667737 z"
       inkscape:connector-curvature="0"
       style="display:inline;stroke-width:0.26458332" />
    <path
       id="path5181"
       d="m 93.986726,90.54313 c -0.58537,-0.769186 -1.02553,-1.633366 -1.49908,-2.47209 -0.61432,-1.088056 -0.57603,-1.007533 -1.24311,-2.122958 -1.21575,-2.008777 -2.64704,-3.878897 -4.26094,-5.582547 -0.32979,-0.330941 -0.65541,-0.656955 -0.91932,-1.042363 0,0 2.41168,-1.403622 2.41168,-1.403622 v 0 c 0.21836,0.390869 0.52369,0.710125 0.82354,1.041656 1.55316,1.774248 2.96797,3.66708 4.2197,5.666417 0.74782,1.204767 0.59202,0.942417 1.28765,2.10493 0.48574,0.81175 0.94256,1.653765 1.57439,2.365055 0,0 -2.39451,1.445522 -2.39451,1.445522 z"
       inkscape:connector-curvature="0"
       style="display:inline;stroke-width:0.26458332" />
    <path
       id="path5183"
       d="m 100.12511,90.283857 c -0.11134,-1.368674 -0.0122,-2.737742 0.18198,-4.093284 0.15613,-0.96483 0.41601,-1.90617 0.70629,-2.837662 0,0 2.47358,-1.164233 2.47358,-1.164233 v 0 c -0.30966,0.920372 -0.58588,1.851832 -0.75292,2.81041 -0.20569,1.315341 -0.31401,2.654326 -0.12467,3.979817 0,0 -2.48426,1.304952 -2.48426,1.304952 z"
       inkscape:connector-curvature="0"
       style="display:inline;stroke-width:0.26458332" />
    <path
       id="path5185"
       d="m 105.60644,90.258729 c -0.0463,-1.555639 0.30031,-3.07205 0.72558,-4.556593 0.28592,-0.920597 0.70754,-1.783913 1.14032,-2.641238 0,0 2.45628,-1.106897 2.45628,-1.106897 v 0 c -0.44851,0.84174 -0.88335,1.690481 -1.17964,2.601179 -0.41836,1.431645 -0.76769,2.899413 -0.65963,4.403638 0,0 -2.48291,1.299911 -2.48291,1.299911 z"
       inkscape:connector-curvature="0"
       style="display:inline;stroke-width:0.26458332" />
    <path
       id="path5216-3"
       transform="matrix(0.26458333,0,0,0.26458333,32.180007,77.91955)"
       style="display:inline;stroke-width:1.35041416"
       d="m 134.15625,205.33984 -11.73242,8.14844 c 7.66271,1.15579 15.3915,1.69275 23.13281,2.01172 0.99508,-1.25785 1.993,-2.51235 3.02539,-3.74023 1.8356,-2.18317 1.45306,-1.66297 3.24609,-3.74024 0.12802,-0.14831 0.25228,-0.29976 0.37891,-0.44922 -6.05419,-0.43972 -12.08643,-1.09973 -18.04883,-2.23047 z m 248.93555,2.50196 c -0.27223,0.13604 -0.54031,0.27348 -0.83789,0.39843 v -0.002 c -0.0998,0.0419 -0.20208,0.0782 -0.29883,0.12695 -0.26155,0.13191 -1.15776,0.67311 -1.25977,0.73438 -0.44254,0.2657 -0.88517,0.53232 -1.32617,0.80078 -3.45865,2.10539 0.31555,-0.17101 -3.62109,2.19531 -1.42012,0.8736 -2.88601,1.66742 -4.31641,2.52344 -0.0183,0.011 -0.21327,0.13211 -0.25586,0.1582 1.25524,0.0638 2.4935,0.1264 3.80078,0.19336 10.79002,0.64819 21.5686,1.46014 32.3418,2.33789 4.94381,0.40283 9.85433,0.8451 14.8125,0.97852 0.51681,-0.0567 1.03397,-0.11285 1.55078,-0.16992 l 11.33594,-8.60352 c -0.52131,0.19767 -1.04314,0.39646 -1.56446,0.59375 -5.1816,0.2075 -10.28113,-0.10052 -15.46093,-0.38867 -11.04476,-0.6141 -22.08761,-1.26996 -33.13672,-1.80469 -0.55027,-0.0225 -1.16151,-0.0476 -1.76367,-0.0723 z m -223.42578,0.17187 c -0.59422,0.81645 -0.76669,1.02767 -1.73633,2.25391 -0.47869,0.56651 -0.95154,1.13724 -1.43555,1.69922 -1.87087,2.17228 -1.40909,1.55718 -3.27344,3.77539 -0.005,0.006 -0.009,0.0119 -0.0137,0.0176 2.76795,0.0765 5.53667,0.14296 8.30078,0.21289 3.51325,0.0444 7.0264,0.0606 10.53907,0.0664 -0.007,-0.0228 -0.0108,-0.0462 -0.0215,-0.0684 -0.0216,-0.0942 -0.0258,-0.13496 -0.0332,-0.22265 -0.0415,0.0165 -0.0349,0.0138 -0.082,0.0332 -0.0736,0.0302 -0.22284,-0.32435 -0.23633,-0.36328 -0.0178,-0.0518 -0.0272,-0.10724 -0.041,-0.16016 -0.007,-0.0495 -0.0142,-0.0986 -0.0195,-0.14843 -0.003,-0.0265 -0.013,-0.19431 -0.0176,-0.22266 -0.05,-0.30577 -0.17922,-0.59344 -0.27734,-0.88477 -0.0628,-0.19426 -0.12843,-0.38678 -0.1875,-0.58203 -0.12843,-0.42429 -0.28787,-1.00066 -0.37695,-1.43164 -0.13656,-0.66085 -0.20826,-1.33295 -0.26953,-2.0039 -0.0212,-0.31295 -0.0437,-0.57912 -0.0488,-0.89063 -0.003,-0.20391 5.8e-4,-0.41271 0.0332,-0.61523 -3.59564,-0.14621 -7.19992,-0.28661 -10.80273,-0.46485 z m 13.82421,1.21875 c 0.005,0.043 0.0108,0.0662 0.0156,0.0937 -9e-5,-0.002 1.1e-4,-0.008 0,-0.01 -0.002,-0.0302 -0.0103,-0.0556 -0.0156,-0.084 z m 3.89454,3.49414 c -0.004,3.9e-4 -0.008,0.002 -0.0117,0.002 0.003,0.005 0.005,0.007 0.008,0.0117 0.003,-0.001 0.007,-0.002 0.01,-0.004 -7.3e-4,-0.001 -0.006,-0.009 -0.006,-0.01 z m 78.83203,0.73242 c -0.0326,0.0331 -0.0651,0.0665 -0.0977,0.0996 0.0444,-0.0316 0.0956,-0.0549 0.13867,-0.0879 -0.0329,0.0113 -0.0186,0.0147 -0.041,-0.0117 z m -62.69336,2.41993 c -0.003,0.005 -0.008,0.0104 -0.0117,0.0156 0.007,-9e-5 0.013,1e-4 0.0195,0 -0.003,-0.005 -0.005,-0.0106 -0.008,-0.0156 z m -17.83203,0.0156 c -10e-4,8.1e-4 -0.003,0.002 -0.004,0.004 0.001,0.002 0.002,0.005 0.004,0.008 -2.1e-4,-0.003 6e-5,-0.008 0,-0.0117 z m 3.80468,0.11914 c -3e-5,0.004 3e-5,0.008 0,0.0117 0.004,0 0.008,2e-5 0.0117,0 z" />
    <path
       id="path5218-6"
       d="m 67.843546,131.97805 c -1.92874,1.59084 -3.67488,3.38144 -5.43611,5.14895 -4.19368,4.29292 -8.20876,8.75411 -12.27605,13.16449 -3.656837,4.01451 -7.466236,7.88604 -11.387546,11.64512 -0.825885,0.80003 -1.683808,1.56642 -2.523365,2.35199 -0.128076,0.1199 -0.255688,0.2403 -0.37921,0.36477 -0.05841,0.0588 -0.08367,0.19491 -0.166251,0.18487 -0.07474,-0.009 -0.0462,-0.14233 -0.0693,-0.2135 0.173442,-0.3546 0.0395,-0.19046 0.460655,-0.43869 0,0 -2.947665,2.34273 -2.947665,2.34273 v 0 c -0.52166,0.22103 -0.26144,0.20333 -0.777466,0.0879 -0.05368,-0.10079 -0.166825,-0.1885 -0.161016,-0.30236 0.0084,-0.1643 1.196677,-1.15045 1.25098,-1.19854 0.918261,-0.81316 1.060703,-0.95024 2.039411,-1.8423 4.024047,-3.75035 7.907379,-7.646 11.609806,-11.71136 4.021057,-4.36749 7.980147,-8.79234 12.073867,-13.09291 1.68415,-1.73003 3.34885,-3.48469 5.17005,-5.07503 0,0 3.51921,-1.41617 3.51921,-1.41617 z"
       inkscape:connector-curvature="0"
       style="display:inline;stroke-width:0.35729712" />
    <path
       id="path5220-7"
       d="m 36.467644,165.22501 c 3.597984,-0.13926 7.188323,-0.433 10.784063,-0.62552 8.562549,-0.42113 17.126649,-0.80275 25.695449,-1.07186 10.56392,-0.21688 21.13116,-0.11842 31.696654,-0.11196 9.80397,-0.0557 19.60746,-0.17184 29.41123,-0.25304 5.86545,-0.0592 11.73013,-0.1156 17.59563,-0.0483 0.94315,0.0108 1.88624,0.0262 2.82929,0.0439 0,0 -3.04068,2.17508 -3.04068,2.17508 v 0 c -0.89395,-0.0567 -1.78834,-0.10631 -2.6835,-0.14099 -5.7499,-0.21343 -11.50288,-0.20352 -17.25616,-0.18379 -9.75993,0.0266 -19.51953,0.10415 -29.27934,0.15554 -10.579254,-0.004 -21.160854,-0.0996 -31.737924,0.15447 -8.65708,0.30094 -17.3085,0.73096 -25.95389,1.27125 -3.708483,0.25256 -7.408961,0.60286 -11.118074,0.84108 0,0 3.057252,-2.20569 3.057252,-2.20569 z"
       inkscape:connector-curvature="0"
       style="display:inline;stroke-width:0.35729712" />
    <path
       id="path5222-5"
       style="display:inline;stroke-width:0.35729709"
       d="m 148.23631,130.58106 -3.30574,1.84949 c 1.49877,2.39649 3.44422,4.49098 5.27719,6.63578 1.79371,2.09474 3.51769,4.24348 5.19193,6.43009 0.0894,-0.23284 0.29137,-0.76284 0.37569,-0.96479 0.32867,-0.7872 0.6953,-1.562 1.10019,-2.31253 0.034,-0.063 0.0703,-0.11671 0.10749,-0.16536 -1.237,-1.60838 -2.49611,-3.19974 -3.7853,-4.7687 -0.6733,-0.82614 -1.91488,-2.33971 -2.60139,-3.21634 -0.74055,-0.94561 -1.4983,-1.91448 -2.09703,-2.959 -0.0979,-0.17078 -0.17533,-0.35246 -0.26303,-0.52864 z m 10.76316,14.13712 c -0.18103,0.266 -0.35273,0.52311 -0.55345,0.85524 -0.1268,0.20983 -0.2434,0.42545 -0.36432,0.63872 -0.25357,0.44724 -0.51351,0.89289 -0.72399,1.36271 -0.0488,0.10933 -0.0953,0.22004 -0.14366,0.3297 1.27591,1.72439 2.52422,3.46943 3.75016,5.23017 3.04264,4.3783 5.82967,8.91938 8.41758,13.57488 0.81176,1.53397 1.68606,3.04052 2.32388,4.65656 l 3.24528,-1.81591 c -0.78258,-1.55869 -1.67454,-3.05929 -2.53369,-4.57698 -2.68087,-4.61572 -5.51188,-9.14277 -8.57467,-13.5201 -1.57956,-2.26999 -3.19162,-4.51707 -4.84312,-6.73499 z"
       inkscape:connector-curvature="0" />
    <path
       id="path5475-8"
       d="m 149.51543,163.63647 c 2.20491,-0.2688 4.4313,-0.29114 6.6495,-0.33423 3.00696,0.0121 6.01164,-0.1168 9.01752,-0.14979 1.34635,-2e-5 2.73797,-0.0701 4.00806,0.4365 0,0 -2.0659,1.37651 -2.0659,1.37651 v 0 c -1.2342,-0.46627 -2.58112,-0.39921 -3.88106,-0.41112 -2.99879,0.0289 -5.99697,0.12731 -8.99628,0.13802 -2.24512,0.0576 -4.50502,0.0871 -6.72745,0.43905 0,0 1.99561,-1.49494 1.99561,-1.49494 z"
       inkscape:connector-curvature="0"
       style="display:inline;stroke-width:0.35729712" />
    <path
       id="path5449"
       d="m 147.73882,119.03068 c 0.65009,1.21647 1.34466,2.39775 2.04982,3.56579 0.28875,0.37853 1.02582,1.82276 1.44703,1.88785 -1.62059,1.04464 -1.61717,1.747 -1.56237,0.81905 0,0 1.64078,-1.06051 1.64078,-1.06051 v 0 c 0.16208,1.09788 0.11861,0.25667 -1.619,1.53219 -0.63866,-0.44624 -0.9721,-1.39301 -1.45892,-2.0345 -0.70019,-1.17491 -1.38822,-2.36106 -2.08605,-3.53829 0,0 1.58871,-1.17158 1.58871,-1.17158 z"
       inkscape:connector-curvature="0"
       style="display:inline;stroke-width:0.2949402" />
    <path
       id="path5451"
       d="m 146.8721,116.43164 c 1.51589,0.15462 3.03752,-0.0859 4.54911,-0.22365 1.45702,-0.12756 2.90331,-0.37703 4.35234,-0.59662 0.29094,-0.0462 0.57466,-0.10239 0.86759,-0.0883 0,0 -1.49804,1.34993 -1.49804,1.34993 v 0 c -0.27795,0.009 -0.55274,0.0508 -0.8291,0.0887 -1.43825,0.20116 -2.87427,0.4281 -4.3187,0.5537 -1.53792,0.14244 -3.08193,0.37676 -4.62557,0.24691 0,0 1.50237,-1.33069 1.50237,-1.33069 z"
       inkscape:connector-curvature="0"
       style="display:inline;stroke-width:0.2949402" />
    <path
       id="path5453"
       d="m 149.04737,126.87478 c 0.80315,-1.4986 1.83247,-2.78473 2.7905,-4.12845 1.02072,-1.41206 2.00773,-2.87504 2.83425,-4.47445 0,0 1.66542,-0.9099 1.66542,-0.9099 v 0 c -0.8348,1.62106 -1.84288,3.09633 -2.87097,4.53122 -0.93381,1.31982 -1.93718,2.58208 -2.72769,4.04462 0,0 -1.69151,0.93696 -1.69151,0.93696 z"
       inkscape:connector-curvature="0"
       style="display:inline;stroke-width:0.2949402" />
    <path
       id="path5455"
       d="m 155.2586,118.65722 c -0.28766,-0.38523 -0.48819,-0.86665 -0.80073,-1.22415 2.11377,-1.40016 1.23247,-1.47448 1.94375,-0.65815 0.15397,0.17672 0.28776,0.2379 0.48697,0.29858 0.0475,-0.0174 0.099,-0.0226 0.14253,-0.0521 0.0433,-0.0293 0.15561,-0.14867 0.11197,-0.12016 -0.49609,0.32452 -0.96679,0.70916 -1.47243,1.01007 -0.0468,0.028 0.0578,-0.11097 0.0679,-0.1742 0.03,-0.18691 -0.0225,-0.28965 -0.0721,-0.46056 -0.0961,-0.19516 -0.42473,-0.88786 -0.67312,-0.70303 -0.35805,0.69883 -5.3e-4,-0.0216 1.52418,-1.04908 0.029,-0.0195 0.0221,0.0839 0.0497,0.10624 0.0554,0.0451 0.0845,0.01 0.14593,-0.0124 0.89339,-0.34932 1.71215,-0.95214 2.55511,-1.45258 1.40663,-0.87024 2.85659,-1.62068 4.29883,-2.39246 1.5077,-1.09587 -1.57285,1.39674 -0.71819,0.459 0,0 1.70543,-0.8847 1.70543,-0.8847 v 0 c -0.59841,0.92109 -1.57629,1.28109 -2.40534,1.81787 -1.44121,0.75616 -2.88014,1.51891 -4.28057,2.38779 -0.23086,0.13998 -0.46173,0.27996 -0.6926,0.41994 -0.19507,0.12315 -0.3891,0.2488 -0.58522,0.36929 -0.36934,0.2269 -0.76645,0.49509 -1.17636,0.59782 -0.0698,0.0175 -0.14197,0.0138 -0.21296,0.0207 -1.00013,-0.3902 0.41558,-2.11898 1.2996,-1.74743 0.35721,0.15481 0.6002,0.54988 0.77986,0.94671 0.0693,0.21666 0.13227,0.35402 0.13292,0.59459 0.003,1.06274 -1.27036,1.66688 -2.05486,1.61363 -0.16801,-0.0772 -0.22144,-0.086 -0.37042,-0.21938 -0.0319,-0.0286 -0.46742,-0.53014 -0.44079,-0.55993 0.461,-0.51575 1.00549,-0.90305 1.50823,-1.35456 0.2399,0.4322 0.52085,0.8346 0.79095,1.23713 0,0 -1.58826,1.18497 -1.58826,1.18497 z"
       inkscape:connector-curvature="0"
       style="display:inline;stroke-width:0.2949402" />
    <path
       id="path5457"
       d="m 157.07802,116.54769 c 0.69274,1.75594 1.53566,3.41625 2.32355,5.10863 0.99189,2.11573 1.9449,4.25797 2.97254,6.34745 0.47803,0.99082 0.9715,1.97245 1.54591,2.88217 0.11073,0.15455 0.20648,0.333 0.33638,0.4647 0.05,0.10388 0.0432,0.20062 0.0428,0.3178 0,0 -1.65708,1.04931 -1.65708,1.04931 v 0 c -2.6e-4,-0.0572 -0.035,-0.14125 0.004,-0.17143 0.008,-0.006 0.014,0.0178 0.021,0.0267 -0.11865,-0.16406 -0.225,-0.34113 -0.33231,-0.51657 -0.5537,-0.93747 -1.03728,-1.93365 -1.50702,-2.93861 -1.0053,-2.10701 -1.94791,-4.25786 -2.94976,-6.36742 -0.79937,-1.69091 -1.64937,-3.34579 -2.40306,-5.0685 0,0 1.603,-1.13417 1.603,-1.13417 z"
       inkscape:connector-curvature="0"
       style="display:inline;stroke-width:0.2949402" />
    <path
       id="path5463"
       d="m 164.27857,132.44202 c -1.6575,1.9941 -2.8371,4.51161 -4.05709,6.92035 -1.73341,3.47548 -3.46284,6.95397 -5.16328,10.45453 -0.64711,1.31532 -1.29009,2.63486 -1.88687,3.98676 -0.15593,0.73083 -2.12552,1.7956 -1.76092,1.10568 0.002,-0.004 0.004,-0.006 0.005,-0.01 0,0 1.71341,-0.92996 1.71341,-0.92996 v 0 c -0.002,0.005 -0.005,0.009 -0.007,0.0132 -0.50494,0.86481 -2.23532,1.7687 -1.63865,0.75615 0.64431,-1.36597 1.31618,-2.71172 1.9932,-4.05292 1.72684,-3.49374 3.46933,-6.97544 5.19159,-10.47268 1.19196,-2.39091 2.34404,-4.85853 3.90165,-6.9196 0,0 1.70838,-0.85194 1.70838,-0.85194 z"
       inkscape:connector-curvature="0"
       style="display:inline;stroke-width:0.2949402" />
    <path
       id="path5469"
       d="m 150.18501,151.68804 c -0.9163,0.0789 -1.7934,0.47942 -2.64503,0.88266 -0.17759,0.0921 -0.35689,0.1792 -0.53278,0.27619 -0.45978,0.25352 -0.60192,0.35049 -1.03914,0.65678 -0.16291,0.11408 -0.65004,0.45979 -0.48531,0.34978 1.11599,-0.74528 1.47713,-1.10361 0.67552,-0.37879 -0.53644,0.52697 -1.08738,1.08381 -1.25548,1.9391 -0.023,0.68749 0.44819,1.10136 0.87701,1.41725 0.73364,0.44352 1.52868,0.58974 2.33548,0.62128 1.12589,2.7e-4 2.25002,-0.056 3.37202,-0.16804 0.86594,-0.0445 1.71852,-0.24373 2.53773,-0.5904 0.66595,-0.25993 1.94049,-1.26034 -0.78357,0.6498 0,0 1.71968,-0.8473 1.71968,-0.8473 v 0 c -0.81444,0.60288 -1.50244,1.27348 -2.38988,1.59798 -0.82614,0.31143 -1.67899,0.48117 -2.54199,0.52776 -1.1283,0.10426 -2.25931,0.15853 -3.39094,0.15154 -0.83166,-0.0565 -1.6557,-0.21496 -2.40164,-0.70478 -0.49056,-0.38681 -0.97739,-0.87283 -0.9933,-1.65444 0.12083,-0.96096 0.64186,-1.51548 1.22655,-2.10602 1.01727,-0.96673 0.32425,-0.33997 2.42139,-1.87153 0.66376,-0.48474 1.3508,-0.92 2.0739,-1.25229 0.87687,-0.39907 1.77619,-0.80013 2.71816,-0.84931 0,0 -1.49838,1.35278 -1.49838,1.35278 z"
       inkscape:connector-curvature="0"
       style="display:inline;stroke-width:0.2949402" />
    <path
       id="path5471"
       d="m 155.96172,151.00537 c 0.48445,0.56851 0.87968,1.22893 1.19261,1.95737 0.29643,0.92014 0.13315,1.56483 -0.31485,2.33761 -0.81466,1.02858 -1.93374,1.61035 -2.92795,2.3006 0,0 1.42648,-1.41745 1.42648,-1.41745 v 0 c -2.51406,1.86635 -0.65262,0.58723 -0.18281,0.0153 0.45011,-0.67384 0.66851,-1.23327 0.40543,-2.10181 -0.29998,-0.70403 -0.67948,-1.35079 -1.16962,-1.87098 0,0 1.57071,-1.22056 1.57071,-1.22056 z"
       inkscape:connector-curvature="0"
       style="display:inline;stroke-width:0.2949402" />
  </g>
  <g
     inkscape:groupmode="layer"
     id="layer5"
     inkscape:label="Layer 2"
     style="display:inline"
     transform="translate(-32.180007,-77.91955)"
     sodipodi:insensitive="true">
    <path
       id="path6814"
       d="m 77.733545,107.99081 c 1.483286,0.82094 3.14161,1.21065 4.782667,1.57228 3.393246,0.62093 6.855499,0.67771 10.294347,0.75389 4.571968,0.10635 9.143111,-0.10306 13.709641,-0.30178 4.44418,-0.18717 8.88882,-0.36711 13.32531,-0.6934 2.52439,-0.19793 5.04346,-0.43381 7.53291,-0.90355 0.59872,-0.16804 1.25488,-0.18292 1.81739,-0.46058 0.20788,-0.0631 0.40233,-0.13456 0.59745,-0.23095 0.12446,-0.0349 0.24903,-0.0718 0.37702,-0.0916 0.60892,0.0456 -1.04114,0.63881 -1.5721,0.94038 -0.0149,-0.0366 -0.0297,-0.0731 -0.0446,-0.10973 0,0 1.64011,-0.91565 1.64011,-0.91565 v 0 c 0.0122,0.0312 0.0243,0.0624 0.0365,0.0936 -0.5128,0.3684 -1.0256,0.73681 -1.5384,1.10521 -0.006,0.0161 0.0131,0.0216 -0.025,0.0264 -0.11786,0.0317 -0.2361,0.0652 -0.34535,0.12084 -0.19628,0.0838 -0.40305,0.1364 -0.5972,0.22586 -0.56976,0.21638 -1.2035,0.22999 -1.78916,0.3848 -2.4653,0.42606 -4.95625,0.63263 -7.44996,0.81807 -4.42264,0.30065 -8.85229,0.46574 -13.28079,0.65508 -4.58194,0.20026 -9.167915,0.42298 -13.755597,0.32198 -3.466081,-0.0701 -6.955292,-0.12252 -10.37723,-0.73585 -1.677432,-0.36046 -3.357658,-0.7619 -4.894604,-1.55113 0,0 1.556634,-1.02421 1.556634,-1.02421 z"
       inkscape:connector-curvature="0"
       style="stroke-width:0.26458332" />
    <path
       id="path6816"
       d="m 131.59266,107.6337 c -0.058,1.88715 0.0311,3.77743 0.0582,5.66528 0.0663,4.0044 -0.2048,7.99949 -0.4588,11.99271 -0.24221,3.23868 -0.42159,6.48122 -0.51178,9.72765 -0.0207,1.06985 -0.0411,2.14031 -0.0178,3.2103 -0.003,0.0357 -0.005,0.0714 -0.008,0.10703 0,0 -1.69572,0.81239 -1.69572,0.81239 v 0 c 0.0122,-0.0236 0.0244,-0.0471 0.0366,-0.0707 0.0294,-1.08808 0.0679,-2.17592 0.11012,-3.26357 0.136,-3.26114 0.34096,-6.51842 0.59024,-9.77288 0.26131,-3.97942 0.53587,-7.96265 0.4145,-11.95377 -0.055,-1.8751 -0.15783,-3.74848 -0.18872,-5.62389 0,0 1.67102,-0.83055 1.67102,-0.83055 z"
       inkscape:connector-curvature="0"
       style="stroke-width:0.26458332" />
    <path
       id="path6818"
       d="m 77.181516,107.27054 c 0.0076,2.1422 0.130439,4.28361 0.1837,6.42586 0.102904,3.64911 2.65e-4,7.29876 -0.09531,10.94666 -0.05637,2.24975 -0.07001,4.50521 0.05278,6.75317 0.05376,0.81358 0.101817,1.62783 0.290928,2.42281 0.269526,0.98606 0.326798,0.35373 -1.589691,1.27981 -0.599712,-0.62715 1.392084,-1.80982 1.577687,-0.94414 0.07465,0.40577 0.15608,0.81429 0.310438,1.19807 0.0099,0.0168 0.05391,0.12531 0.105389,0.12095 0.01752,-0.002 0.05192,-0.0462 0.03625,-0.0383 -2.400419,1.21918 -1.7371,1.26277 -1.449821,0.62812 0.244493,-0.72837 -0.53154,-0.12926 1.74031,-0.89751 0.05192,-0.0176 0.0286,0.10587 0.04592,0.15786 0.02432,0.073 0.05262,0.14467 0.07893,0.217 0.353841,0.75204 0.915337,1.3835 1.505493,1.95835 0.996143,0.9216 2.250752,1.46663 3.519289,1.89971 1.763921,0.51283 3.575505,0.85077 5.387975,1.13941 2.153705,0.33751 4.330689,0.50388 6.505281,0.63672 2.466043,0.18156 4.937056,0.28329 7.409646,0.2834 2.70866,-0.015 5.41616,-0.0793 8.1212,-0.2198 2.58175,-0.11819 5.1568,-0.33653 7.73215,-0.5465 2.44887,-0.20084 4.8951,-0.42727 7.33866,-0.68487 1.79867,-0.18345 3.59751,-0.36642 5.39344,-0.57523 0.81087,-0.14236 1.63307,-0.22351 2.42908,-0.43709 0.17489,-0.0461 0.34986,-0.0888 0.52758,-0.12205 0,0 -1.49342,1.13198 -1.49342,1.13198 v 0 c -0.17214,0.0387 -0.34378,0.0794 -0.51481,0.12272 -0.79126,0.1865 -1.60484,0.26017 -2.40649,0.38899 -1.78423,0.19466 -3.57101,0.36507 -5.35667,0.54596 -2.4403,0.24961 -4.88288,0.47216 -7.32775,0.67202 -2.57548,0.21195 -5.1512,0.42464 -7.73331,0.54061 -2.707,0.13412 -5.4163,0.19422 -8.12652,0.21251 -2.480202,-0.004 -4.958705,-0.10174 -7.432657,-0.28005 -2.181198,-0.13649 -4.364569,-0.30427 -6.524905,-0.64392 -1.825056,-0.29353 -3.652163,-0.62566 -5.42657,-1.15086 -1.291643,-0.45297 -2.567556,-1.01021 -3.583532,-1.95315 -0.612034,-0.59309 -1.189323,-1.24368 -1.572961,-2.01183 -0.06506,-0.16168 -0.157515,-0.38639 -0.149686,-0.39191 1.767682,-1.24594 1.777397,-1.54172 1.617605,-0.7863 -0.233032,0.78553 -1.593411,1.8725 -2.029527,0.99479 -0.152646,-0.39349 -0.24239,-0.80741 -0.32767,-1.21993 -0.185632,-0.73183 1.469821,-1.73245 1.671481,-0.93922 -0.532093,0.31336 -1.074801,0.60935 -1.596279,0.94007 -0.01786,0.0113 0.0263,0.0453 0.04725,0.0423 0.0085,-0.001 -0.125912,-0.37761 -0.103436,-0.38423 -0.174657,-0.81638 -0.214294,-1.64603 -0.253381,-2.47878 -0.09271,-2.26707 -0.05275,-4.5398 0.02207,-6.80671 0.121261,-3.64437 0.243726,-7.29196 0.101099,-10.93791 -0.07893,-2.12312 -0.21749,-4.24199 -0.317888,-6.36346 0,0 1.660652,-0.84614 1.660652,-0.84614 z"
       inkscape:connector-curvature="0"
       style="stroke-width:0.26458332" />
    <path
       id="path6832"
       d="m 105.51544,141.79635 c -0.0686,1.318 -0.0142,2.63895 -7.9e-4,3.95776 0.002,1.92311 -0.007,3.84619 5.3e-4,5.76929 0.0185,0.44492 -0.009,0.89223 0.0142,1.33709 0.007,0.1313 0.0366,0.2909 0.036,0.29122 -0.54516,0.2894 -1.11598,0.52763 -1.67397,0.79144 -10e-4,-0.0412 -0.002,-0.0824 -0.003,-0.12359 0,0 1.66884,-0.85931 1.66884,-0.85931 v 0 c 0.002,0.0401 0.005,0.0801 0.007,0.12015 -0.55554,0.31313 -1.09791,0.65089 -1.66663,0.93939 -0.0277,0.014 5.3e-4,-0.0622 -0.002,-0.0931 -0.005,-0.0748 -0.0195,-0.14896 -0.0214,-0.22392 -0.0117,-0.45193 0.0424,-0.90571 0.0266,-1.35773 0.0247,-1.92517 0.0397,-3.85061 0.0198,-5.77591 -0.0238,-1.31485 -0.0817,-2.62883 -0.0825,-3.94422 0,0 1.67729,-0.82852 1.67729,-0.82852 z"
       inkscape:connector-curvature="0"
       style="stroke-width:0.26458332" />
    <path
       id="path6834"
       d="m 103.78247,153.06816 c -0.49241,0.28037 -1.06286,0.45465 -1.52005,0.79572 -0.20439,0.15248 0.87553,-0.52028 0.66982,-0.36958 -0.32718,0.23968 -0.69345,0.42094 -1.03611,0.63791 -0.3782,0.23949 -0.75088,0.48758 -1.12632,0.73137 -2.136534,1.42407 -4.216664,2.93025 -6.324914,4.39537 -0.326155,0.21495 -0.643187,0.44317 -0.965629,0.66352 -0.06119,0.0418 -0.117467,0.15316 -0.185195,0.12306 -0.0783,-0.0348 -0.114837,-0.16277 -0.08433,-0.24285 0.03324,-0.0872 0.153948,-0.106 0.234937,-0.15243 0.153567,-0.088 0.312111,-0.16707 0.468167,-0.2506 0.219676,-0.10761 0.439354,-0.21521 0.65903,-0.32281 0,0 -1.415032,1.13164 -1.415032,1.13164 v 0 c -0.223853,0.11355 -0.447706,0.22711 -0.671557,0.34066 -0.162769,0.089 -0.323207,0.18235 -0.488305,0.26692 -0.09351,0.0479 -0.184351,0.15255 -0.287027,0.13026 -0.08931,-0.0194 -0.169511,-0.13596 -0.154959,-0.22619 0.01304,-0.0809 0.142854,-0.0805 0.211616,-0.12506 0.340874,-0.22088 0.665025,-0.46699 1.010727,-0.68065 2.130478,-1.45766 4.220583,-2.97385 6.36251,-4.41488 1.973651,-1.29616 3.976421,-2.57526 6.114781,-3.58386 0,0 -1.47216,1.15248 -1.47216,1.15248 z"
       inkscape:connector-curvature="0"
       style="stroke-width:0.26458332" />
    <path
       id="path6838"
       d="m 106.19534,152.79698 c 1.09945,0.93401 2.33819,1.68591 3.56323,2.44053 1.61543,1.00045 3.34878,1.77227 5.16949,2.3064 0.67202,0.19984 1.34933,0.38333 2.04696,0.46041 0,0 -1.51177,1.06737 -1.51177,1.06737 v 0 c -0.68955,-0.11189 -1.36281,-0.29767 -2.02859,-0.50852 -1.8179,-0.56867 -3.55063,-1.35773 -5.17431,-2.35811 -1.2473,-0.75769 -2.49901,-1.51706 -3.65168,-2.41587 0,0 1.58667,-0.99221 1.58667,-0.99221 z"
       inkscape:connector-curvature="0"
       style="stroke-width:0.26458332" />
  </g>
  <g
     inkscape:groupmode="layer"
     id="layer6"
     inkscape:label="Layer 3"
     transform="translate(-32.180007,-77.91955)"
     style="display:inline"
     sodipodi:insensitive="true">
    <path
       id="path7323"
       d="m 94.498029,142.9579 c -0.349379,0.61347 -0.680889,1.23692 -1.01592,1.85829 -0.474279,0.90995 -0.938044,1.82569 -1.330452,2.77429 -0.14605,0.36062 -0.290963,0.72182 -0.425747,1.08684 -0.03225,0.0645 -0.03156,0.13638 -0.05155,0.20429 -0.0392,0.0892 -0.0926,0.17023 -0.131868,0.25966 -0.0083,0.0183 -0.01484,0.0397 -0.02503,0.0561 -5.3e-4,-0.001 -0.0013,-0.002 -0.0019,-0.003 -0.01042,-0.0234 -0.02569,-0.0453 -0.03127,-0.0703 -2.65e-4,-10e-4 0.01199,-1.4e-4 0.05346,2.7e-4 0.0322,2.6e-4 0.09607,5.3e-4 0.125891,5.3e-4 0.255678,0.003 0.51122,-0.007 0.766051,0.0163 0.386855,0.0364 0.77393,0.0609 1.160298,0.10231 0.443521,0.0349 0.88414,0.0951 1.327719,0.12953 0.514686,0.0346 1.030764,0.0379 1.546389,0.0414 0.644224,-0.0117 1.286979,0.0167 1.930223,0.0469 0.738968,0.0345 1.478767,0.0424 2.218397,0.0484 0.91873,0.008 1.83681,-0.0437 2.75405,-0.0902 1.20806,-0.0872 2.41514,-0.18864 3.62263,-0.28412 1.45583,-0.12051 2.9115,-0.24293 4.36786,-0.35703 1.62458,-0.12585 3.25401,-0.16226 4.88269,-0.18634 1.39659,-0.0164 2.79329,-0.0183 4.18996,-0.0207 0.89375,0.0151 1.78636,-0.021 2.67872,-0.0652 0.30224,-0.0152 0.60455,-0.0294 0.90684,-0.0438 0.37617,-0.0454 -0.83652,0.75516 -0.73735,0.38017 0,0 0.83668,-0.42485 0.83668,-0.42485 v 0 c 0.0433,0.38033 -0.47686,0.59767 -0.85729,0.59931 -0.29475,0.006 -0.58938,0.0169 -0.88398,0.0282 -0.88546,0.0337 -1.77099,0.063 -2.65728,0.0446 -1.39058,-0.003 -2.78121,-0.006 -4.17174,0.009 -1.62857,0.0236 -3.25787,0.0612 -4.88197,0.19272 -1.45923,0.11739 -2.91803,0.23998 -4.37672,0.36363 -1.21215,0.0979 -2.42369,0.20461 -3.63664,0.29144 -0.92155,0.0499 -1.8441,0.10109 -2.767351,0.0933 -0.742082,-0.005 -1.484323,-0.0127 -2.225725,-0.0475 -0.644004,-0.0296 -1.287664,-0.052 -1.932533,-0.0407 -0.5183,-0.003 -1.037164,-0.005 -1.554324,-0.0439 -0.444537,-0.036 -0.886822,-0.0935 -1.331359,-0.12979 -0.387168,-0.0397 -0.775327,-0.0626 -1.163013,-0.0966 -0.256318,-0.0134 -0.512948,-0.006 -0.769549,-0.005 -0.129992,10e-4 -0.166076,0.0428 -0.240207,-0.0719 0.0016,-0.0245 0.01405,-0.047 0.02212,-0.07 0.03685,-0.0894 0.0729,-0.17975 0.135173,-0.25506 0.03171,-0.0735 0.0275,-0.13288 0.05255,-0.20782 0.151746,-0.36874 0.305837,-0.73651 0.459234,-1.10456 0.398285,-0.95025 0.865423,-1.86847 1.334119,-2.78554 0.326835,-0.61342 0.6505,-1.22852 0.975464,-1.84291 0,0 0.854342,-0.38083 0.854342,-0.38083 z"
       inkscape:connector-curvature="0"
       style="stroke-width:0.26458332" />
    <path
       id="path7325"
       d="m 123.24947,141.54607 c -0.0272,0.68937 0.0545,1.37966 0.13167,2.06378 0.11508,0.98704 0.21953,1.97474 0.28685,2.96627 0.0392,0.51715 0.082,1.03308 0.17942,1.54277 0.0177,0.0618 0.0188,0.13154 0.0486,0.18986 0,0 -0.82102,0.46163 -0.82102,0.46163 v 0 c -0.0271,-0.0689 -0.0349,-0.14228 -0.0482,-0.21483 -0.0873,-0.51842 -0.1233,-1.04161 -0.15792,-1.56594 -0.0571,-0.99158 -0.15587,-1.97907 -0.27954,-2.96456 -0.0842,-0.68518 -0.16683,-1.37312 -0.1769,-2.0641 0,0 0.83702,-0.41488 0.83702,-0.41488 z"
       inkscape:connector-curvature="0"
       style="stroke-width:0.26458332" />
    <path
       id="path7327"
       d="m 83.439319,142.1262 c -0.218424,0.45691 -0.399436,0.93034 -0.583224,1.40188 -0.203607,0.50444 -0.378938,1.01838 -0.547923,1.53513 -0.155723,0.43974 -0.301212,0.88292 -0.449114,1.32535 -0.110249,0.29419 -0.203163,0.59273 -0.247922,0.90397 -0.01852,0.26361 -0.03481,0.526 -0.06835,0.78832 -0.01723,0.13554 -0.04942,0.2811 0.01233,0.40991 0.09359,0.11666 0.254326,0.15988 0.393356,0.19738 0.297911,0.0571 0.603224,0.0567 0.905442,0.0618 0.415996,-0.0177 0.830101,-0.0716 1.23231,-0.17961 0.06286,-0.0212 0.126259,-0.0409 0.188574,-0.0636 0.113829,-0.0416 0.247798,-0.096 0.355245,-0.1532 0.05653,-0.0301 0.221247,-0.12915 0.165092,-0.0983 -0.645271,0.35409 -0.840624,0.50794 -0.477068,0.24011 0.32684,-0.24701 0.59462,-0.55812 0.869413,-0.85914 0.314767,-0.33073 0.567656,-0.70735 0.799193,-1.09883 0.173479,-0.32972 0.342905,-0.66188 0.500922,-0.99934 0.139621,-0.27733 0.259445,-0.56406 0.365469,-0.85573 0.09244,-0.25989 0.168521,-0.52525 0.247679,-0.78943 0.03811,-0.12274 0.06184,-0.24869 0.07398,-0.37642 0.0045,-0.0906 -0.0016,-0.17958 0.02402,-0.26739 0.04991,-0.10085 0.03018,-0.19489 0.01408,-0.30088 -0.02159,-0.0899 -0.01841,-0.18459 -0.03883,-0.27422 -0.01744,-0.0795 -0.06512,-0.1313 -0.109836,-0.19391 -0.09445,-0.0885 -0.208365,-0.15077 -0.327896,-0.19855 -0.228073,-0.0992 -0.467537,-0.17509 -0.706802,-0.24304 -0.374177,-0.11369 -0.761953,-0.18269 -1.149073,-0.23553 -0.466037,-0.0733 -0.933039,-0.0362 -1.397952,0.0198 -0.370914,0.0508 -0.721318,0.18473 -1.077174,0.29372 -0.102455,0.0356 -0.202142,0.0752 -0.296953,0.12766 0,0 0.732155,-0.58451 0.732155,-0.58451 v 0 c 0.09837,-0.0418 0.198086,-0.0801 0.300186,-0.11192 0.354819,-0.11098 0.709096,-0.23152 1.080426,-0.27467 0.470093,-0.0519 0.942258,-0.0766 1.412004,-0.001 0.391832,0.0562 0.78367,0.12692 1.162929,0.24199 0.243038,0.0718 0.487018,0.14632 0.719061,0.24889 0.130349,0.0602 0.260522,0.13052 0.358677,0.23764 0.05409,0.07 0.100208,0.13666 0.125431,0.22337 0.03034,0.0919 0.02291,0.19077 0.04305,0.28572 0.01757,0.11315 0.05913,0.23039 0.007,0.33959 -0.03424,0.0932 -0.0378,0.1449 -0.03379,0.24638 -0.0064,0.13526 -0.03318,0.26838 -0.07047,0.39839 -0.08299,0.26522 -0.160784,0.53183 -0.250333,0.79487 -0.100539,0.29607 -0.222379,0.58556 -0.363204,0.86468 -0.158022,0.34146 -0.331949,0.67504 -0.503295,1.00993 -0.229402,0.39581 -0.475549,0.78073 -0.789853,1.11589 -0.275638,0.30215 -0.539771,0.61838 -0.861354,0.87384 -0.541046,0.42544 -1.163272,0.77791 -1.824066,0.97835 -0.409104,0.0967 -0.827572,0.15336 -1.248291,0.1611 -0.309674,-0.005 -0.623951,-0.005 -0.926875,-0.0772 -0.164323,-0.0517 -0.338074,-0.11189 -0.439375,-0.26039 -0.07229,-0.1459 -0.06164,-0.30507 -0.03141,-0.4618 0.03535,-0.26263 0.0597,-0.52413 0.06898,-0.7891 0.04079,-0.31864 0.129238,-0.62434 0.247409,-0.92327 0.150297,-0.44272 0.296058,-0.88689 0.454041,-1.32694 0.171461,-0.51789 0.343019,-1.03508 0.548704,-1.54081 0.181448,-0.46875 0.361336,-0.93849 0.564787,-1.39825 0,0 0.848529,-0.38855 0.848529,-0.38855 z"
       inkscape:connector-curvature="0"
       style="stroke-width:0.26458332" />
    <path
       id="path7329"
       d="m 84.489596,145.70283 c -0.173506,0.50265 -0.279403,1.02431 -0.395285,1.54223 -0.123957,0.50294 -0.21209,1.01338 -0.340445,1.51523 -0.01236,0.0915 -0.06054,0.17661 -0.07455,0.26756 -0.738777,1.12336 -0.90855,0.56979 -0.824706,0.22614 0,0 0.846511,-0.40466 0.846511,-0.40466 v 0 c -0.110377,0.40248 -0.120068,0.14513 -0.888278,0.55989 -0.0029,0.002 0.0041,0.005 0.0062,0.008 0.05421,-0.0717 0.05933,-0.17658 0.09585,-0.25697 0.146447,-0.5004 0.23743,-1.01298 0.359839,-1.51946 0.113305,-0.51674 0.219051,-1.0351 0.367287,-1.54334 0,0 0.847606,-0.39424 0.847606,-0.39424 z"
       inkscape:connector-curvature="0"
       style="stroke-width:0.26458332" />
    <path
       id="path7341"
       d="m 94.662714,147.71057 c 0.424249,0.0521 0.852037,0.0631 1.278895,0.0736 0.587571,0.0114 1.175282,0.0108 1.762935,0.0116 0.573622,-0.0158 1.145709,0.0282 1.718132,0.057 0.537062,0.0403 1.073394,0.0196 1.610134,-0.01 0.52535,-0.0445 1.05014,-0.0277 1.5756,-0.002 0.59488,0.032 1.18886,0.0563 1.78467,0.0585 0.63981,0.004 1.27876,-0.004 1.91773,-0.0359 0.68822,-0.0592 1.37655,-0.11576 2.06263,-0.19664 0.66045,-0.0713 1.32209,-0.13502 1.98431,-0.18806 0.65985,-0.0445 1.31885,-0.10047 1.97769,-0.15791 0.72236,-0.0421 1.44288,-0.10294 2.16295,-0.17341 0.66831,-0.0545 1.33724,-0.10193 2.0063,-0.14709 0.65866,-0.0411 1.31602,-0.0955 1.9755,-0.12396 0.63414,-0.0234 1.2688,-0.0262 1.90329,-0.0277 0.53165,-0.001 1.06331,-5.3e-4 1.59497,-0.002 0,0 -0.5234,0.3802 -0.5234,0.3802 v 0 c -0.52933,-0.003 -1.05867,-0.003 -1.588,-0.003 -0.63368,0.002 -1.26753,0.004 -1.90083,0.0291 -0.65914,0.0294 -1.31623,0.0849 -1.97469,0.12526 -0.66797,0.0456 -1.336,0.0915 -2.00317,0.14712 -0.72052,0.0704 -1.44181,0.12743 -2.16428,0.17362 -0.65935,0.0583 -1.31905,0.11285 -1.97939,0.15867 -0.66105,0.0547 -1.3219,0.11517 -1.98112,0.18844 -0.68732,0.0791 -1.37663,0.13788 -2.06616,0.19404 -0.64,0.0319 -1.28014,0.0372 -1.92092,0.034 -0.5973,-0.003 -1.19303,-0.0293 -1.78953,-0.0585 -0.52416,-0.0253 -1.04761,-0.0365 -1.5715,0.007 -0.537963,0.0277 -1.075633,0.0441 -1.613719,0.004 -0.570995,-0.0303 -1.141833,-0.0702 -1.714071,-0.056 -0.588823,-1.2e-4 -1.177709,-2.4e-4 -1.766451,-0.0109 -0.431557,-0.0106 -0.863627,-0.0233 -1.292966,-0.0715 0,0 0.534461,-0.37824 0.534461,-0.37824 z"
       inkscape:connector-curvature="0"
       style="stroke-width:0.26458332" />
    <path
       id="path7347"
       d="m 95.035903,146.73644 c 0.265383,-0.0201 0.523248,-0.0862 0.785077,-0.12998 0.254466,-0.0421 0.513019,-0.0307 0.768821,-0.0561 0.321522,-0.0341 0.643303,-0.0525 0.962835,-0.10247 0.156117,-0.0246 0.310965,-0.0607 0.468802,-0.0729 0.09129,0.007 0.164118,-0.0464 0.250727,-0.0684 0.160216,-0.0272 0.323702,-0.0249 0.485693,-0.0271 0.305697,-0.002 0.611396,1.5e-4 0.917091,8e-4 0.462081,0.0105 0.925191,0.0421 1.385671,0.084 0.58641,0.0617 1.1757,0.0839 1.76484,0.0978 0.66327,0.0123 1.32668,0.0114 1.99003,0.0118 0.69737,0.009 1.39331,-0.0499 2.0859,-0.12558 0.67271,-0.0876 1.34758,-0.1543 2.02183,-0.22807 0.57756,-0.07 1.15865,-0.0966 1.73978,-0.1128 0.51535,0.004 1.02862,-0.0218 1.5426,-0.0548 0.52945,-0.0376 1.06062,-0.029 1.59033,-0.0578 0.51816,-0.0367 1.03685,-0.0628 1.55612,-0.0762 0.46522,-10e-4 0.93049,-0.0262 1.39246,-0.0815 0.38128,-0.0417 0.76003,-0.0992 1.13966,-0.15309 0.29358,-0.0246 0.58437,-0.062 0.87565,-0.10526 0.21331,-0.0326 0.42879,-0.0436 0.64423,-0.049 0.2436,-0.003 0.48726,-0.002 0.73088,-0.001 0.21781,5.3e-4 0.43563,-1.4e-4 0.65344,-0.001 0.0442,-5.2e-4 0.027,1.7e-4 0.0514,-10e-4 0,0 -0.53463,0.38824 -0.53463,0.38824 v 0 c -0.003,-2.1e-4 -0.006,-5.3e-4 -0.009,-5.3e-4 -0.013,-2.1e-4 -0.0259,-5.3e-4 -0.0389,-5.3e-4 -0.21624,-0.001 -0.43247,-0.002 -0.64871,-0.002 -0.24422,2.2e-4 -0.48849,-8e-4 -0.73267,0.005 -0.21338,0.007 -0.42658,0.0208 -0.63773,0.0538 -0.29044,0.0428 -0.58147,0.0727 -0.87341,0.10312 -0.3787,0.0539 -0.75712,0.10799 -1.13752,0.14924 -0.46331,0.05 -0.92885,0.0758 -1.39493,0.0764 -0.5182,0.0143 -1.03583,0.0402 -1.55303,0.0759 -0.53029,0.0255 -1.06178,0.0214 -1.5916,0.0598 -0.51388,0.033 -1.02734,0.053 -1.54244,0.0518 -0.57943,0.0163 -1.15854,0.0461 -1.73442,0.11513 -0.67354,0.071 -1.34687,0.14143 -2.01891,0.22593 -0.69463,0.0739 -1.3922,0.13188 -2.09146,0.12116 -0.66417,-1.5e-4 -1.3284,8e-5 -1.99248,-0.0119 -0.59089,-0.0148 -1.18174,-0.0386 -1.77001,-0.0991 -0.46108,-0.0384 -0.924117,-0.0712 -1.386746,-0.0764 -0.307195,2.4e-4 -0.61441,-5e-5 -0.921584,0.004 -0.159636,0.003 -0.322913,0.001 -0.477975,0.0441 -0.08496,0.0305 -0.16646,0.061 -0.258577,0.0581 -0.154392,0.0189 -0.307303,0.0474 -0.460973,0.0712 -0.320363,0.0463 -0.643353,0.063 -0.964956,0.0991 -0.2558,0.0202 -0.513879,0.0164 -0.767377,0.0616 -0.262485,0.046 -0.522721,0.10514 -0.788675,0.12898 0,0 0.524888,-0.39142 0.524888,-0.39142 z"
       inkscape:connector-curvature="0"
       style="stroke-width:0.26458332" />
    <path
       id="path7349"
       d="m 95.899752,144.76687 c 0.508373,0.004 1.01678,0.004 1.525169,0.004 0.709131,-0.005 1.417466,1.5e-4 2.125986,0.0296 0.737173,0.0351 1.474963,0.0511 2.212843,0.0601 0.64897,0.0369 1.29932,0.0525 1.94786,0.0959 0.60529,0.051 1.21213,0.0747 1.81926,0.0882 0.6202,0.0164 1.23958,0.0128 1.85916,-0.0172 0.61658,-0.029 1.23362,-0.0659 1.85098,-0.0497 0.57184,0.0291 1.14379,0.0527 1.71623,0.0653 0.50433,0.013 1.00761,0.0161 1.51096,-0.0185 0.48455,-0.0427 0.97134,-0.0412 1.4564,-0.0724 0.51206,-0.0372 1.02449,-0.0602 1.53573,-0.10756 0.47883,-0.0411 0.95568,-0.10408 1.43184,-0.16891 0.41796,-0.0631 0.83831,-0.11164 1.25628,-0.17443 0.34774,-0.0546 0.69806,-0.0824 1.04629,-0.13261 0.25344,-0.0393 0.50887,-0.0608 0.76497,-0.0709 0.13148,-0.005 0.26307,-0.006 0.39463,-0.006 0.0441,2e-5 0.0235,0 0.0618,4e-5 0,0 -0.5338,0.38734 -0.5338,0.38734 v 0 c -0.0375,-5.3e-4 -0.0173,-2.3e-4 -0.0606,-5.3e-4 -0.12976,-5.3e-4 -0.25955,5.3e-4 -0.38923,0.006 -0.25371,0.0118 -0.5066,0.0351 -0.75776,0.0736 -0.34751,0.049 -0.69758,0.0748 -1.04416,0.13124 -0.41793,0.0587 -0.8365,0.11301 -1.25435,0.17222 -0.47651,0.0645 -0.95387,0.12568 -1.43308,0.16627 -0.51133,0.0456 -1.02398,0.0673 -1.53591,0.10535 -0.48573,0.0283 -0.97274,0.0324 -1.45783,0.0738 -0.50352,0.0315 -1.00711,0.0244 -1.51134,0.0118 -0.57222,-0.0134 -1.14388,-0.0387 -1.7156,-0.0658 -0.61594,-0.0118 -1.23144,0.0225 -1.84655,0.052 -0.62089,0.0293 -1.24181,0.0305 -1.86324,0.0146 -0.60743,-0.0148 -1.21452,-0.04 -1.82014,-0.0909 -0.64719,-0.041 -1.29576,-0.0611 -1.94337,-0.095 -0.73764,-0.01 -1.475125,-0.028 -2.212061,-0.0628 -0.709594,-0.0281 -1.419053,-0.0294 -2.129158,-0.0242 -0.512437,2.7e-4 -1.024892,1.2e-4 -1.537316,0.004 0,0 0.529087,-0.38441 0.529087,-0.38441 z"
       inkscape:connector-curvature="0"
       style="stroke-width:0.26458332" />
    <path
       id="path7351"
       d="m 97.405239,143.66191 c 0.440796,0.10184 0.894906,0.12293 1.345248,0.14374 0.58371,0.0209 1.167905,0.0211 1.751913,0.0219 0.55378,1e-5 1.10756,-0.001 1.66134,-0.002 0.52192,-0.005 1.04404,0.0102 1.56558,-0.0122 0.56975,-0.0353 1.14002,-0.059 1.71067,-0.0724 0.5264,-0.0327 1.05228,-0.0688 1.57742,-0.11736 0.57596,-0.083 1.15581,-0.1276 1.73677,-0.15423 0.60366,-0.0245 1.2061,-0.0693 1.80997,-0.0918 0.60486,-0.0417 1.20978,-0.0773 1.8137,-0.13103 0.56239,-0.0376 1.12425,-0.0786 1.68626,-0.12201 0.53318,-0.058 1.06695,-0.10755 1.59729,-0.18835 0.51124,-0.0788 1.02238,-0.15773 1.53347,-0.23762 0.40023,-0.0475 0.79991,-0.097 1.20014,-0.14482 0.27293,-0.0318 0.54758,-0.0453 0.82209,-0.0541 0.14385,-0.003 0.28774,-0.003 0.43161,-0.002 0.0836,6e-5 0.0436,8e-5 0.12001,-2e-5 0,0 -0.53202,0.38629 -0.53202,0.38629 v 0 c -0.0756,-5.2e-4 -0.0359,-2.6e-4 -0.11895,-7.9e-4 -0.14305,-9e-5 -0.28612,-7.9e-4 -0.42913,0.003 -0.27175,0.008 -0.54347,0.0224 -0.81349,0.0551 -0.39838,0.049 -0.79724,0.0918 -1.19518,0.14385 -0.5107,0.0794 -1.02157,0.15743 -1.53234,0.23625 -0.5313,0.0776 -1.06558,0.1291 -1.59957,0.18433 -0.56152,0.043 -1.1231,0.082 -1.68481,0.12183 -0.60398,0.0528 -1.20914,0.0873 -1.81407,0.12737 -0.6041,0.0238 -1.20679,0.0701 -1.81085,0.0931 -0.581,0.0283 -1.16022,0.0774 -1.73656,0.15765 -0.52582,0.0486 -1.05258,0.0844 -1.57983,0.1137 -0.57021,0.0138 -1.13995,0.0384 -1.70931,0.0727 -0.52262,0.0192 -1.04565,0.009 -1.56855,0.0112 -0.55297,2.2e-4 -1.10595,2.6e-4 -1.658917,-1.3e-4 -0.585104,-0.001 -1.170424,-5.3e-4 -1.755192,-0.0231 -0.4566,-0.022 -0.916094,-0.0463 -1.36357,-0.1465 0,0 0.538858,-0.37169 0.538858,-0.37169 z"
       inkscape:connector-curvature="0"
       style="stroke-width:0.26458332" />
    <path
       id="path7353"
       d="m 97.167426,143.85758 c -0.04451,0.0143 -0.08954,0.0271 -0.133538,0.0429 -0.105973,0.0381 -0.405185,0.19663 -0.305144,0.14494 0.657831,-0.33991 0.396031,-0.21715 0.122264,0.0455 -0.276225,0.29091 -0.527068,0.60502 -0.767622,0.92577 -0.246264,0.31188 -0.475832,0.6363 -0.718375,0.95098 -0.231775,0.31216 -0.469019,0.61995 -0.72888,0.90929 -0.22253,0.23124 -0.458949,0.44942 -0.693171,0.66896 -0.111321,0.10018 -0.225393,0.19726 -0.341273,0.29211 -0.0191,0.0156 -0.0182,0.023 -0.02895,-0.0148 -0.0674,-0.23751 0.290671,-0.22144 -0.535827,0.24353 0,0 0.613455,-0.23794 0.613455,-0.23794 v 0 c -0.210682,0.12026 -0.500266,0.49166 -0.659198,0.30838 -0.0099,-0.0114 -0.01701,-0.0266 -0.01738,-0.0417 -1.64e-4,-0.007 0.01072,-0.008 0.01606,-0.0121 0.119795,-0.093 0.235505,-0.19109 0.349758,-0.29074 0.239792,-0.21397 0.468984,-0.44164 0.699637,-0.66511 0.262568,-0.28615 0.501113,-0.592 0.731171,-0.90482 0.244396,-0.31306 0.471601,-0.63895 0.718725,-0.94995 0.2413,-0.3224 0.491135,-0.63851 0.763611,-0.93525 0.0041,-0.004 0.270907,-0.26452 0.27804,-0.26929 0.368134,-0.24583 0.73002,-0.49016 1.156637,-0.60835 0,0 -0.52001,0.39763 -0.52001,0.39763 z"
       inkscape:connector-curvature="0"
       style="stroke-width:0.26458332" />
    <path
       id="path7355"
       d="m 98.819178,143.78796 c -0.182637,0.55473 -0.365932,1.10898 -0.563846,1.65854 -0.201155,0.59147 -0.448302,1.16583 -0.658286,1.75386 -0.07802,0.20166 -0.15835,0.40241 -0.23649,0.60403 -0.0108,0.028 -0.0061,0.0157 -0.01426,0.0372 0,0 -0.599448,0.27702 -0.599448,0.27702 v 0 c 0.0093,-0.022 0.004,-0.009 0.01601,-0.0379 0.08439,-0.20216 0.166245,-0.40535 0.250232,-0.60767 0.212759,-0.5896 0.467325,-1.1635 0.667266,-1.75811 0.195836,-0.54527 0.378939,-1.09468 0.547237,-1.64909 0,0 0.591593,-0.27783 0.591593,-0.27783 z"
       inkscape:connector-curvature="0"
       style="stroke-width:0.26458332" />
    <path
       id="path7357"
       d="m 100.6338,143.98182 c -0.0965,0.64407 -0.22448,1.28294 -0.33762,1.92428 -0.1178,0.59105 -0.21822,1.18533 -0.28369,1.78451 -0.04689,0.48237 0.0896,0.26611 -0.615716,0.51474 0,0 0.583824,-0.29856 0.583824,-0.29856 v 0 c -0.737468,0.45551 -0.589441,0.54704 -0.54809,0.071 0.07234,-0.60217 0.176726,-1.19969 0.295217,-1.79442 0.111302,-0.63616 0.23758,-1.27041 0.321225,-1.91089 0,0 0.58485,-0.29069 0.58485,-0.29069 z"
       inkscape:connector-curvature="0"
       style="stroke-width:0.26458332" />
    <path
       id="path7359"
       d="m 102.53428,143.57794 c -10e-4,0.57418 -0.0106,1.14757 -0.0356,1.72122 -0.0171,0.63133 -0.0691,1.26382 -0.046,1.89554 0.0437,0.57166 0.21197,0.28062 -0.50987,0.64553 0,0 0.5995,-0.27232 0.5995,-0.27232 v 0 c -0.70626,0.42355 -0.61483,0.5288 -0.66403,-0.0783 -0.017,-0.63503 0.0394,-1.2704 0.0544,-1.90508 0.0225,-0.56972 0.0337,-1.1392 0.0182,-1.70936 0,0 0.58345,-0.29728 0.58345,-0.29728 z"
       inkscape:connector-curvature="0"
       style="stroke-width:0.26458332" />
    <path
       id="path7361"
       d="m 106.9649,143.79283 c -0.0201,0.59059 -0.008,1.18205 -0.005,1.7729 0.003,0.57547 0.007,1.15093 0.0115,1.72638 0.004,0.11716 -7.9e-4,0.23466 0.006,0.35175 0,0 -0.58772,0.29948 -0.58772,0.29948 v 0 c 0.006,-0.11898 0.002,-0.2383 0.005,-0.35735 0.003,-0.57713 0.003,-1.15427 -10e-4,-1.73139 -0.004,-0.59036 -0.0139,-1.1807 -0.0142,-1.77108 0,0 0.58486,-0.29069 0.58486,-0.29069 z"
       inkscape:connector-curvature="0"
       style="stroke-width:0.26458332" />
    <path
       id="path7369"
       d="m 109.24336,143.67244 c -0.0425,0.57923 -0.0919,1.15789 -0.12967,1.73748 -0.0389,0.76546 -0.0954,1.52981 -0.13088,2.29549 0,0 -0.57182,0.28763 -0.57182,0.28763 v 0 c 0.0442,-0.76675 0.10285,-1.53264 0.13827,-2.29984 0.0326,-0.57481 0.0786,-1.14864 0.11065,-1.72348 0,0 0.58345,-0.29728 0.58345,-0.29728 z"
       inkscape:connector-curvature="0"
       style="stroke-width:0.26458332" />
    <path
       id="path7379"
       d="m 110.6507,143.49818 c -0.0519,0.40545 -0.0555,0.81466 -0.0879,1.2216 -0.0412,0.4031 -0.0687,0.80723 -0.0836,1.21211 -0.0286,0.31983 -0.0652,0.6387 -0.0861,0.95921 -0.008,0.14577 -0.0136,0.29174 -0.0141,0.43775 0.004,0.0453 -0.003,0.0736 -0.0353,0.10717 -0.0216,0.0343 -0.0363,0.0722 -0.0505,0.10994 -0.19494,0.075 -0.38988,0.15003 -0.58482,0.22505 0,0 0.58977,-0.28948 0.58977,-0.28948 v 0 c -0.20098,0.11517 -0.40197,0.23033 -0.60296,0.3455 0.0124,-0.0422 0.0293,-0.0828 0.0461,-0.12334 0.0224,-0.0603 0.0521,-0.0207 0.0497,-0.0765 0.004,-0.14817 0.0116,-0.29623 0.0197,-0.44424 0.0217,-0.32051 0.0565,-0.6397 0.0903,-0.95912 0.0144,-0.40614 0.0432,-0.81135 0.084,-1.21573 0.0354,-0.40584 0.0385,-0.81396 0.0798,-1.21954 0,0 0.58592,-0.29042 0.58592,-0.29042 z"
       inkscape:connector-curvature="0"
       style="stroke-width:0.26458332" />
    <path
       id="path7381"
       d="m 113.09707,143.51224 c -0.0712,0.47641 -0.0676,0.95841 -0.05,1.43833 0.0249,0.53415 0.0446,1.0685 0.0594,1.60302 0.005,0.16998 0.009,0.33998 0.0138,0.50997 1.4e-4,0.005 0.003,0.018 5.3e-4,0.014 -0.005,-0.007 -0.0107,-0.0588 -0.0107,-0.0593 0,0 -0.51351,0.41485 -0.51351,0.41485 v 0 c -0.0266,-0.0145 -0.0686,-0.0316 -0.0638,-0.0699 0.003,-0.17167 1.4e-4,-0.34339 -0.001,-0.51506 -0.009,-0.53516 -0.0261,-1.07014 -0.0536,-1.60469 -0.0209,-0.48262 -0.0236,-0.96549 0.0317,-1.44638 0,0 0.58756,-0.28491 0.58756,-0.28491 z"
       inkscape:connector-curvature="0"
       style="stroke-width:0.26458332" />
    <path
       id="path7383"
       d="m 115.19611,143.21146 c 0.027,0.54896 0.081,1.09671 0.13645,1.64351 0.0494,0.59112 0.13449,1.17795 0.24063,1.76129 0.0457,0.10435 0.0337,0.29878 0.13014,0.38003 0,0 -0.56385,0.34057 -0.56385,0.34057 v 0 c -0.0878,-0.11821 -0.0973,-0.28033 -0.13663,-0.41752 -0.0974,-0.58718 -0.18404,-1.17609 -0.23471,-1.76946 -0.057,-0.54661 -0.10882,-1.09389 -0.15473,-1.64152 0,0 0.5827,-0.2969 0.5827,-0.2969 z"
       inkscape:connector-curvature="0"
       style="stroke-width:0.26458332" />
    <path
       id="path7385"
       d="m 117.19967,142.7448 c 0.13484,0.5367 0.28773,1.06867 0.41915,1.6062 0.12926,0.53823 0.24411,1.08003 0.34322,1.62464 0.0443,0.1806 0.0198,0.10002 0.0691,0.2431 0,0 -0.57282,0.31527 -0.57282,0.31527 v 0 c -0.048,-0.15168 -0.0242,-0.0671 -0.0675,-0.25488 -0.0896,-0.54579 -0.20431,-1.08725 -0.33321,-1.62504 -0.13117,-0.53719 -0.28263,-1.0696 -0.43381,-1.60141 0,0 0.57586,-0.30788 0.57586,-0.30788 z"
       inkscape:connector-curvature="0"
       style="stroke-width:0.26458332" />
    <path
       id="path7387"
       d="m 119.21176,142.41504 c 0.26654,0.38457 0.50054,0.78841 0.71206,1.20538 0.22607,0.46789 0.42614,0.94717 0.65572,1.41345 0.22339,0.41704 0.39672,0.85769 0.56483,1.29912 0.10094,0.25102 0.19551,0.50362 0.30365,0.75162 0.033,0.0843 0.082,0.16109 0.13943,0.2307 0.15276,0.17114 0.14065,-0.0376 -0.55335,0.27333 0,0 0.58846,-0.29193 0.58846,-0.29193 v 0 c -0.53763,0.3493 -0.4402,0.55829 -0.6016,0.35675 -0.058,-0.0763 -0.11089,-0.15786 -0.14426,-0.24817 -0.10429,-0.25102 -0.19811,-0.50525 -0.29714,-0.75842 -0.16391,-0.44097 -0.33701,-0.87966 -0.55873,-1.29535 -0.22924,-0.46622 -0.42948,-0.94504 -0.65451,-1.41319 -0.2106,-0.41387 -0.44151,-0.81662 -0.71803,-1.19067 0,0 0.56347,-0.33262 0.56347,-0.33262 z"
       inkscape:connector-curvature="0"
       style="stroke-width:0.26458332" />
  </g>
  <g
     inkscape:groupmode="layer"
     id="layer2"
     inkscape:label="Layer 4"
     style="display:inline"
     sodipodi:insensitive="true">
    <path
       id="path3872"
       d="m 97.695471,48.733574 c -0.08146,-0.05507 -0.151275,-0.134291 -0.238297,-0.181406 -0.01667,-0.009 -0.03687,-0.02199 -0.05467,-0.0155 -0.01273,0.0046 -0.02217,0.04601 -0.01045,0.03925 0.531103,-0.305496 1.052491,-0.627578 1.578737,-0.941366 0.164653,0.397274 0.581498,0.737333 0.884155,1.029539 0.816854,0.76073 1.691264,1.455102 2.551764,2.164955 0.68507,0.590352 1.39545,1.148477 2.1381,1.664155 0.26382,0.141211 0.13718,0.08127 0.37779,0.18424 0,0 -1.52039,1.001591 -1.52039,1.001591 v 0 c -0.235,-0.131522 -0.11097,-0.05726 -0.36997,-0.226258 -0.71372,-0.546034 -1.39978,-1.126636 -2.08079,-1.712728 -0.86673,-0.71566 -1.750813,-1.410406 -2.59944,-2.147749 -0.371668,-0.335204 -0.781624,-0.667968 -1.033883,-1.107358 1.696085,-1.078953 1.126021,-1.319184 1.938996,-0.739109 0,0 -1.561666,0.98774 -1.561666,0.98774 z"
       inkscape:connector-curvature="0"
       style="stroke-width:0.26458332" />
    <path
       id="path3964"
       d="m 102.64694,54.098496 c -0.80711,0.151109 -1.55007,0.542079 -2.28643,0.890799 -1.113684,0.561486 -2.20767,1.160243 -3.32623,1.71204 -1.154848,0.486561 -0.982186,0.975788 1.656294,-0.998927 0.08517,-0.06374 -0.0709,-0.200601 -0.106349,-0.300902 0,0 -2.110356,1.561428 -2.110356,1.561428 v 0 c -0.07313,-0.09702 -0.314947,-0.216057 -0.219374,-0.291069 0.906788,-0.711697 1.78803,-1.095978 2.755029,-1.547817 1.108226,-0.538091 2.186166,-1.13506 3.291196,-1.679596 0.7819,-0.368139 1.58635,-0.801855 2.46035,-0.88196 0,0 -2.11413,1.536004 -2.11413,1.536004 z"
       inkscape:connector-curvature="0"
       style="stroke-width:0.26458332" />
    <path
       id="path3966"
       d="m 87.676634,64.085318 c -0.374202,-0.101115 -0.732104,0.0489 -1.07357,0.190395 -0.08621,0.03875 -0.172808,0.07665 -0.258633,0.116236 -0.310581,0.143262 -0.289314,0.135181 -0.606981,0.304689 -0.11667,0.06226 -0.463701,0.254429 -0.349324,0.188053 2.465247,-1.430682 2.289167,-1.328023 1.437124,-0.808429 -0.570656,0.337666 -1.132181,0.688895 -1.623626,1.136226 7.94e-4,0.02485 -0.165812,0.168778 -0.135326,0.0574 0.01069,-0.03904 0.211494,-0.123243 0.232261,-0.134967 0.824545,-0.536064 -0.08333,0.05804 -1.939533,1.092809 -0.05182,0.02889 0.09669,-0.0688 0.143978,-0.104629 0.126148,-0.0956 0.223422,-0.192429 0.317844,-0.31862 0.08134,-0.171079 0.231003,-0.300003 -0.04942,-0.214532 -0.0488,0.0172 -0.09846,0.03218 -0.146412,0.05163 -0.123212,0.04997 -0.464135,0.259649 -0.348195,0.194569 3.59569,-2.018355 2.365666,-1.557861 1.748547,-0.899885 -0.239721,0.387753 -0.109802,0.331698 0.187423,0.224356 0.06408,-0.028 0.131646,-0.04909 0.192243,-0.084 0.07069,-0.04072 0.271055,-0.180999 0.199568,-0.141687 -0.671516,0.369253 -1.324224,0.772509 -2.000904,1.13221 -0.06805,0.03617 0.11725,-0.100729 0.168582,-0.15821 0.121695,-0.136268 0.1118,-0.152744 0.169796,-0.31242 -0.0044,-0.03937 0.0062,-0.08355 -0.01315,-0.118115 -0.149622,-0.267195 -0.935517,-0.05357 -1.144736,0.0075 -0.935471,0.403892 -0.659823,0.296315 1.717561,-1.003649 0.05446,-0.02978 -0.102695,0.07067 -0.147558,0.113559 -0.12133,0.115999 -0.08521,0.142184 0.03043,0.220604 0.651196,0.23849 1.363673,0.05102 1.994091,-0.166206 0.101388,-0.04144 0.207018,-0.07373 0.304165,-0.124319 0.07554,-0.03934 0.285366,-0.18559 0.211053,-0.143992 -0.702911,0.393486 -1.401953,0.793938 -2.097625,1.200086 -0.0095,0.0055 0.03768,-0.0039 0.03238,0.0056 -0.01032,0.01865 -0.03292,0.03338 -0.05423,0.0339 -0.06698,0.0016 -0.132728,-0.01847 -0.199093,-0.02772 -0.456004,-0.01667 -0.928225,0.03524 -1.354064,0.210272 -0.09329,0.03835 -0.354962,0.191757 -0.267165,0.142097 0.67252,-0.380389 1.34761,-0.756219 2.021414,-1.134327 -0.031,-0.04355 -0.125609,0.112438 -0.08159,0.147243 0.21014,0.166193 0.945843,0.208619 1.197491,0.235575 0.728763,-0.01265 1.523902,1.64e-4 2.201137,-0.307491 -0.725614,0.415639 -1.451226,0.831279 -2.17684,1.246918 0.0086,0.05236 0.06936,0.126764 0.02582,0.157083 -0.05452,0.03795 -0.130011,-0.02748 -0.195435,-0.03901 -0.415864,-0.07329 -0.831977,-0.10927 -1.252601,-0.143041 -0.453554,0.0058 -0.915678,-0.02895 -1.36431,0.06077 -0.09901,0.01979 -0.376606,0.139785 -0.289777,0.08825 1.914932,-1.136607 2.880725,-1.272727 2.03998,-1.14909 0.574984,0.312139 1.247558,0.370985 1.887069,0.436475 0.329284,0.02008 0.657439,0.06484 0.986464,0.01804 0.0587,-0.0084 0.225002,-0.06795 0.173726,-0.03818 -2.22258,1.290434 -2.431368,0.406641 -2.14679,1.363028 -0.659114,-0.207219 -1.34816,-0.234842 -2.032931,-0.221272 -0.100431,0.01582 -0.205314,0.01389 -0.301292,0.04742 -0.06895,0.02408 -0.246057,0.157187 -0.182321,0.121524 0.712065,-0.398458 1.392422,-1.586839 2.121722,-1.220878 0.257498,0.129209 -0.07261,-0.02535 0.336601,0.160057 0.485325,0.181719 1.013425,0.208201 1.527071,0.186661 0.0181,-0.0205 0.03619,-0.041 0.05429,-0.06151 0,0 -2.071632,1.604714 -2.071632,1.604714 v 0 c -0.03015,-0.0052 -0.0603,-0.01037 -0.09045,-0.01556 -0.53176,-0.03664 -1.06785,-0.08508 -1.564365,-0.296461 -0.09022,-0.04434 -0.186269,-0.07838 -0.270653,-0.133008 -1.259125,-0.815134 1.448742,-1.899338 2.497979,-1.887387 0.735521,0.01495 1.52745,0.02662 2.204821,0.339278 0.05388,0.0871 0.244602,0.201237 0.161641,0.2613 -1.88754,1.366591 -1.87385,1.403331 -3.471034,1.238813 -0.552688,-0.06827 -1.490088,-0.153728 -1.941682,-0.498935 -0.08258,-0.06313 -0.139602,-0.154043 -0.209401,-0.231066 -0.01244,-0.07713 -0.102005,-0.187598 -0.03731,-0.231394 2.042101,-1.382453 2.12413,-1.472544 4.030181,-1.405075 0.29097,0.02204 1.360177,0.05217 1.591209,0.217741 0.08684,0.06224 0.281821,0.186973 0.197429,0.252487 -0.6995,0.543018 -1.519809,0.90932 -2.279713,1.36398 -0.720775,0.181597 -1.480981,0.21236 -2.220034,0.17785 -0.422008,-0.04871 -1.451078,-0.0546 -1.508215,-0.673251 -0.0068,-0.07355 0.03735,-0.142922 0.05603,-0.214384 1.53339,-0.911034 2.412481,-1.820465 4.1197,-1.644729 0.08738,0.02678 0.182819,0.03495 0.262138,0.08034 0.127662,0.07306 0.356188,0.28702 0.236509,0.372528 -0.918411,0.656194 -1.787089,1.281055 -2.831084,1.628794 -0.70975,0.192738 -1.507191,0.352433 -2.184194,-0.02342 -0.168465,-0.17168 -0.342807,-0.332147 -0.215021,-0.589359 0.03376,-0.06796 0.06759,-0.145643 0.132305,-0.185272 2.159301,-1.322202 1.580716,-1.118399 2.724189,-1.476071 0.546457,-0.09619 1.310278,-0.152191 1.453669,0.538189 -0.02723,0.214652 -0.07575,0.503971 -0.280935,0.636149 -0.643165,0.414332 -1.835539,1.36634 -2.859924,1.605388 -0.07147,-0.0021 -0.145007,0.01085 -0.214407,-0.0063 -0.338924,-0.08399 -0.406921,-0.476266 -0.276246,-0.749482 0.610674,-0.928601 1.524431,-1.094754 2.648915,-1.742552 0.09916,-0.05712 0.295423,-0.11698 0.407644,-0.131802 0.06489,-0.0086 0.130889,-0.0021 0.196334,-0.003 0.322448,0.112659 0.446556,0.355629 0.308226,0.67883 -0.114842,0.19993 -0.228568,0.392933 -0.433215,0.515197 -2.325381,1.389253 -1.506831,1.096809 -2.537746,1.449012 -0.336582,0.02702 -0.687832,-0.168524 -0.428411,-0.528016 0.49955,-0.47326 1.057495,-0.86624 1.657567,-1.204 1.346404,-0.837522 2.703624,-1.68593 4.168011,-2.302753 0.392686,-0.132495 0.778213,-0.200215 1.188405,-0.09605 0,0 -2.143615,1.493684 -2.143615,1.493684 z"
       inkscape:connector-curvature="0"
       style="stroke-width:0.26458332" />
    <path
       id="path4008"
       d="m 43.346544,53.255462 c -0.731483,0.432078 -1.968079,0.847852 1.471869,-0.824187 0.156493,-0.07607 -0.273674,0.215267 -0.404093,0.330451 -0.350877,0.309891 -0.720825,0.690446 -1.04898,1.017757 -1.247703,1.247979 -2.440863,2.548088 -3.633348,3.848367 -0.316034,0.340823 -0.643006,0.671129 -0.97409,0.997233 -0.07264,0.07155 -0.126712,0.168098 -0.21689,0.215667 -0.778192,0.410491 -1.566259,0.801984 -2.349389,1.202976 -0.133418,-0.175929 -0.114776,-0.371872 -0.09462,-0.576987 0.0035,-0.04153 0.01267,-0.08287 0.008,-0.124389 -0.0475,-0.125865 0.105956,0.190442 0.11371,0.295788 2.02e-4,0.0027 -0.423814,0.115859 -0.6209,0.1763 -0.522094,0.138287 -1.052962,0.244224 -1.55412,0.448217 -0.04031,0.0245 -0.161578,0.09751 -0.120941,0.07354 2.635864,-1.555003 1.35006,-1.455213 2.70769,-1.179898 0.54219,0.01286 1.098394,0.04332 1.621565,-0.11988 0.877393,-0.561957 -1.451274,0.757552 -2.115439,1.231503 -0.0668,0.04767 0.09473,0.160639 0.06549,0.237315 -0.0078,0.02035 -0.540184,0.03667 -0.748662,0.06197 -0.342395,0.06716 -0.686158,0.120457 -1.015289,0.240488 -0.07816,0.0285 -0.301426,0.139922 -0.229452,0.0982 2.027243,-1.175221 2.881003,-1.258432 2.03327,-1.168831 0.540801,0.139282 1.110187,0.191286 1.671088,0.185669 0.334443,-0.01521 0.669229,-0.03363 1.002146,-0.07026 0.06829,-0.0075 0.139705,-0.0039 0.204306,-0.02726 0.03354,-0.01214 0.106966,-0.09358 0.0768,-0.07454 -0.734296,0.463511 -1.460696,0.939409 -2.191044,1.409113 -0.01987,0.01847 -0.0332,0.04927 -0.05963,0.05537 -0.224192,0.05179 -0.618625,0.0036 -0.854163,0.01908 -0.33855,0.0222 -0.382489,0.04318 -0.710104,0.111607 -0.09998,0.02606 -0.202729,0.04317 -0.299937,0.07817 -0.07436,0.02678 -0.280668,0.145344 -0.212016,0.106175 1.542738,-0.880208 1.464381,-1.359069 2.307103,-1.158637 0.62321,0.07079 1.195451,-0.123703 1.722456,-0.4381 -0.693391,0.393536 -1.385252,0.789779 -2.080175,1.180603 -0.01659,0.0093 0.03693,-0.01831 0.04456,-0.03578 0.0053,-0.01209 -0.02291,0.01736 -0.03605,0.0163 -0.0581,-0.0047 -0.114173,-0.02371 -0.171712,-0.03299 -0.369816,-0.05967 -0.26456,-0.04248 -0.671018,-0.05152 -0.388564,0.0085 -0.763233,0.08509 -1.126564,0.219903 -0.09243,0.03429 -0.357828,0.164129 -0.272759,0.114313 2.435355,-1.426099 2.647484,-1.581581 1.939139,-1.078582 -0.03455,0.119719 0.593617,0.124161 0.665808,0.118367 0.07614,-0.0061 0.150654,-0.02532 0.225981,-0.03798 0.07229,-0.02484 0.144592,-0.04971 0.216887,-0.07456 0,0 -2.049381,1.568733 -2.049381,1.568733 v 0 c -0.08019,0.0141 -0.160377,0.02819 -0.240567,0.04229 -0.473543,0.01373 -1.058135,-0.01892 -1.199025,-0.564062 0.347326,-1.056503 0.02918,-0.229063 2.463117,-1.556155 0.09856,-0.05374 0.534686,-0.154781 0.618397,-0.169789 0.357175,-0.06403 0.458896,-0.05495 0.823656,-0.06887 0.307814,0.0195 0.731187,-1.37e-4 0.995066,0.202436 0.0016,0.0013 0.306787,0.299797 0.172469,0.393602 -0.746175,0.521105 -1.551085,0.952603 -2.326627,1.428906 -0.58126,0.272341 -1.215424,0.410453 -1.853964,0.273002 -0.07843,-0.03284 -0.165108,-0.05052 -0.235297,-0.09851 -0.123986,-0.08479 -0.349342,-0.303482 -0.226319,-0.389667 1.192723,-0.83557 1.712195,-1.311072 2.844009,-1.523241 0.35025,-0.05173 1.357968,-0.176771 1.677747,-0.06562 0.07629,0.02652 0.135241,0.08833 0.202861,0.132498 -0.719172,0.497192 -1.427586,1.010317 -2.157518,1.491576 -0.02869,0.01892 -0.06873,-0.0021 -0.103074,-0.0011 -0.06371,0.0021 -0.127302,0.007 -0.190955,0.01048 -0.330309,0.01789 -0.660752,0.03677 -0.991709,0.03582 -0.4508,-0.01413 -1.411576,-0.03305 -1.780008,-0.312693 -0.0731,-0.05548 -0.118359,-0.140269 -0.177538,-0.210404 -0.0075,-0.0705 -0.08133,-0.171956 -0.02249,-0.211498 1.548408,-1.040421 2.108817,-1.419172 3.628978,-1.637911 0.08716,-0.0091 0.752326,-0.104666 0.828997,-0.0597 1.001866,0.58756 -1.345623,1.55702 -2.145863,1.626468 -0.552066,0.08039 -1.120465,0.08151 -1.673548,0.01429 -1.778426,-0.445367 -0.278497,-1.334976 1.569395,-1.953916 0.512421,-0.165057 1.04258,-0.268935 1.555483,-0.433475 0.180964,-0.05703 0.370646,-0.110146 0.542173,-0.193645 0.02769,-0.01347 0.05213,-0.06467 0.07849,-0.04874 0.09416,0.05688 0.308364,0.343858 0.234762,0.231955 -0.01468,0.01847 -0.03808,0.05259 -0.03878,0.08778 -0.01527,0.06548 -0.02289,0.381339 -0.100441,0.24262 -0.750038,0.409684 -1.503265,0.813586 -2.250115,1.229053 -0.03548,0.01974 0.08058,-0.01902 0.114647,-0.04111 0.474448,-0.307552 0.81166,-0.814427 1.24588,-1.166982 1.215205,-1.28506 2.411315,-2.588048 3.641837,-3.858585 0.194775,-0.203669 0.751752,-0.790851 0.977868,-1.01074 0.119192,-0.115909 0.227907,-0.247047 0.367779,-0.336921 0.81616,-0.524407 1.657048,-1.009438 2.493197,-1.501349 0.199144,-0.117157 0.276075,-0.124653 0.483947,-0.180192 0,0 -2.083975,1.567323 -2.083975,1.567323 z"
       inkscape:connector-curvature="0"
       style="stroke-width:0.26458332" />
    <path
       id="path4026"
       d="m 32.264154,64.351928 c -0.769551,0.713555 -1.364462,1.585958 -1.984537,2.425756 -1.288266,1.829104 -2.560854,3.668816 -3.86795,5.484646 -0.720585,0.882494 -1.291868,1.906381 -2.10277,2.71476 0.538878,3.990715 -2.53555,1.730465 -2.40803,0.884872 0.01223,-0.08112 0.07754,-0.144584 0.116312,-0.216876 0,0 2.368824,-1.036823 2.368824,-1.036823 v 0 c -0.041,0.04771 -0.06472,0.119452 -0.122993,0.14314 -0.03863,0.01569 -0.0776,-0.03056 -0.116393,-0.04584 -0.752428,0.406141 -1.504856,0.812281 -2.257284,1.218422 0.321732,-0.145232 0.537114,-0.426027 0.76203,-0.692367 0.554486,-0.656614 1.06819,-1.347303 1.589505,-2.02996 1.312372,-1.788033 2.577018,-3.609038 3.804547,-5.456438 0.576286,-0.815981 1.117822,-1.667286 1.807607,-2.394564 0,0 2.411132,-0.998726 2.411132,-0.998726 z"
       inkscape:connector-curvature="0"
       style="stroke-width:0.26458332" />
    <path
       id="path4028"
       d="m 24.594643,74.420253 c 1.689599,0.145761 3.396225,-0.07507 5.078272,-0.231175 3.159122,-0.354883 6.310905,-0.766005 9.47485,-1.077161 0.923137,-0.08282 1.847321,-0.125193 2.773675,-0.12873 0,0 -2.003525,1.451202 -2.003525,1.451202 v 0 c -0.876031,-0.03017 -1.750915,-0.01519 -2.625707,0.05143 -3.161869,0.260673 -6.30691,0.666324 -9.453888,1.064646 -1.782312,0.194853 -3.582024,0.453039 -5.378273,0.367435 0,0 2.134596,-1.497647 2.134596,-1.497647 z"
       inkscape:connector-curvature="0"
       style="stroke-width:0.26458332" />
    <path
       id="path4030"
       d="m 32.859067,62.900173 c 0.956482,0.399105 2.065044,0.283109 3.073683,0.23573 1.820854,-0.134032 3.623305,-0.436427 5.432777,-0.671189 0.576249,-0.07137 1.152898,-0.139422 1.729962,-0.203838 0,0 -2.072571,1.533808 -2.072571,1.533808 v 0 c -0.543187,0.03385 -1.08566,0.07851 -1.626749,0.137435 -1.80712,0.202706 -3.602971,0.501312 -5.417169,0.638189 -1.089765,0.05736 -2.307759,0.20176 -3.328463,-0.273259 0,0 2.20853,-1.396876 2.20853,-1.396876 z"
       inkscape:connector-curvature="0"
       style="stroke-width:0.26458332" />
    <path
       id="path4032"
       d="m 44.618682,61.860337 c -0.09629,1.073681 -0.417616,2.108033 -0.733502,3.132984 -0.554646,1.812446 -1.207942,3.592126 -1.799066,5.392446 -0.196913,0.60842 -0.367549,1.22469 -0.527158,1.843757 0,0 -2.325722,1.096923 -2.325722,1.096923 v 0 c 0.233479,-0.63127 0.42776,-1.276305 0.654518,-1.910035 0.628576,-1.780921 1.273657,-3.557614 1.786922,-5.376368 0.282665,-0.980286 0.582446,-1.971561 0.624893,-2.99806 0,0 2.319115,-1.181647 2.319115,-1.181647 z"
       inkscape:connector-curvature="0"
       style="stroke-width:0.26458332" />
    <path
       id="path4034"
       d="m 30.364737,66.770334 c 1.027432,-0.688547 2.074227,-1.924275 3.359462,-1.628265 0.421873,0.05254 0.762746,0.338442 1.15947,0.451906 0.03687,-0.0078 0.07598,-0.0084 0.110609,-0.02323 0.08461,-0.03626 0.301485,-0.210312 0.221073,-0.165502 -3.41285,1.901745 -2.533904,1.520438 -1.761482,0.960995 1.952707,-1.397658 2.06217,-1.573913 3.723872,-1.404403 0.552257,0.06894 1.099855,0.09406 1.652712,0.03431 0.376756,-0.09783 0.752735,-0.196419 1.135804,-0.266049 0.04296,-0.0046 0.08591,-0.0093 0.12887,-0.01392 0,0 -2.088105,1.562735 -2.088105,1.562735 v 0 c -0.04007,0.0072 -0.08013,0.01439 -0.120197,0.02159 -0.376645,0.07273 -0.745707,0.185042 -1.12784,0.227139 -0.559234,0.03305 -1.115107,-0.01781 -1.67155,-0.07532 -0.265811,-0.02027 -0.539345,-0.05445 -0.805188,-0.01183 -0.082,0.01315 -0.312047,0.103788 -0.242014,0.05915 1.323983,-0.84383 2.770248,-1.570493 1.82078,-1.090102 -0.833739,0.641673 -1.710745,1.07387 -2.67164,1.626463 -0.09089,0.05227 -0.213379,0.06546 -0.315249,0.05156 -0.05159,-0.007 -0.10024,-0.02823 -0.150362,-0.04235 -0.357844,-0.170736 -0.706771,-0.370041 -1.110565,-0.409411 -0.06592,-2.65e-4 -0.1323,-0.0087 -0.197758,-7.94e-4 -0.05948,0.0071 -0.224938,0.07654 -0.173937,0.04512 3.674594,-2.263259 2.305516,-1.415722 1.551469,-0.875366 0,0 -2.428234,0.965674 -2.428234,0.965674 z"
       inkscape:connector-curvature="0"
       style="stroke-width:0.26458332" />
    <path
       id="path4036"
       d="m 29.836893,69.5855 c 1.083397,-0.802232 2.199084,-1.642123 3.492714,-2.058169 0.644993,-0.103106 1.284467,0.0822 1.91479,0.199651 0.619051,0.11338 1.117274,-0.118636 1.6461,-0.406164 0.580937,-0.381243 1.216437,-0.515326 1.901192,-0.491382 0.490389,0.02574 0.965078,0.166593 1.4385,0.287888 0,0 -2.147829,1.4727 -2.147829,1.4727 v 0 c -0.443148,-0.135212 -0.894493,-0.260196 -1.362099,-0.25528 -0.668298,0.02653 -1.261303,0.236037 -1.830337,0.589108 -0.564603,0.270436 -1.116994,0.412639 -1.744179,0.268708 -0.605401,-0.116367 -1.232304,-0.279435 -1.838436,-0.0803 -0.932688,0.414919 -0.45136,0.212127 1.703888,-1.034172 0.07677,-0.04439 -0.150847,0.09346 -0.223631,0.144132 -0.179099,0.124693 -0.354269,0.258717 -0.522439,0.397608 0,0 -2.428234,0.965673 -2.428234,0.965672 z"
       inkscape:connector-curvature="0"
       style="stroke-width:0.26458332" />
    <path
       id="path4038"
       d="m 29.001939,72.194832 c 1.250789,-0.83175 2.488187,-1.829885 4.001418,-2.030817 0.850038,-0.110453 1.664436,0.178575 2.494272,0.298156 0.722503,0.140801 1.368401,-0.155144 2.03037,-0.399841 0.617194,-0.210352 1.261775,-0.300958 1.907699,-0.364075 0,0 -2.043311,1.518624 -2.043311,1.518624 v 0 c -0.636997,0.07638 -1.270346,0.1857 -1.873234,0.414126 -0.709858,0.250425 -1.338786,0.465852 -2.102831,0.291856 -0.808858,-0.150759 -1.617113,-0.38173 -2.44611,-0.227094 -0.347845,0.07655 -0.382022,0.06706 -0.710806,0.207216 -0.105561,0.045 -0.407027,0.211545 -0.30865,0.152466 3.414998,-2.050833 2.175312,-1.330401 1.474031,-0.808609 0,0 -2.422848,0.947992 -2.422848,0.947992 z"
       inkscape:connector-curvature="0"
       style="stroke-width:0.26458332" />
    <path
       id="path4040"
       d="m 29.301913,75.053562 c -0.125695,0.631553 -0.146428,1.278205 -0.165116,1.920089 0.0052,0.246277 -0.02379,0.497806 0.0091,0.74313 0,0 -2.339695,1.183587 -2.339695,1.183587 v 0 c 0.04404,-0.254555 0.02752,-0.517477 0.04804,-0.774126 0.02802,-0.642773 0.0544,-1.285938 0.105101,-1.927397 0,0 2.342599,-1.145283 2.342599,-1.145283 z"
       inkscape:connector-curvature="0"
       style="stroke-width:0.26458332" />
    <path
       id="path4042"
       d="m 28.59101,77.790454 c 1.149574,-0.507632 2.331847,-0.944205 3.515637,-1.366467 1.965145,-0.725834 4.002305,-1.222144 6.033725,-1.720574 1.352577,-0.306205 2.710532,-0.585574 4.086056,-0.765414 0.433475,-0.03758 0.868169,-0.06882 1.275392,-0.232418 -0.732237,0.414105 -1.464477,0.828212 -2.196714,1.242317 -5.29e-4,0.0049 0.110774,0.07521 0.04148,0.04591 -0.02566,-0.0052 -0.03146,-0.0013 -0.02529,0.02307 -0.0105,0.08656 -0.183838,-0.129249 -0.213825,-0.164939 0,0 2.23517,-1.369954 2.23517,-1.369954 v 0 c 0.195633,0.126053 -0.01058,-0.05092 0.148813,0.03442 0.02985,0.03168 0.06271,0.06011 0.0929,0.0915 0.793279,0.915302 -1.687486,1.663128 -2.15233,1.698887 -0.406286,0.08918 -0.820272,0.105688 -1.233561,0.142986 -1.33558,0.154252 -2.654433,0.414221 -3.965459,0.710136 -2.031513,0.488731 -4.063537,0.995104 -6.01876,1.742713 -1.23589,0.459703 -2.476503,0.924025 -3.656949,1.51462 0,0 2.033728,-1.626788 2.033728,-1.626788 z"
       inkscape:connector-curvature="0"
       style="stroke-width:0.26458332" />
    <path
       id="path4048"
       d="m 43.909728,68.349161 c -0.14964,0.808529 -0.0709,1.646936 -0.02387,2.462781 0.03465,0.562655 0.06949,1.125289 0.102153,1.688063 0,0 -2.228432,1.149411 -2.228432,1.149411 v 0 c -0.02328,-0.563161 -0.04724,-1.126376 -0.09186,-1.688365 -0.06369,-0.821364 -0.140243,-1.647962 -0.108874,-2.471933 0,0 2.350887,-1.139957 2.350887,-1.139957 z"
       inkscape:connector-curvature="0"
       style="stroke-width:0.26458332" />
  </g>
</svg>
