<?xml version="1.0" encoding="UTF-8" standalone="no"?>
<!-- Created with Inkscape (http://www.inkscape.org/) -->

<svg
   xmlns:dc="http://purl.org/dc/elements/1.1/"
   xmlns:cc="http://creativecommons.org/ns#"
   xmlns:rdf="http://www.w3.org/1999/02/22-rdf-syntax-ns#"
   xmlns:svg="http://www.w3.org/2000/svg"
   xmlns="http://www.w3.org/2000/svg"
   xmlns:sodipodi="http://sodipodi.sourceforge.net/DTD/sodipodi-0.dtd"
   xmlns:inkscape="http://www.inkscape.org/namespaces/inkscape"
   width="142.77094mm"
   height="93.446609mm"
   viewBox="0 0 142.77094 93.446609"
   version="1.1"
   id="svg5117"
   inkscape:version="0.92.5 (2060ec1f9f, 2020-04-08)"
   sodipodi:docname="research.svg">
  <defs
     id="defs5111" />
  <sodipodi:namedview
     id="base"
     pagecolor="#ffffff"
     bordercolor="#666666"
     borderopacity="1.0"
     inkscape:pageopacity="0.0"
     inkscape:pageshadow="2"
     inkscape:zoom="0.70710678"
     inkscape:cx="175.69317"
     inkscape:cy="2.1951265"
     inkscape:document-units="mm"
     inkscape:current-layer="layer3"
     showgrid="false"
     inkscape:window-width="1920"
     inkscape:window-height="1025"
     inkscape:window-x="0"
     inkscape:window-y="0"
     inkscape:window-maximized="1" />
  <metadata
     id="metadata5114">
    <rdf:RDF>
      <cc:Work
         rdf:about="">
        <dc:format>image/svg+xml</dc:format>
        <dc:type
           rdf:resource="http://purl.org/dc/dcmitype/StillImage" />
        <dc:title></dc:title>
      </cc:Work>
    </rdf:RDF>
  </metadata>
  <g
     inkscape:label="Layer 1"
     inkscape:groupmode="layer"
     id="layer1"
     style="display:inline"
     transform="translate(-12.433021,-53.974878)">
    <path
       id="path5153"
       d="m 78.573587,65.314022 c -0.776746,-0.672465 -1.74914,-1.137631 -2.791775,-1.17275 -0.280054,-0.0094 -0.5593,0.03552 -0.838952,0.05327 -0.304757,0.07131 -0.615367,0.121076 -0.914267,0.213919 -0.340109,0.105642 -0.675841,0.229399 -0.998472,0.380206 -0.363175,0.169759 -1.451872,0.529905 -1.054023,0.579191 0.422429,0.05233 1.142426,-0.993743 1.143654,-0.568087 0.0013,0.486215 -0.777113,0.586034 -1.142678,0.906611 -0.38469,0.337346 -0.736996,0.709922 -1.105492,1.064882 -1.494213,1.600319 -2.656266,3.48007 -3.221461,5.610135 -0.395446,1.490334 -0.330761,1.902026 -0.400608,3.439469 0.0617,0.593278 0.07582,1.193448 0.185086,1.779831 0.335884,1.802487 1.119365,3.507489 2.186864,4.991859 0.916117,1.273874 1.365676,1.595068 2.499749,2.66396 2.232638,1.879989 4.898958,3.093847 7.759948,3.643784 0.543722,0.104513 1.095677,0.16034 1.643515,0.240511 2.819038,0.268658 5.643909,-0.111903 8.337426,-0.96334 0.526378,-0.166391 1.040503,-0.369313 1.560753,-0.553971 0.753218,-0.333317 2.145622,-0.903478 2.834431,-1.387239 0.296883,-0.208505 -1.09093,0.814757 -0.9823,0.468619 0.143978,-0.458777 0.762476,-0.587515 1.120383,-0.908616 0.910633,-0.816981 1.100225,-1.11715 1.874073,-2.053916 1.282348,-1.747292 2.11332,-3.760811 2.320536,-5.925629 0.04066,-0.424744 0.03609,-0.852607 0.05413,-1.278911 -0.0637,-2.283399 -0.655992,-4.515758 -1.6598,-6.564897 -0.206348,-0.42123 -0.447439,-0.824535 -0.67116,-1.2368 -1.179431,-2.00637 -2.769143,-3.729226 -4.705342,-5.027031 -0.405136,-0.271555 -0.835536,-0.503372 -1.253303,-0.75506 -2.364599,-1.275164 -4.975092,-1.959028 -7.641383,-2.205688 -0.563282,-0.05211 -1.129345,-0.06773 -1.694016,-0.101595 -2.163032,-0.0172 -4.339135,0.09681 -6.469295,0.495292 -1.153835,0.215845 -1.470155,0.338079 -2.56453,0.66153 -0.34031,0.119801 -0.680619,0.239601 -1.020926,0.359402 0,0 2.104323,-1.637136 2.104323,-1.637136 v 0 c 0.33596,-0.110733 0.67192,-0.221467 1.00788,-0.332203 1.104429,-0.302823 1.387026,-0.407532 2.550565,-0.607565 2.136601,-0.367316 4.31347,-0.474115 6.478021,-0.434859 0.568646,0.03788 1.138817,0.05734 1.705933,0.113636 2.699269,0.267954 5.337514,0.978019 7.728918,2.276166 0.424437,0.257466 0.861587,0.495056 1.273313,0.772398 1.964671,1.323419 3.57024,3.082409 4.765093,5.122875 0.226981,0.418563 0.470818,0.828411 0.680942,1.255684 1.0226,2.079379 1.64293,4.341183 1.73381,6.659671 -0.0132,0.43426 -0.004,0.869799 -0.0396,1.302782 -0.18217,2.204532 -0.997986,4.266525 -2.277651,6.062085 -0.772904,0.965203 -0.949653,1.258634 -1.862855,2.105226 -1.506133,1.396273 -2.486033,1.81968 -4.575458,3.038227 -0.444545,0.259257 -0.903317,0.494561 -1.368539,0.714568 -0.483981,0.228878 -0.984628,0.420719 -1.476941,0.631079 -0.52201,0.178607 -1.038185,0.375271 -1.566029,0.535818 -2.721017,0.827601 -5.56973,1.180338 -8.404971,0.879821 -0.551804,-0.08672 -1.108048,-0.148812 -1.655413,-0.260164 -2.887311,-0.587378 -5.566198,-1.854838 -7.810529,-3.769104 -1.156258,-1.100206 -1.595663,-1.414584 -2.531756,-2.721168 -1.085908,-1.515697 -1.8895,-3.25271 -2.248699,-5.087485 -0.116726,-0.596228 -0.138192,-1.207209 -0.207288,-1.810811 0.0505,-1.562253 -0.01966,-1.98085 0.358217,-3.499998 0.536072,-2.155129 1.667148,-4.074578 3.148915,-5.711095 0.647216,-0.646361 1.426178,-1.492141 2.200412,-2.005224 1.093174,-0.72444 2.229462,-1.382151 3.361182,-2.044763 0.95902,-0.561499 1.976771,-0.971426 3.084124,-1.112473 0.293216,-0.0056 0.587147,-0.03796 0.879647,-0.01675 1.096751,0.07956 2.093981,0.593654 2.948691,1.254538 0,0 -2.375053,1.477272 -2.375053,1.477272 z"
       inkscape:connector-curvature="0"
       style="stroke-width:0.26458332" />
    <path
       id="path5163"
       d="m 75.55141,70.105854 c 0.182459,0.764212 0.460454,1.501217 0.729951,2.237965 0.003,0.01609 0.274934,0.787543 0.333587,0.741569 0.02709,-0.02125 0.0072,-0.116391 -0.02339,-0.100598 -0.817015,0.421791 -1.602336,0.902333 -2.403505,1.3535 -0.01908,-0.200242 0.0016,-0.08313 -0.08898,-0.345556 0,0 2.442316,-1.359506 2.442316,-1.359506 v 0 c 0.133016,0.317013 0.07384,0.162097 0.179556,0.463971 -2.394934,1.50873 -2.289399,2.342634 -2.868083,0.590642 -0.259688,-0.748072 -0.52932,-1.492697 -0.769212,-2.247474 0,0 2.467755,-1.334513 2.467755,-1.334513 z"
       inkscape:connector-curvature="0"
       style="stroke-width:0.26458332" />
    <path
       id="path5165"
       d="m 75.388945,69.54191 c 0.985639,-0.07185 1.974057,-0.09367 2.961796,-0.115723 0.74893,-0.01439 1.497936,-0.02397 2.246871,-0.03802 0.158718,-0.0011 0.317418,-0.0038 0.476128,-0.0055 0.164598,0.184669 0.134832,0.33224 0.126902,0.570394 -0.02461,0.828408 -0.02942,1.657263 -0.0335,2.485975 -0.0013,0.841349 0.0013,1.682755 0.0199,2.523921 0.0372,1.26582 0.126187,0.447927 -2.493129,1.744321 -0.04057,0.02008 -0.06654,-0.06162 -0.102799,-0.08871 -0.0356,-0.02661 -0.07483,-0.04799 -0.112244,-0.07198 0,0 2.367465,-1.518568 2.367465,-1.518568 v 0 c 0.0412,0.0275 0.08169,0.05608 0.123587,0.08249 0.02747,0.01733 0.111575,0.03086 0.08441,0.04867 -2.65403,1.740088 -2.382723,2.310374 -2.35757,1.072629 0.01839,-0.848254 0.02156,-1.696728 0.0213,-2.545159 -0.0027,-0.820164 -0.0072,-1.640351 -0.02159,-2.460408 -0.0019,-0.117073 -0.05191,-0.498399 0.08557,-0.181166 -0.151259,-0.0042 -0.302569,-0.0062 -0.453879,-0.0072 -0.731549,-0.01064 -1.463249,-0.0071 -2.194735,0.007 -0.999156,0.02334 -2.001811,0.0453 -2.994012,0.174514 0,0 2.249528,-1.677511 2.249528,-1.677511 z"
       inkscape:connector-curvature="0"
       style="stroke-width:0.26458332" />
    <path
       id="path5167"
       d="m 74.126867,74.528269 c 1.204674,0.132284 2.419932,0.06685 3.628641,0.03893 0.849778,-0.0209 0.433636,-0.0109 1.248426,-0.03006 0,0 -2.21452,1.615668 -2.21452,1.615668 v 0 c -0.805897,0.01299 -0.393925,0.0058 -1.235916,0.02169 -1.235488,0.02614 -2.473733,0.07527 -3.707408,-0.02363 0,0 2.280777,-1.622599 2.280777,-1.622598 z"
       inkscape:connector-curvature="0"
       style="stroke-width:0.26458332" />
    <path
       id="path5169"
       d="m 86.091016,69.962738 c -0.140653,0.911863 -0.01101,1.837902 0.120702,2.742959 0.07854,0.336066 0.108757,0.694397 0.267243,1.007235 0.02191,0.04323 0.04185,0.09438 0.08365,0.118903 0.01738,0.01019 0.05277,-0.05854 0.03483,-0.04939 -0.804191,0.410401 -1.599758,0.837478 -2.399639,1.256218 0,0 2.576153,-1.138743 2.576153,-1.138743 v 0 c -0.840221,0.484492 -1.6563,1.013503 -2.520664,1.453478 -0.03907,0.0199 -0.158345,-0.154472 -0.214641,-0.282805 -0.150188,-0.342371 -0.187055,-0.717246 -0.265305,-1.078989 -0.126778,-0.921346 -0.266719,-1.854113 -0.198269,-2.7861 0,0 2.515937,-1.242769 2.515937,-1.242769 z"
       inkscape:connector-curvature="0"
       style="stroke-width:0.26458332" />
    <path
       id="path5171"
       d="m 86.03607,68.962981 c 0.923316,0.386556 1.903711,0.568751 2.890432,0.699516 0.770586,0.09011 1.546556,0.113191 2.321692,0.114773 0.479261,-0.03442 0.613064,0.03582 0.814319,0.479031 0.230651,0.8089 0.21645,1.665661 0.239006,2.500003 0.01529,0.855393 0.02029,1.710928 0.03837,2.566271 0,0 -2.489311,1.268013 -2.489311,1.268013 v 0 c 0.01971,-0.859237 0.02162,-1.718914 0.0024,-2.578196 -0.02215,-0.792469 -0.02056,-1.605581 -0.232789,-2.374781 -0.0039,-0.0082 -0.06479,-0.166333 -0.110569,-0.192489 -0.146143,-0.0835 -0.372824,0.02281 -0.525412,-0.02851 -0.770499,-0.02336 -1.541444,-0.06627 -2.305945,-0.168757 -1.012552,-0.154064 -2.015651,-0.364678 -2.97408,-0.735349 0,0 2.331897,-1.549529 2.331897,-1.549529 z"
       inkscape:connector-curvature="0"
       style="stroke-width:0.26458332" />
    <path
       id="path5173"
       d="m 84.874377,74.805073 c 1.240552,-0.18946 2.48897,-0.303479 3.74033,-0.391173 0.214807,-0.0123 0.429614,-0.02461 0.644421,-0.03691 0,0 -2.202815,1.619364 -2.202815,1.619364 v 0 c -0.211634,0.01161 -0.423272,0.0232 -0.634907,0.03481 -1.26641,0.09004 -2.532012,0.211773 -3.778184,0.463219 0,0 2.231155,-1.689309 2.231155,-1.68931 z"
       inkscape:connector-curvature="0"
       style="stroke-width:0.26458332" />
    <path
       id="path5175"
       d="m 71.812268,73.648037 c -1.244335,-0.151318 -2.499069,-0.132358 -3.749545,-0.107272 -1.403575,0.07183 -2.850055,0.147362 -4.149257,0.728278 -1.376637,0.892257 2.72007,-1.828191 1.912234,-1.041394 0,0 -2.528274,1.235384 -2.528274,1.235384 v 0 c -0.04489,-1.251021 1.803633,-1.370314 2.789992,-1.903735 1.329915,-0.47195 2.753743,-0.548772 4.153077,-0.607655 1.287693,-0.02733 2.578238,-0.04647 3.862321,0.07534 0,0 -2.290548,1.621049 -2.290548,1.621049 z"
       inkscape:connector-curvature="0"
       style="stroke-width:0.26458332" />
    <path
       id="path5177"
       d="m 82.391937,71.468384 c 0.687562,0.01251 1.374984,0.02928 2.061398,-0.01582 0,0 -2.228038,1.635971 -2.228038,1.635971 v 0 c -0.701072,0.02474 -1.402435,0.01341 -2.103752,0.02939 0,0 2.270392,-1.649537 2.270392,-1.649537 z"
       inkscape:connector-curvature="0"
       style="stroke-width:0.26458332" />
    <path
       id="path5179"
       d="m 93.576242,70.869714 c 1.121614,-0.08376 2.243926,-0.09341 3.367379,-0.05851 0.765243,0.02869 0.390027,0.0048 1.125772,0.06973 0,0 -2.23847,1.597909 -2.23847,1.597909 v 0 c -0.720862,-0.05714 -0.352205,-0.03471 -1.10608,-0.0655 -1.133779,-0.03108 -2.268791,-0.0079 -3.396583,0.124105 0,0 2.247982,-1.667737 2.247982,-1.667737 z"
       inkscape:connector-curvature="0"
       style="stroke-width:0.26458332" />
    <path
       id="path5181"
       d="m 74.239738,66.598458 c -0.585372,-0.769186 -1.025527,-1.633366 -1.499076,-2.47209 -0.61432,-1.088056 -0.576035,-1.007533 -1.24311,-2.122958 -1.21575,-2.008777 -2.647043,-3.878897 -4.260938,-5.582547 -0.329798,-0.330941 -0.655418,-0.656955 -0.919324,-1.042363 0,0 2.41168,-1.403622 2.41168,-1.403622 v 0 c 0.218358,0.390869 0.523693,0.710125 0.823537,1.041656 1.55316,1.774248 2.967969,3.66708 4.219697,5.666417 0.747821,1.204767 0.592029,0.942417 1.28766,2.10493 0.485738,0.81175 0.942552,1.653765 1.574385,2.365055 0,0 -2.394511,1.445522 -2.394511,1.445522 z"
       inkscape:connector-curvature="0"
       style="stroke-width:0.26458332" />
    <path
       id="path5183"
       d="m 80.378124,66.339185 c -0.111347,-1.368674 -0.01225,-2.737742 0.181978,-4.093284 0.156128,-0.96483 0.416005,-1.90617 0.706289,-2.837662 0,0 2.473582,-1.164233 2.473582,-1.164233 v 0 c -0.309658,0.920372 -0.58588,1.851832 -0.752922,2.81041 -0.205695,1.315341 -0.314013,2.654326 -0.124674,3.979817 0,0 -2.484253,1.304952 -2.484253,1.304952 z"
       inkscape:connector-curvature="0"
       style="stroke-width:0.26458332" />
    <path
       id="path5185"
       d="m 85.859452,66.314057 c -0.04633,-1.555639 0.30031,-3.07205 0.725578,-4.556593 0.285924,-0.920597 0.707543,-1.783913 1.140322,-2.641238 0,0 2.456273,-1.106897 2.456273,-1.106897 v 0 c -0.448501,0.84174 -0.883346,1.690481 -1.179637,2.601179 -0.418359,1.431645 -0.767689,2.899413 -0.65963,4.403638 0,0 -2.482906,1.299911 -2.482906,1.299911 z"
       inkscape:connector-curvature="0"
       style="stroke-width:0.26458332" />
    <path
       id="path5491"
       d="m 84.674799,90.192774 c 0.156281,0.707186 0.312004,1.414751 0.468797,2.122093 0.127248,0.650698 0.227634,1.306465 0.355854,1.956954 0.109029,0.611756 0.21994,1.223502 0.315351,1.837616 0.08661,0.569404 0.112146,1.145225 0.127019,1.72018 0.0038,0.550762 0.09111,1.096614 0.137961,1.644844 0.04333,0.624679 0.04646,1.251319 0.05063,1.877239 0.0024,0.63585 0.0024,1.27171 0.0019,1.90757 2.25e-4,0.58076 0.0011,1.16152 5.29e-4,1.74227 0.03135,0.48843 -0.03853,0.96922 -0.103592,1.45128 -0.04365,0.32531 -0.06544,0.65278 -0.07319,0.98075 -0.0043,0.20803 -0.0046,0.41613 -0.0011,0.62417 0.01244,0.13695 -0.007,0.26127 -0.06385,0.38616 -0.02585,0.0552 -0.05922,0.10637 -0.08639,0.16079 0,0 -1.720003,0.73356 -1.720003,0.73356 v 0 c 0.04414,-0.0353 0.07358,-0.0854 0.105749,-0.13137 0.06783,-0.10586 0.124605,-0.17025 0.10379,-0.30231 0.0021,-0.2109 0.0019,-0.42182 0.0059,-0.63271 0.0096,-0.33492 0.02342,-0.66956 0.07063,-1.0018 0.06411,-0.47633 0.156192,-0.94932 0.121918,-1.43284 -5.29e-4,-0.58119 7.93e-4,-1.16237 0.0019,-1.74354 2.64e-4,-0.63565 0.0024,-1.27131 -1.38e-4,-1.90695 -0.0037,-0.62106 -0.0062,-1.2427 -0.04866,-1.86261 -0.04341,-0.552011 -0.134244,-1.100514 -0.143769,-1.654194 -0.01066,-0.568288 -0.03075,-1.137645 -0.111736,-1.70103 -0.09358,-0.611817 -0.20605,-1.220663 -0.310997,-1.830528 -0.132662,-0.649192 -0.227142,-1.305766 -0.349239,-1.95698 -0.151683,-0.705016 -0.303975,-1.409446 -0.483545,-2.107882 0,0 1.628635,-0.880732 1.628635,-0.880732 z"
       inkscape:connector-curvature="0"
       style="stroke-width:0.26458332" />
    <path
       id="path5497"
       d="m 83.600961,99.210893 c -1.813777,0.988607 -3.716673,1.795567 -5.613191,2.608467 -2.618203,1.10333 -5.255588,2.16087 -7.866377,3.28175 -0.624462,0.25259 -1.235075,0.53985 -1.860563,0.79 -0.0047,0.002 -0.360884,0.15506 -0.446802,0.12577 -0.04404,-0.015 -0.06061,-0.0706 -0.09091,-0.10594 -0.0033,-0.0637 -0.0067,-0.12746 -0.01,-0.19119 0,0 1.69637,-0.76497 1.69637,-0.76497 v 0 c -0.0325,-0.007 -0.06499,-0.0143 -0.09749,-0.0215 -0.006,-0.0118 -0.02912,-0.0284 -0.01791,-0.0356 0.03731,-0.0238 0.08622,-0.0206 0.128141,-0.0348 0.09045,-0.0307 0.1798,-0.0645 0.268602,-0.0997 0.60764,-0.24043 1.205288,-0.50597 1.810554,-0.75213 2.605135,-1.09759 5.229564,-2.1489 7.831185,-3.25497 1.930191,-0.835835 3.865089,-1.671048 5.702311,-2.700642 0,0 -1.433894,1.155398 -1.433894,1.155398 z"
       inkscape:connector-curvature="0"
       style="stroke-width:0.26458332" />
    <path
       id="path5517"
       d="m 68.491372,105.64496 c -0.325724,1.40674 -0.433052,2.85846 -0.551672,4.29506 -0.06367,1.12669 -0.173834,2.24991 -0.271108,3.37399 -0.0122,0.17106 -0.03225,0.34168 -0.04168,0.51294 -0.01011,0.0268 -0.0065,0.0712 -0.0055,0.10646 -0.04858,-0.22343 0.135014,0.24014 0.142542,0.26955 0.02106,0.10041 0.03409,0.20225 0.04479,0.30421 0.07503,0.67039 2.196735,-0.92642 -1.671756,0.80982 0,0 1.636739,-0.88559 1.636739,-0.88559 v 0 c -0.546127,0.31318 -1.092251,0.62637 -1.638374,0.93955 0.006,-0.003 0.0132,0.0344 0.01294,-0.007 5.29e-4,-0.0936 -0.01093,-0.18698 -0.02466,-0.27943 -0.02387,-0.12994 -0.07939,-0.20233 -0.165716,-0.29986 -5.29e-4,-0.0425 -2.65e-4,-0.0992 -0.0077,-0.131 0.0328,-0.17233 0.0447,-0.3483 0.07044,-0.52169 0.134874,-1.12951 0.260916,-2.26111 0.326165,-3.39707 0.115433,-1.43564 0.228346,-2.87839 0.479737,-4.29726 0,0 1.664825,-0.79317 1.664825,-0.79317 z"
       inkscape:connector-curvature="0"
       style="stroke-width:0.26458332" />
    <path
       id="path5519"
       d="m 62.090299,105.16225 c 0.662184,1.15127 1.461273,2.21502 2.236568,3.29076 1.297718,1.73816 2.563709,3.49994 3.863835,5.23627 0.814842,1.10118 1.587968,2.23313 2.424626,3.31805 0.269613,0.35147 0.510037,0.72405 0.782103,1.0736 0.150344,0.0914 0.293359,0.19148 0.431808,0.30105 0.250086,0.12791 0.465603,0.30634 0.674835,0.49126 0.305713,0.2957 0.689507,0.49357 1.071592,0.67255 0.02569,-0.0212 0.239667,0.13945 0.267613,0.11112 0.01574,-0.0159 -0.0011,-0.0751 -0.02061,-0.064 -1.692326,0.9685 -1.076802,1.35139 -1.715262,0.89222 0,0 1.565637,-0.98871 1.565637,-0.98871 v 0 c 0.641615,0.50938 0.281723,0.13785 -1.323483,1.24658 -0.0209,0.0144 -0.03547,-0.0369 -0.05652,-0.0511 -0.07989,-0.0539 -0.186489,-0.0689 -0.264531,-0.12641 -0.388175,-0.19891 -0.776391,-0.41207 -1.096105,-0.71306 -0.212992,-0.17894 -0.437999,-0.33703 -0.677214,-0.47912 -0.151416,-0.1165 -0.324779,-0.20411 -0.456957,-0.34356 -0.258022,-0.35856 -0.490347,-0.73421 -0.750483,-1.09135 -0.814654,-1.09987 -1.568476,-2.24335 -2.375593,-3.34879 -1.288581,-1.74575 -2.549064,-3.51224 -3.868436,-5.23524 -0.795083,-1.07339 -1.607481,-2.13626 -2.314239,-3.27139 0,0 1.600822,-0.92072 1.600822,-0.92072 z"
       inkscape:connector-curvature="0"
       style="stroke-width:0.26458332" />
    <path
       id="path5521"
       d="m 67.730933,112.70251 c -0.224124,0.50275 -0.467657,1.08751 -0.309605,1.64156 -0.09842,0.28804 0.504637,-0.15446 0.384043,-0.094 -0.458449,0.22972 -0.88197,0.5293 -1.352828,0.73236 -0.09892,0.0427 0.150619,-0.15495 0.214728,-0.24153 0.06809,-0.0919 0.120248,-0.19468 0.180371,-0.29202 0.136113,-0.28854 0.442582,-1.02296 0.0547,-1.2627 -0.04554,-0.0281 -0.103045,-0.0291 -0.154567,-0.0437 -0.759185,0.39618 0.815602,-0.48382 1.247185,-0.67773 0.08733,-0.0392 -0.138491,0.13425 -0.191799,0.21377 -0.192471,0.28711 -0.241845,0.61951 -0.286684,0.95238 0.0075,0.38575 0.03563,1.14327 0.588775,0.68154 -2.539638,1.44338 -1.154618,0.92051 -1.083429,0.0527 0.01736,-0.21165 -0.01172,-0.25345 -0.06587,-0.44765 -0.105532,-0.14548 -0.238382,-0.23148 -0.415139,-0.12847 -0.05714,0.0333 -0.207426,0.16137 -0.14822,0.1319 1.434492,-0.71422 1.715974,-1.23405 1.29563,-0.56623 -0.06482,0.005 -0.35298,1.03519 -0.05116,0.82222 0.530577,-0.47481 -0.08236,0.0872 -1.358315,0.71241 -0.06326,0.031 0.09952,-0.10034 0.141856,-0.15664 0.117211,-0.15588 0.174681,-0.32404 0.212368,-0.51192 -0.0086,-0.0267 -0.0027,-0.0642 -0.02577,-0.0802 -0.05005,-0.0345 -0.149061,0.13706 -0.128733,0.12691 0.49548,-0.24734 0.956836,-0.56037 1.456306,-0.79956 0.06286,-0.0301 -0.09205,0.10539 -0.129495,0.16417 -0.04307,0.0676 -0.07399,0.14224 -0.110985,0.21335 -0.121041,0.30144 -0.103804,0.54542 0.06983,0.81176 0,0 -1.597009,0.93103 -1.597009,0.93103 v 0 c -0.196678,-0.31622 -0.265419,-0.60821 -0.150707,-0.97612 0.359558,-0.90841 0.637723,-0.77652 1.921563,-1.49462 0.09438,-0.0528 0.247394,0.0601 0.292616,0.1211 0.03535,0.0477 0.04424,0.11021 0.06635,0.16532 -0.110077,1.00909 -1.173001,1.78841 -2.184937,1.83742 -0.04789,-0.0282 -0.104291,-0.0455 -0.143663,-0.0847 -0.269222,-0.26837 -0.05211,-0.75662 0.03636,-1.04698 0.393121,-0.84117 0.07805,-0.27411 1.826948,-1.35108 0.295217,-0.1818 0.589616,0.0246 0.744831,0.27415 0.442323,1.45066 -0.714311,1.70623 -1.917943,2.43333 -0.06842,0.0157 -0.135089,0.0486 -0.205259,0.047 -0.523679,-0.0121 -0.56955,-0.69271 -0.580445,-1.06805 0.117652,-1.24706 0.802179,-2.39177 2.416736,-2.32622 0.06571,0.0381 0.140202,0.064 0.197141,0.1143 0.425267,0.37554 0.212759,1.03214 0.03597,1.46866 -0.518393,0.98889 -0.82646,0.93428 -2.16159,1.70025 -0.235527,0.13513 -0.423646,0.0165 -0.563351,-0.17071 -0.182205,-0.59349 0.02847,-1.20805 0.24778,-1.76629 0,0 1.685411,-0.76254 1.685411,-0.76254 z"
       inkscape:connector-curvature="0"
       style="stroke-width:0.26458332" />
    <path
       id="path5523"
       d="m 87.603514,97.641552 c 1.603624,0.39506 3.245863,0.635359 4.880438,0.865954 1.878629,0.255241 3.762227,0.471271 5.642753,0.712066 1.017807,0.09519 2.020495,0.269359 3.009745,0.522446 0.6069,0.19073 1.19941,0.416482 1.81903,0.564622 0.20644,0.0442 0.11513,0.0439 0.27269,0.0263 0,0 -1.50983,1.08601 -1.50983,1.08601 v 0 c -0.1699,-0.0319 -0.0751,-0.0117 -0.28363,-0.0645 -0.61048,-0.16591 -1.19837,-0.39706 -1.80518,-0.57468 -0.974476,-0.25315 -1.966576,-0.4114 -2.966849,-0.52579 -1.86989,-0.257103 -3.744183,-0.479175 -5.614395,-0.733763 -1.659319,-0.232529 -3.319478,-0.480613 -4.960115,-0.822796 0,0 1.515343,-1.055899 1.515343,-1.055899 z"
       inkscape:connector-curvature="0"
       style="stroke-width:0.26458332" />
    <path
       id="path5527"
       d="m 101.88761,101.14955 c 0.0704,-1.394099 -0.0646,-2.782371 -0.25466,-4.161458 -0.31882,-1.980229 -0.81807,-3.924374 -1.21853,-5.888866 -0.29235,-1.445625 -0.586021,-2.89179 -0.805787,-4.350538 -0.09776,-0.615106 -0.224959,-1.224907 -0.307562,-1.842344 -0.03105,-0.261583 -0.03894,-0.525151 -0.04012,-0.78834 -0.0016,-0.145711 -0.0013,-0.291398 5.29e-4,-0.437102 0.02096,-0.223049 -0.01717,-0.434189 -0.07073,-0.649517 -0.03853,-0.168728 -0.07234,-0.33849 -0.104249,-0.508577 -0.0016,-0.0084 -0.0031,-0.01677 -0.0047,-0.02516 0,0 1.651839,-0.872824 1.651839,-0.872824 v 0 c 8e-4,0.0081 0.002,0.01619 0.003,0.02432 0.0217,0.167542 0.0519,0.333975 0.0881,0.498967 0.0569,0.228214 0.12042,0.449881 0.0974,0.687676 7.9e-4,0.14596 -0.002,0.291835 -0.004,0.437774 -2.7e-4,0.257733 -10e-4,0.515885 0.0235,0.772758 0.0635,0.622435 0.18051,1.237366 0.27308,1.855843 0.19142,1.464151 0.47452,2.914137 0.76133,4.362122 0.39291,1.969378 0.8873,3.917063 1.22401,5.897239 0.20554,1.374461 0.34993,2.756406 0.33624,4.148267 0,0 -1.64814,0.83977 -1.64814,0.83977 z"
       inkscape:connector-curvature="0"
       style="stroke-width:0.26458332" />
  </g>
  <g
     inkscape:groupmode="layer"
     id="layer3"
     inkscape:label="Layer 2"
     style="display:inline"
     transform="translate(-12.433021,-53.974878)">
    <path
       id="path5216"
       transform="scale(0.26458333)"
       style="stroke-width:1.35041416"
       d="m 181.14648,409.33984 -11.73242,8.14844 c 12.92571,1.94963 26.03998,2.15442 39.08399,2.48438 10.67582,0.13502 21.35021,0.078 32.02343,-0.0781 -0.57521,-1.00668 -1.1201,-2.03211 -1.73046,-3.01758 -0.60932,-0.97391 -0.60663,-1.02147 -1.28125,-1.91015 -0.29492,-0.38854 -0.87204,-1.07814 -1.1875,-1.46875 -0.17613,-0.21808 -0.36022,-0.4299 -0.52539,-0.65625 -0.007,-0.009 -0.0127,-0.0198 -0.0195,-0.0293 -5.635,-0.044 -11.26952,-0.11637 -16.90429,-0.27148 -12.59492,-0.52464 -25.31163,-0.8448 -37.72657,-3.19922 z m 189.74805,1.13086 c -16.23994,0.0267 -32.48116,0.33042 -48.71289,0.75196 -21.22682,0.62355 -42.46323,1.29675 -63.70117,1.52148 -0.009,0.41305 -0.0156,1.30875 -0.0195,1.49805 -0.007,0.32541 -0.0211,0.65126 -0.0312,0.97656 -0.0953,1.21527 -0.24245,2.42561 -0.42383,3.63086 -0.107,0.71105 -0.0919,0.63111 -0.0996,0.69336 18.38485,-0.44415 36.76631,-1.10168 55.14453,-1.68945 25.86145,-0.70942 51.74956,-1.03623 77.61524,-0.29688 10.80056,0.30879 20.54622,0.8632 31.29882,1.41406 10.79003,0.64819 21.5686,1.46014 32.3418,2.33789 4.94381,0.40283 9.85433,0.8451 14.8125,0.97852 0.51681,-0.0567 1.03397,-0.11285 1.55078,-0.16992 l 11.33594,-8.60352 c -0.52131,0.1976 -1.04314,0.39646 -1.56445,0.59375 -5.18211,0.20765 -10.28114,-0.10067 -15.46094,-0.38867 -11.04476,-0.6141 -22.08761,-1.26996 -33.13672,-1.80469 -9.91211,-0.40573 -21.875,-0.93899 -31.7207,-1.1582 -9.74149,-0.21694 -19.48456,-0.30117 -29.22852,-0.28516 z m -120.71484,2.35352 c -0.98756,0.004 -1.97534,0.0155 -2.96289,0.0176 0.0437,0.0475 0.0864,0.0986 0.12695,0.16211 v 0.002 c 0.0691,0.10809 0.13462,0.21839 0.20703,0.32422 0.11989,0.17537 0.44639,0.6062 0.5625,0.77148 0.36964,0.52607 0.71062,1.07214 1.06055,1.61133 0.0631,0.0948 0.12776,0.18871 0.1914,0.2832 0.0588,-0.2778 0.12897,-0.55418 0.20118,-0.82812 0.0528,-0.19729 0.10536,-0.39462 0.1582,-0.5918 0.0477,-0.18784 0.095,-0.375 0.14453,-0.5625 0.0462,-0.17461 0.0999,-0.3481 0.14453,-0.52344 0.0566,-0.22159 0.11046,-0.44391 0.16602,-0.66601 z"
       inkscape:connector-curvature="0" />
    <path
       id="path5218"
       d="m 48.09656,108.03338 c -1.928738,1.59084 -3.67488,3.38144 -5.436114,5.14895 -4.193679,4.29292 -8.208758,8.75411 -12.276049,13.16449 -3.656834,4.01451 -7.466233,7.88604 -11.387543,11.64512 -0.825885,0.80003 -1.683808,1.56642 -2.523365,2.35199 -0.128076,0.1199 -0.255688,0.2403 -0.37921,0.36477 -0.05841,0.0588 -0.08367,0.19491 -0.166251,0.18487 -0.07474,-0.009 -0.0462,-0.14233 -0.0693,-0.2135 0.173442,-0.3546 0.0395,-0.19046 0.460655,-0.43869 0,0 -2.947665,2.34273 -2.947665,2.34273 v 0 c -0.52166,0.22103 -0.26144,0.20333 -0.777466,0.0879 -0.05368,-0.10079 -0.166825,-0.1885 -0.161016,-0.30236 0.0084,-0.1643 1.196677,-1.15045 1.25098,-1.19854 0.918261,-0.81316 1.060703,-0.95024 2.039411,-1.8423 4.024047,-3.75035 7.907379,-7.646 11.609806,-11.71136 4.021057,-4.36749 7.98015,-8.79234 12.073864,-13.09291 1.684156,-1.73003 3.348858,-3.48469 5.170056,-5.07503 0,0 3.519207,-1.41617 3.519207,-1.41617 z"
       inkscape:connector-curvature="0"
       style="stroke-width:0.35729709" />
    <path
       id="path5220"
       d="m 16.720658,141.28034 c 3.597984,-0.13926 7.188323,-0.433 10.784063,-0.62552 8.562546,-0.42113 17.126645,-0.80275 25.695447,-1.07186 10.563919,-0.21688 21.131161,-0.11842 31.696653,-0.11196 9.803971,-0.0557 19.607459,-0.17184 29.411229,-0.25304 5.86545,-0.0592 11.73013,-0.1156 17.59563,-0.0483 0.94315,0.0108 1.88624,0.0262 2.82929,0.0439 0,0 -3.04068,2.17508 -3.04068,2.17508 v 0 c -0.89395,-0.0567 -1.78834,-0.10631 -2.6835,-0.14099 -5.7499,-0.21343 -11.50288,-0.20352 -17.25616,-0.18379 -9.75993,0.0266 -19.519527,0.10415 -29.279342,0.15554 -10.57925,-0.004 -21.160852,-0.0996 -31.73792,0.15447 -8.657075,0.30094 -17.308499,0.73096 -25.953888,1.27125 -3.708483,0.25256 -7.408961,0.60286 -11.118074,0.84108 0,0 3.057252,-2.20569 3.057252,-2.20569 z"
       inkscape:connector-curvature="0"
       style="stroke-width:0.35729709" />
    <path
       id="path5222"
       transform="scale(0.26458333)"
       style="stroke-width:1.35041416"
       d="m 485.62891,403.03516 -12.49414,6.99023 c 5.66468,9.0576 13.01755,16.97375 19.94531,25.08008 6.77938,7.91715 13.2952,16.03838 19.62304,24.30273 0.33772,-0.88002 1.10122,-2.88318 1.41993,-3.64648 1.24221,-2.97521 2.62791,-5.90362 4.1582,-8.74024 0.1284,-0.238 0.2655,-0.44111 0.40625,-0.625 -4.67527,-6.07891 -9.43412,-12.09349 -14.30664,-18.02343 -2.54476,-3.12242 -7.23735,-8.84301 -9.83203,-12.15625 -2.79893,-3.57396 -5.66287,-7.23584 -7.92578,-11.1836 -0.37006,-0.6455 -0.66268,-1.33213 -0.99414,-1.99804 z m 40.67968,53.43164 c -0.6842,1.00538 -1.33317,1.97712 -2.09179,3.23242 -0.47925,0.79306 -0.91994,1.608 -1.37696,2.41406 -0.95837,1.69036 -1.94081,3.37469 -2.73632,5.15039 -0.18442,0.41323 -0.36019,0.83166 -0.54297,1.2461 4.82231,6.51738 9.54036,13.11283 14.17383,19.76757 11.49975,16.54791 22.03341,33.71105 31.81445,51.30664 3.06807,5.79769 6.37254,11.49175 8.7832,17.59961 l 12.26563,-6.86328 c -2.95779,-5.89111 -6.32899,-11.56267 -9.57618,-17.29883 -10.13242,-17.44524 -20.8323,-34.55535 -32.4082,-51.0996 -5.96999,-8.57947 -12.06279,-17.0724 -18.30469,-25.45508 z"
       inkscape:connector-curvature="0" />
    <path
       id="path5352"
       d="m 44.264469,114.56705 c 0.342558,-0.54475 0.688717,-1.08922 1.089576,-1.59387 0.05593,-0.0638 0.110893,-0.12851 0.1678,-0.19142 0.03553,-0.0393 0.201859,-0.25525 0.263996,-0.28012 1.70914,-0.68407 1.975468,-1.04321 1.446281,-0.44049 -1.161823,1.57042 -2.376241,3.10143 -3.562297,4.65377 -1.874932,2.47561 -3.723854,4.97092 -5.542479,7.48762 -0.472058,0.65248 -0.942247,1.3062 -1.404155,1.9658 -0.06209,0.0887 -0.125407,0.17654 -0.186365,0.26599 -0.01954,0.0287 -0.02327,0.0741 -0.0551,0.0883 -0.522177,0.23198 -1.059721,0.42825 -1.589581,0.64238 0.05431,-0.0538 0.108617,-0.10766 0.162926,-0.16148 0,0 1.628871,-0.68451 1.628871,-0.68451 v 0 c -0.04515,0.0614 -0.09031,0.12259 -0.135475,0.18395 -0.56578,0.24327 -1.122327,0.50891 -1.697337,0.72981 -0.04006,0.0153 0.04711,-0.0713 0.07264,-0.10564 0.06879,-0.0923 0.141484,-0.18169 0.210267,-0.27401 0.493868,-0.66285 0.976586,-1.334 1.471375,-1.99618 1.84167,-2.50902 3.698724,-5.00701 5.562699,-7.49972 1.15217,-1.53117 2.348362,-3.0324 3.4362,-4.60974 0.526967,-0.65236 0.07531,-0.14881 1.841461,-0.90615 0.01453,-0.007 -0.03022,0.0108 -0.04261,0.0209 -0.03887,0.0308 -0.07399,0.0661 -0.109945,0.10026 -0.148394,0.14092 -0.168821,0.16718 -0.31942,0.32618 -0.415941,0.48159 -0.750662,1.02387 -1.088463,1.561 0,0 -1.620882,0.71746 -1.620882,0.71746 z"
       inkscape:connector-curvature="0"
       style="stroke-width:0.35729709" />
    <path
       id="path5354"
       d="m 36.955642,126.41759 c 1.045077,0.34619 2.146324,0.23712 3.219491,0.11882 1.507145,-0.15139 2.988187,-0.47079 4.487308,-0.67773 1.530663,-0.21747 3.063377,-0.4165 4.585872,-0.686 1.515823,-0.27095 3.044757,-0.44604 4.575241,-0.61001 1.248126,-0.17807 2.506062,-0.0955 3.760115,-0.11801 0.370455,-0.0221 0.769736,-0.004 1.125019,-0.13654 0.08655,-0.0322 0.325019,-0.17491 0.243158,-0.13228 -0.439171,0.22855 -0.876751,0.4601 -1.315125,0.69015 0,0 1.629967,-0.67094 1.629967,-0.67094 v 0 c -1.516037,0.95671 -1.58038,1.2669 -3.089927,1.26679 -1.244347,0.003 -2.491096,-0.058 -3.729114,0.11614 -1.528311,0.16354 -3.054267,0.34528 -4.567396,0.61842 -1.523947,0.26337 -3.057493,0.46151 -4.588331,0.68066 -1.50068,0.21473 -2.985954,0.52887 -4.49628,0.67725 -1.107064,0.11452 -2.242067,0.20476 -3.314712,-0.16358 0,0 1.474714,-0.97308 1.474714,-0.97308 z"
       inkscape:connector-curvature="0"
       style="stroke-width:0.35729709" />
    <path
       id="path5356"
       d="m 60.606486,111.68284 c -0.476669,1.23139 -1.021154,2.4346 -1.548232,3.64508 -1.068946,2.42843 -2.141918,4.85492 -3.168771,7.30132 -0.422881,0.95641 -0.767777,1.94483 -1.198454,2.89765 0,0 -1.590399,0.71694 -1.590399,0.71694 v 0 c 0.494325,-0.94512 0.838299,-1.95799 1.283107,-2.92624 1.038444,-2.43335 2.102187,-4.85593 3.140602,-7.28924 0.503753,-1.19492 1.030552,-2.38068 1.478741,-3.59776 0,0 1.603406,-0.74775 1.603406,-0.74775 z"
       inkscape:connector-curvature="0"
       style="stroke-width:0.35729709" />
    <path
       id="path5358"
       d="m 45.740391,112.41657 c 1.161582,0.0361 2.321704,-0.0121 3.480493,-0.0896 1.768839,-0.0951 3.525918,-0.32789 5.279605,-0.56753 1.357514,-0.15185 2.707527,-0.37466 4.026011,-0.73224 0.47008,-0.1438 0.251595,-0.0732 0.65629,-0.20936 0,0 -1.392389,1.07239 -1.392389,1.07239 v 0 c -0.39802,0.12232 -0.182918,0.0587 -0.645985,0.18884 -1.31679,0.32794 -2.657042,0.54259 -4.006047,0.69125 -1.759852,0.23401 -3.522122,0.46415 -5.295863,0.56521 -1.176932,0.079 -2.354513,0.12124 -3.534294,0.11425 0,0 1.432179,-1.03326 1.432179,-1.03326 z"
       inkscape:connector-curvature="0"
       style="stroke-width:0.35729709" />
    <path
       id="path5378"
       d="m 37.260093,128.55556 c 0.864349,-0.2555 1.769325,-0.34296 2.661883,-0.44881 1.214325,-0.10927 2.430765,-0.19666 3.644087,-0.31727 1.21388,-0.12515 2.433296,-0.17394 3.649917,-0.26507 1.125084,-0.0786 2.24758,-0.1932 3.367796,-0.32294 0.894423,-0.10402 1.793756,-0.14808 2.693367,-0.17405 0.569838,-0.0135 1.139835,-0.014 1.709789,-0.0152 0.19875,-0.0209 0.392556,-0.068 0.582382,-0.12838 0,0 -1.413301,1.07825 -1.413301,1.07825 v 0 c -0.197621,0.0451 -0.397626,0.0809 -0.601213,0.083 -0.564479,-0.003 -1.129043,-0.003 -1.693422,0.009 -0.892469,0.0239 -1.784382,0.0724 -2.671444,0.17658 -1.119523,0.12555 -2.241224,0.23627 -3.365312,0.31256 -1.216096,0.089 -2.435018,0.13905 -3.647852,0.26856 -1.213708,0.116 -2.430309,0.20085 -3.643448,0.32228 -0.901911,0.11505 -1.812059,0.21781 -2.682625,0.49087 0,0 1.409396,-1.07015 1.409396,-1.07015 z"
       inkscape:connector-curvature="0"
       style="stroke-width:0.35729709" />
    <path
       id="path5380"
       d="m 36.951218,129.59342 c 1.236716,0.24205 2.509417,0.16261 3.758182,0.0772 1.851131,-0.15524 3.701258,-0.32125 5.553246,-0.46782 1.534108,-0.11681 3.073126,-0.14894 4.602899,-0.3182 0.750475,-0.055 1.482466,-0.21499 2.216896,-0.36611 0.22028,-0.0272 0.402989,0.0436 0.565647,0.18391 0,0 -1.506417,0.94366 -1.506417,0.94366 v 0 c -0.146447,-0.0912 -0.300098,-0.1016 -0.469555,-0.0662 -0.726169,0.146 -1.455255,0.27002 -2.194894,0.3284 -1.522344,0.14686 -3.051779,0.17683 -4.57645,0.29366 -1.855107,0.14816 -3.708253,0.31703 -5.562658,0.4722 -1.27975,0.0853 -2.587519,0.16739 -3.852761,-0.0931 0,0 1.465865,-0.98762 1.465865,-0.98762 z"
       inkscape:connector-curvature="0"
       style="stroke-width:0.35729709" />
    <path
       id="path5382"
       d="m 36.038902,130.75221 c 1.180073,0.0213 2.360916,-0.0448 3.538675,-0.11398 1.778141,-0.0926 3.555905,-0.19054 5.334106,-0.28247 1.5672,-0.0763 3.136185,-0.10025 4.704905,-0.12111 0.471093,0.005 0.941017,0.0386 1.41063,0.0731 0,0 -1.426855,1.01241 -1.426855,1.01241 v 0 c -0.459009,-0.0386 -0.918521,-0.0735 -1.379525,-0.0766 -1.560126,0.008 -3.120419,0.0343 -4.678845,0.11102 -1.780503,0.0911 -3.560762,0.18729 -5.340642,0.28901 -1.197473,0.0731 -2.396445,0.13904 -3.59645,0.14306 0,0 1.434001,-1.03457 1.434001,-1.03457 z"
       inkscape:connector-curvature="0"
       style="stroke-width:0.35729709" />
    <path
       id="path5384"
       d="m 35.473935,132.67973 c 1.318157,-0.10376 2.633314,-0.24127 3.946847,-0.3927 2.290037,-0.31652 4.561182,-0.74586 6.83223,-1.17268 1.921536,-0.36173 3.855089,-0.63614 5.803976,-0.79527 0.601724,-0.0373 1.201119,-0.0238 1.801299,0.0207 0,0 -1.415585,1.00587 -1.415585,1.00587 v 0 c -0.587219,-0.0408 -1.174213,-0.0567 -1.762615,-0.0163 -1.933291,0.15211 -3.85099,0.42679 -5.757052,0.78271 -2.279621,0.42716 -4.559235,0.85862 -6.857521,1.17717 -1.336822,0.16029 -2.675734,0.29857 -4.014201,0.44392 0,0 1.422622,-1.05345 1.422622,-1.05345 z"
       inkscape:connector-curvature="0"
       style="stroke-width:0.35729709" />
    <path
       id="path5386"
       d="m 57.498466,117.41595 c 0.16701,-0.60386 0.36325,-1.19799 0.581792,-1.78517 0.136212,-0.33841 0.279663,-0.67309 0.4753,-0.98195 0.01649,-0.0135 0.11901,-0.2332 0.123265,-0.22794 0.03174,0.0394 0.01915,0.15404 0.06662,0.13611 0.51298,-0.19377 0.985607,-0.47982 1.478414,-0.71973 -0.357658,1.0006 -0.74165,1.99103 -1.127013,2.98152 -0.886044,2.29593 -1.852523,4.55973 -2.750929,6.85096 -0.685523,1.68401 -1.277217,3.40123 -1.774268,5.14864 -0.08937,0.29102 -0.05521,0.17323 -0.106096,0.35232 0,0 -1.616483,0.74535 -1.616483,0.74535 v 0 c 0.08643,-0.17888 0.03296,-0.0618 0.147209,-0.35717 0.559329,-1.75287 1.145916,-3.4965 1.849918,-5.19876 0.894066,-2.27938 1.851802,-4.53397 2.705924,-6.82853 0.366904,-0.98026 0.744968,-1.9561 1.061033,-2.95403 0.337862,-0.21793 2.143324,-1.69845 1.569555,-0.64584 -0.177807,0.31518 -0.384338,0.61275 -0.50365,0.96034 -0.219948,0.57901 -0.433531,1.16011 -0.580503,1.76274 0,0 -1.600092,0.76114 -1.600092,0.76114 z"
       inkscape:connector-curvature="0"
       style="stroke-width:0.35729709" />
    <path
       id="path5388"
       d="m 60.427209,115.24328 c -0.438802,1.29491 -0.996683,2.54553 -1.48603,3.82222 -0.784151,2.04312 -1.532979,4.09947 -2.248631,6.16719 -0.271572,0.94749 -0.649557,1.88442 -0.810565,2.86129 -0.141055,-0.60101 0.0045,-0.0674 -1.526253,0.67307 0,0 1.637788,-0.69593 1.637788,-0.69593 v 0 c -1.681514,0.91913 -1.322788,1.43257 -1.708506,0.79774 0.04917,-0.28198 0.142719,-0.55987 0.221877,-0.83447 0.202408,-0.70216 0.418322,-1.40059 0.657534,-2.09134 0.728252,-2.06342 1.477056,-4.11965 2.24355,-6.16936 0.468716,-1.26213 1.016993,-2.49702 1.41583,-3.78265 0,0 1.603406,-0.74776 1.603406,-0.74776 z"
       inkscape:connector-curvature="0"
       style="stroke-width:0.35729709" />
    <path
       id="path5390"
       d="m 58.597558,123.62553 c -0.67521,1.13648 -1.295785,2.30291 -1.923139,3.46576 -0.469932,0.83394 -0.865007,1.70707 -1.32154,2.54791 0,0 -1.62574,0.71043 -1.62574,0.71043 v 0 c 0.165214,-0.22148 0.05438,-0.0591 0.239033,-0.40098 0.388002,-0.71843 0.75993,-1.44449 1.149162,-2.16222 0.620674,-1.14876 1.229155,-2.30416 1.866799,-3.44353 0,0 1.615425,-0.71737 1.615425,-0.71737 z"
       inkscape:connector-curvature="0"
       style="stroke-width:0.35729709" />
    <path
       id="path5392"
       d="m 55.768357,129.11024 c -0.107925,0.24974 -0.219391,0.49754 -0.3213,0.74977 0,0 -1.604252,0.73687 -1.604252,0.73687 v 0 c 0.100295,-0.25048 0.211446,-0.49576 0.31745,-0.74391 0,0 1.608102,-0.74273 1.608102,-0.74273 z"
       inkscape:connector-curvature="0"
       style="stroke-width:0.35729709" />
    <path
       id="path5394"
       d="m 58.974772,120.94786 c -0.498268,1.13331 -0.91764,2.29801 -1.350813,3.45668 -0.386915,1.07869 -0.777689,2.15597 -1.166784,3.23389 0,0 -1.571864,0.72776 -1.571864,0.72776 v 0 c 0.402577,-1.07904 0.805806,-2.15766 1.187282,-3.24433 0.427096,-1.14873 0.841029,-2.3023 1.292325,-3.44197 0,0 1.609854,-0.73203 1.609854,-0.73203 z"
       inkscape:connector-curvature="0"
       style="stroke-width:0.35729709" />
    <path
       id="path5396"
       d="m 41.197743,123.71994 c 0.899035,-0.3388 1.848678,-0.49282 2.790851,-0.65934 1.218684,-0.22456 2.387333,-0.6388 3.599224,-0.89409 1.303566,-0.24996 2.641234,-0.15269 3.954158,-0.0339 0.784537,0.0785 0.402956,0.0404 1.144743,0.11425 0,0 -1.415036,0.99878 -1.415036,0.99878 v 0 c -0.734526,-0.0789 -0.356144,-0.0394 -1.135189,-0.11788 -1.304785,-0.1125 -2.631473,-0.19781 -3.92283,0.0756 -1.21051,0.26977 -2.384447,0.6799 -3.608089,0.8927 -0.950414,0.17061 -1.904996,0.34664 -2.804345,0.70943 0,0 1.396513,-1.08561 1.396513,-1.08561 z"
       inkscape:connector-curvature="0"
       style="stroke-width:0.35729709" />
    <path
       id="path5398"
       d="m 45.545255,120.52151 c 1.084776,-0.31544 2.198932,-0.50187 3.318954,-0.63847 0.956965,-0.11048 1.921268,-0.10806 2.877076,-0.22484 0,0 -1.411673,1.0426 -1.411673,1.0426 v 0 c -0.947551,0.0953 -1.9027,0.0849 -2.848381,0.20665 -1.127903,0.14586 -2.250305,0.34448 -3.336441,0.68773 0,0 1.400465,-1.07367 1.400465,-1.07367 z"
       inkscape:connector-curvature="0"
       style="stroke-width:0.35729709" />
    <path
       id="path5400"
       d="m 53.036464,115.38191 c 0.549315,-0.10954 1.090187,-0.26055 1.631989,-0.40257 0.03701,-0.0135 0.07401,-0.0262 0.111015,-0.0393 0,0 -1.40869,1.08152 -1.40869,1.08152 v 0 c -0.03671,0.009 -0.07342,0.0188 -0.110148,0.0283 -0.544218,0.13529 -1.086655,0.27798 -1.633568,0.40225 0,0 1.409397,-1.07017 1.409397,-1.07017 z"
       inkscape:connector-curvature="0"
       style="stroke-width:0.35729709" />
    <path
       id="path5402"
       d="m 53.036464,116.80609 c 0.608408,-0.0966 1.209007,-0.22212 1.81155,-0.34871 0.271851,-0.0563 0.14392,-0.03 0.383774,-0.079 0,0 -1.415068,1.06414 -1.415068,1.06414 v 0 c -0.233806,0.0456 -0.108887,0.0209 -0.374685,0.0744 -0.603948,0.1269 -1.212296,0.22746 -1.814967,0.35934 0,0 1.409396,-1.07017 1.409396,-1.07017 z"
       inkscape:connector-curvature="0"
       style="stroke-width:0.35729709" />
    <path
       id="path5404"
       d="m 53.580906,113.98738 c 0.623955,-0.0422 1.229144,-0.20097 1.833107,-0.3517 0.235189,-0.0662 0.472889,-0.11802 0.714666,-0.15303 0,0 -1.426565,1.06365 -1.426565,1.06365 v 0 c -0.232554,0.0398 -0.4611,0.0976 -0.690136,0.15358 -0.611048,0.14869 -1.226474,0.27965 -1.853695,0.34094 0,0 1.422623,-1.05344 1.422623,-1.05344 z"
       inkscape:connector-curvature="0"
       style="stroke-width:0.35729709" />
    <path
       id="path5406"
       d="m 44.956438,116.92684 c 0.564077,-0.30066 1.187538,-0.36821 1.815049,-0.40898 0.419598,-0.0121 0.832365,0.007 1.237556,-0.11466 0,0 -1.414531,1.0736 -1.414531,1.0736 v 0 c -0.409601,0.0795 -0.825254,0.0517 -1.239982,0.0794 -0.623515,0.0518 -1.230417,0.15768 -1.782361,0.47015 0,0 1.384269,-1.09953 1.384269,-1.09953 z"
       inkscape:connector-curvature="0"
       style="stroke-width:0.35729709" />
    <path
       id="path5408"
       d="m 46.263356,114.93746 c 0.754678,0.0805 1.513471,0.1129 2.271791,0.1359 0.239362,0.0219 0.477047,-0.003 0.711567,-0.0498 0.04754,-0.009 0.09691,-0.0145 0.141496,-0.0335 0.03407,-0.0144 0.12225,-0.0826 0.08997,-0.0647 -0.487748,0.27177 -0.971301,0.55091 -1.456951,0.82637 0.01882,-0.0135 0.03767,-0.0257 0.05652,-0.0386 0,0 1.633772,-0.71206 1.633772,-0.71206 v 0 c -0.01084,0.0324 -0.02159,0.0647 -0.03237,0.0972 -1.297496,0.75475 -1.373523,1.06198 -2.5689,0.99537 -0.764889,-0.0314 -1.529379,-0.0728 -2.292226,-0.1375 0,0 1.445337,-1.01868 1.445337,-1.01868 z"
       inkscape:connector-curvature="0"
       style="stroke-width:0.35729709" />
    <path
       id="path5410"
       d="m 47.52364,113.54246 c 0.646409,0.16253 1.302666,0.20006 1.965651,0.17794 0.306416,-0.0152 0.160513,-0.007 0.43775,-0.0248 0,0 -1.428084,1.04203 -1.428084,1.04203 v 0 c -0.274781,0.0121 -0.129825,0.007 -0.434875,0.0153 -0.673099,0.004 -1.338245,-0.0631 -1.996471,-0.20763 0,0 1.456029,-1.00291 1.456029,-1.00291 z"
       inkscape:connector-curvature="0"
       style="stroke-width:0.35729709" />
    <path
       id="path5412"
       d="m 74.213311,116.49731 c -0.562183,1.42221 -1.115357,2.84775 -1.702693,4.26007 -0.841232,1.98165 -1.679022,3.96391 -2.451035,5.97335 -0.537042,1.42924 -1.021258,2.87682 -1.382308,4.35999 -0.233085,0.92151 -0.371519,1.86404 -0.633708,2.77821 -0.136705,0.51818 -0.331501,1.01522 -0.55773,1.50021 -0.130557,0.26162 -0.185803,0.5444 -0.172436,0.83461 0.157846,0.94621 0.480071,0.22095 -1.454614,1.16488 0.0057,-0.0309 0.01138,-0.062 0.01717,-0.093 0,0 1.596066,-0.78671 1.596066,-0.78671 v 0 c -0.0015,0.0373 -0.0028,0.0747 -0.0046,0.11196 -1.536465,0.87377 -1.529298,1.44585 -1.729374,0.41703 -0.03811,-0.31275 0.0047,-0.6295 0.132521,-0.91965 0.237603,-0.47854 0.453937,-0.96514 0.588182,-1.48428 0.28787,-0.91039 0.422108,-1.8579 0.661436,-2.78099 0.363437,-1.4978 0.863888,-2.95509 1.409167,-4.39676 0.778248,-2.00949 1.616016,-3.9942 2.454581,-5.97941 0.574446,-1.39565 1.123955,-2.80213 1.619477,-4.22745 0,0 1.609852,-0.73202 1.609852,-0.73202 z"
       inkscape:connector-curvature="0"
       style="stroke-width:0.35729709" />
    <path
       id="path5414"
       d="m 66.717147,135.98505 c 1.40642,-0.47637 2.869464,-0.75409 4.317993,-1.0698 2.244228,-0.46764 4.495365,-0.90462 6.749648,-1.32212 2.535172,-0.52383 5.098998,-0.88747 7.668771,-1.19433 2.06612,-0.21103 4.142717,-0.35959 6.220586,-0.35328 0.513608,0.009 1.024862,0.0412 1.538487,0.0375 0,0 -1.418758,1.02144 -1.418758,1.02144 v 0 c -0.502205,-0.0137 -1.002979,-0.0487 -1.505331,-0.0604 -2.059007,-0.0155 -4.117467,0.12502 -6.164488,0.33835 -2.570113,0.30883 -5.132931,0.68009 -7.667972,1.20719 -2.259233,0.42272 -4.51624,0.86057 -6.764007,1.33975 -1.468016,0.32578 -2.951813,0.61769 -4.366931,1.13558 0,0 1.392002,-1.07988 1.392002,-1.07988 z"
       inkscape:connector-curvature="0"
       style="stroke-width:0.35729709" />
    <path
       id="path5416"
       d="m 72.437788,114.04735 c 1.261683,0.21691 2.546389,0.25358 3.823367,0.29781 2.177588,0.0295 4.351546,-0.11492 6.523642,-0.24691 2.028754,-0.12757 4.052755,-0.34204 6.083626,-0.43156 1.058959,-0.0347 2.118669,-0.0307 3.177966,-0.0183 0.229708,-0.0326 0.132453,0.005 0.299239,-0.0939 0,0 -1.400598,1.08877 -1.400598,1.08877 v 0 c -0.20018,0.0375 -0.091,0.0243 -0.328386,0.032 -1.039716,-0.033 -2.080468,-0.0409 -3.120347,-0.009 -2.021368,0.0918 -4.036997,0.28868 -6.056407,0.41507 -2.183444,0.13336 -4.368783,0.27862 -6.557776,0.25203 -1.299288,-0.0406 -2.600598,-0.0884 -3.889664,-0.26711 0,0 1.445338,-1.01868 1.445338,-1.01868 z"
       inkscape:connector-curvature="0"
       style="stroke-width:0.35729709" />
    <path
       id="path5418"
       d="m 91.853968,112.34747 c -0.01671,0.91944 0.09879,1.83677 0.207668,2.74834 0.146791,1.4386 0.289987,2.87764 0.430289,4.31693 0.107383,1.42 0.238704,2.83827 0.331419,4.25936 0.102586,1.08954 0.188164,2.18 0.236996,3.27325 0.03536,0.83894 0.03736,1.67867 0.03979,2.51818 -0.02474,0.75272 0.0204,1.5011 0.07748,2.25095 0.06746,0.7016 0.189882,1.39452 0.319507,2.0867 0.08552,0.34536 0.176094,0.68941 0.260798,1.035 0,0 -1.565174,0.83618 -1.565174,0.83618 v 0 c -0.07483,-0.35192 -0.162801,-0.70054 -0.250712,-1.04942 -0.122615,-0.70003 -0.246312,-1.39901 -0.319529,-2.1065 -0.0606,-0.75401 -0.11199,-1.50619 -0.08203,-2.26346 -3.25e-4,-0.83885 -0.0026,-1.67785 -0.02836,-2.51637 -0.04098,-1.09451 -0.12038,-2.18638 -0.221831,-3.27702 -0.08338,-1.42184 -0.208552,-2.84082 -0.314673,-4.26105 -0.142996,-1.43524 -0.289243,-2.87032 -0.445519,-4.30411 -0.118035,-0.9117 -0.234408,-1.82719 -0.25743,-2.74687 0,0 1.581329,-0.80009 1.581329,-0.80009 z"
       inkscape:connector-curvature="0"
       style="stroke-width:0.35729709" />
    <path
       id="path5420"
       d="m 81.034615,127.45926 c 1.077845,0.21798 2.170697,-0.18666 3.200331,-0.46944 1.215479,-0.36033 2.459331,-0.55232 3.72659,-0.52347 0.655185,0.0288 1.306395,0.10739 1.959256,0.16471 0.176112,-0.0276 0.366058,-0.0478 0.508781,-0.16032 0,0 -1.391153,1.10795 -1.391153,1.10795 v 0 c -0.182458,0.0555 -0.370612,0.0912 -0.562531,0.0733 -0.639413,-0.0696 -1.27808,-0.15283 -1.921728,-0.17371 -1.25322,-0.0108 -2.480651,0.19335 -3.681612,0.55106 -1.067777,0.29031 -2.197524,0.68534 -3.30923,0.41329 0,0 1.471296,-0.98339 1.471296,-0.98339 z"
       inkscape:connector-curvature="0"
       style="stroke-width:0.35729709" />
    <path
       id="path5422"
       d="m 81.803743,129.16683 c 1.371074,-0.93855 2.771072,-1.48378 4.380545,-1.7734 0.970129,-0.19063 1.953875,-0.29022 2.939898,-0.34991 0.404718,-0.0206 0.214659,-0.0121 0.570147,-0.0271 0,0 -1.425718,1.03672 -1.425718,1.03672 v 0 c -0.345674,0.0108 -0.160542,0.004 -0.555371,0.0214 -0.977285,0.0588 -1.95121,0.16468 -2.912005,0.35657 -0.726742,0.14268 -1.42403,0.32405 -2.109682,0.60722 -0.142697,0.0589 -0.5518,0.27305 -0.423361,0.1877 0.381816,-0.25376 0.791463,-0.46356 1.187193,-0.69533 0,0 -1.651646,0.63616 -1.651646,0.63616 z"
       inkscape:connector-curvature="0"
       style="stroke-width:0.35729709" />
    <path
       id="path5424"
       d="m 71.644943,129.38398 c 0.669245,-0.3741 1.388489,-0.65789 2.121879,-0.88063 0.638049,-0.17404 1.285949,-0.30634 1.934954,-0.43254 0.774186,-0.17308 1.56195,-0.27426 2.343149,-0.41086 0.835997,-0.19767 1.670658,-0.40187 2.505883,-0.60389 0.294369,-0.0846 0.596907,-0.097 0.90039,-0.10497 0,0 -1.424506,1.03688 -1.424506,1.03688 v 0 c -0.293624,0.0172 -0.585439,0.0439 -0.869963,0.12488 -0.834563,0.19952 -1.667508,0.40724 -2.505796,0.58969 -0.785051,0.13496 -1.574762,0.24694 -2.351981,0.42296 -0.642844,0.13107 -1.287417,0.25647 -1.91703,0.44298 -0.732902,0.23998 -1.452158,0.53051 -2.116622,0.92375 0,0 1.379643,-1.10839 1.379643,-1.10839 z"
       inkscape:connector-curvature="0"
       style="stroke-width:0.35729709" />
    <path
       id="path5426"
       d="m 74.692651,130.27408 c 0.957275,-0.36343 1.967848,-0.5554 2.961389,-0.79386 1.164416,-0.27051 2.319144,-0.58845 3.494076,-0.81153 1.092546,-0.17546 2.20085,-0.2 3.304973,-0.2202 0.158012,-0.0108 0.316023,-0.0205 0.474038,-0.0306 0,0 -1.404351,1.02515 -1.404351,1.02515 v 0 c -0.15779,0.007 -0.315579,0.0148 -0.473367,0.0221 -1.098365,0.0206 -2.201367,0.0521 -3.285667,0.24353 -1.168357,0.23284 -2.321255,0.53822 -3.480614,0.81084 -1.00082,0.2406 -2.031126,0.42961 -2.97012,0.86295 0,0 1.379643,-1.10839 1.379643,-1.10839 z"
       inkscape:connector-curvature="0"
       style="stroke-width:0.35729709" />
    <path
       id="path5475"
       d="m 129.76844,139.6918 c 2.20491,-0.2688 4.4313,-0.29114 6.6495,-0.33423 3.00696,0.0121 6.01164,-0.1168 9.01752,-0.14979 1.34635,-2e-5 2.73797,-0.0701 4.00806,0.4365 0,0 -2.0659,1.37651 -2.0659,1.37651 v 0 c -1.2342,-0.46627 -2.58112,-0.39921 -3.88106,-0.41112 -2.99879,0.0289 -5.99697,0.12731 -8.99628,0.13802 -2.24512,0.0576 -4.50502,0.0871 -6.72745,0.43905 0,0 1.99561,-1.49494 1.99561,-1.49494 z"
       inkscape:connector-curvature="0"
       style="stroke-width:0.35729709" />
  </g>
  <g
     inkscape:groupmode="layer"
     id="layer4"
     inkscape:label="Layer 3"
     style="display:inline"
     transform="translate(-12.433021,-53.974878)">
    <path
       id="path5449"
       d="m 127.99183,95.086014 c 0.65009,1.216463 1.34466,2.397748 2.04982,3.565786 0.28875,0.378531 1.02582,1.82276 1.44703,1.88785 -1.62059,1.04464 -1.61717,1.747 -1.56237,0.81905 0,0 1.64078,-1.06051 1.64078,-1.06051 v 0 c 0.16208,1.09788 0.11861,0.25667 -1.619,1.53219 -0.63866,-0.44624 -0.9721,-1.39301 -1.45892,-2.034499 -0.70019,-1.17491 -1.38822,-2.361066 -2.08605,-3.538287 0,0 1.58871,-1.17158 1.58871,-1.17158 z"
       inkscape:connector-curvature="0"
       style="stroke-width:0.2949402" />
    <path
       id="path5451"
       d="m 127.12511,92.486971 c 1.51589,0.154621 3.03752,-0.08587 4.54911,-0.223649 1.45702,-0.127569 2.90331,-0.37704 4.35234,-0.596626 0.29094,-0.04623 0.57466,-0.102393 0.86759,-0.08835 0,0 -1.49804,1.349935 -1.49804,1.349935 v 0 c -0.27795,0.0087 -0.55274,0.05082 -0.8291,0.08872 -1.43825,0.201158 -2.87427,0.4281 -4.3187,0.553705 -1.53792,0.142431 -3.08193,0.376754 -4.62557,0.246899 0,0 1.50237,-1.330686 1.50237,-1.330686 z"
       inkscape:connector-curvature="0"
       style="stroke-width:0.2949402" />
    <path
       id="path5453"
       d="m 129.30038,102.93011 c 0.80315,-1.4986 1.83247,-2.78473 2.7905,-4.128448 1.02072,-1.412067 2.00773,-2.875044 2.83425,-4.47445 0,0 1.66542,-0.909906 1.66542,-0.909906 v 0 c -0.8348,1.621065 -1.84288,3.096332 -2.87097,4.531226 -0.93381,1.319813 -1.93718,2.582078 -2.72769,4.044618 0,0 -1.69151,0.93696 -1.69151,0.93696 z"
       inkscape:connector-curvature="0"
       style="stroke-width:0.2949402" />
    <path
       id="path5455"
       d="m 135.51161,94.712553 c -0.28766,-0.385229 -0.48819,-0.86665 -0.80073,-1.224156 2.11377,-1.400162 1.23247,-1.474484 1.94375,-0.658148 0.15397,0.176715 0.28776,0.237902 0.48697,0.29858 0.0475,-0.0174 0.099,-0.02262 0.14253,-0.05207 0.0433,-0.02933 0.15561,-0.148668 0.11197,-0.120162 -0.49609,0.324526 -0.96679,0.709158 -1.47243,1.010074 -0.0468,0.02796 0.0578,-0.110967 0.0679,-0.174204 0.03,-0.186905 -0.0225,-0.289646 -0.0721,-0.460558 -0.0961,-0.195155 -0.42473,-0.887861 -0.67312,-0.703032 -0.35805,0.698832 -5.3e-4,-0.02162 1.52418,-1.049081 0.029,-0.01951 0.0221,0.08388 0.0497,0.106245 0.0554,0.04511 0.0845,0.0099 0.14593,-0.01243 0.89339,-0.349326 1.71215,-0.952141 2.55511,-1.452584 1.40663,-0.870237 2.85659,-1.620675 4.29883,-2.39246 1.5077,-1.095871 -1.57285,1.39674 -0.71819,0.459003 0,0 1.70543,-0.884702 1.70543,-0.884702 v 0 c -0.59841,0.921088 -1.57629,1.281092 -2.40534,1.817873 -1.44121,0.756154 -2.88014,1.518904 -4.28057,2.387781 -0.23086,0.139982 -0.46173,0.279965 -0.6926,0.419948 -0.19507,0.123145 -0.3891,0.2488 -0.58522,0.369286 -0.36934,0.226904 -0.76645,0.49509 -1.17636,0.597818 -0.0698,0.01752 -0.14197,0.01379 -0.21296,0.02075 -1.00013,-0.390199 0.41558,-2.118976 1.2996,-1.747428 0.35721,0.154813 0.6002,0.549877 0.77986,0.946712 0.0693,0.216653 0.13227,0.354014 0.13292,0.594588 0.003,1.062738 -1.27036,1.666881 -2.05486,1.613634 -0.16801,-0.07717 -0.22144,-0.08599 -0.37042,-0.219387 -0.0319,-0.02858 -0.46742,-0.530132 -0.44079,-0.55993 0.461,-0.515743 1.00549,-0.903047 1.50823,-1.354558 0.2399,0.4322 0.52085,0.834602 0.79095,1.237129 0,0 -1.58826,1.184975 -1.58826,1.184975 z"
       inkscape:connector-curvature="0"
       style="stroke-width:0.2949402" />
    <path
       id="path5457"
       d="m 137.33103,92.603021 c 0.69274,1.75594 1.53566,3.416248 2.32355,5.108628 0.99189,2.115732 1.9449,4.257971 2.97254,6.347451 0.47803,0.99082 0.9715,1.97245 1.54591,2.88217 0.11073,0.15455 0.20648,0.333 0.33638,0.4647 0.05,0.10388 0.0432,0.20062 0.0428,0.3178 0,0 -1.65708,1.04931 -1.65708,1.04931 v 0 c -2.6e-4,-0.0572 -0.035,-0.14125 0.004,-0.17143 0.008,-0.006 0.014,0.0178 0.021,0.0267 -0.11865,-0.16406 -0.225,-0.34113 -0.33231,-0.51657 -0.5537,-0.93747 -1.03728,-1.93365 -1.50702,-2.93861 -1.0053,-2.10701 -1.94791,-4.25786 -2.94976,-6.367415 -0.79937,-1.690913 -1.64937,-3.345791 -2.40306,-5.068503 0,0 1.603,-1.134177 1.603,-1.134177 z"
       inkscape:connector-curvature="0"
       style="stroke-width:0.2949402" />
    <path
       id="path5463"
       d="m 144.53158,108.49735 c -1.6575,1.9941 -2.8371,4.51161 -4.05709,6.92035 -1.73341,3.47548 -3.46284,6.95397 -5.16328,10.45453 -0.64711,1.31532 -1.29009,2.63486 -1.88687,3.98676 -0.15593,0.73083 -2.12552,1.7956 -1.76092,1.10568 0.002,-0.004 0.004,-0.006 0.005,-0.01 0,0 1.71341,-0.92996 1.71341,-0.92996 v 0 c -0.002,0.005 -0.005,0.009 -0.007,0.0132 -0.50494,0.86481 -2.23532,1.7687 -1.63865,0.75615 0.64431,-1.36597 1.31618,-2.71172 1.9932,-4.05292 1.72684,-3.49374 3.46933,-6.97544 5.19159,-10.47268 1.19196,-2.39091 2.34404,-4.85853 3.90165,-6.9196 0,0 1.70838,-0.85194 1.70838,-0.85194 z"
       inkscape:connector-curvature="0"
       style="stroke-width:0.2949402" />
    <path
       id="path5469"
       d="m 130.43802,127.74337 c -0.9163,0.0789 -1.7934,0.47942 -2.64503,0.88266 -0.17759,0.0921 -0.35689,0.1792 -0.53278,0.27619 -0.45978,0.25352 -0.60192,0.35049 -1.03914,0.65678 -0.16291,0.11408 -0.65004,0.45979 -0.48531,0.34978 1.11599,-0.74528 1.47713,-1.10361 0.67552,-0.37879 -0.53644,0.52697 -1.08738,1.08381 -1.25548,1.9391 -0.023,0.68749 0.44819,1.10136 0.87701,1.41725 0.73364,0.44352 1.52868,0.58974 2.33548,0.62128 1.12589,2.9e-4 2.25002,-0.056 3.37202,-0.16804 0.86594,-0.0445 1.71852,-0.24373 2.53773,-0.5904 0.66595,-0.25993 1.94049,-1.26034 -0.78357,0.6498 0,0 1.71968,-0.8473 1.71968,-0.8473 v 0 c -0.81444,0.60288 -1.50244,1.27348 -2.38988,1.59798 -0.82614,0.31143 -1.67899,0.48117 -2.54199,0.52776 -1.1283,0.10426 -2.25931,0.15853 -3.39094,0.15154 -0.83166,-0.0565 -1.6557,-0.21496 -2.40164,-0.70478 -0.49056,-0.38681 -0.97739,-0.87283 -0.9933,-1.65444 0.12083,-0.96096 0.64186,-1.51548 1.22655,-2.10602 1.01727,-0.96673 0.32425,-0.33997 2.42139,-1.87153 0.66376,-0.48474 1.3508,-0.92 2.0739,-1.25229 0.87687,-0.39907 1.77619,-0.80013 2.71816,-0.84931 0,0 -1.49838,1.35278 -1.49838,1.35278 z"
       inkscape:connector-curvature="0"
       style="stroke-width:0.2949402" />
    <path
       id="path5471"
       d="m 136.21473,127.0607 c 0.48445,0.56851 0.87968,1.22893 1.19261,1.95737 0.29643,0.92014 0.13315,1.56483 -0.31485,2.33761 -0.81466,1.02858 -1.93374,1.61035 -2.92795,2.3006 0,0 1.42648,-1.41745 1.42648,-1.41745 v 0 c -2.51406,1.86635 -0.65262,0.58723 -0.18281,0.0153 0.45011,-0.67384 0.66851,-1.23327 0.40543,-2.10181 -0.29998,-0.70403 -0.67948,-1.35079 -1.16962,-1.87098 0,0 1.57071,-1.22056 1.57071,-1.22056 z"
       inkscape:connector-curvature="0"
       style="stroke-width:0.2949402" />
  </g>
</svg>
