<?xml version="1.0" encoding="UTF-8" standalone="no"?>
<!-- Created with Inkscape (http://www.inkscape.org/) -->

<svg
   xmlns:dc="http://purl.org/dc/elements/1.1/"
   xmlns:cc="http://creativecommons.org/ns#"
   xmlns:rdf="http://www.w3.org/1999/02/22-rdf-syntax-ns#"
   xmlns:svg="http://www.w3.org/2000/svg"
   xmlns="http://www.w3.org/2000/svg"
   xmlns:sodipodi="http://sodipodi.sourceforge.net/DTD/sodipodi-0.dtd"
   xmlns:inkscape="http://www.inkscape.org/namespaces/inkscape"
   width="132.37433mm"
   height="93.33873mm"
   viewBox="0 0 132.37433 93.33873"
   version="1.1"
   id="svg8"
   inkscape:version="0.92.5 (2060ec1f9f, 2020-04-08)"
   sodipodi:docname="teaching.svg">
  <defs
     id="defs2" />
  <sodipodi:namedview
     id="base"
     pagecolor="#ffffff"
     bordercolor="#666666"
     borderopacity="1.0"
     inkscape:pageopacity="0.0"
     inkscape:pageshadow="2"
     inkscape:zoom="0.7"
     inkscape:cx="722.38651"
     inkscape:cy="341.45525"
     inkscape:document-units="mm"
     inkscape:current-layer="layer1"
     showgrid="false"
     inkscape:snap-grids="true"
     inkscape:snap-to-guides="true"
     showguides="true"
     inkscape:window-width="1920"
     inkscape:window-height="1025"
     inkscape:window-x="0"
     inkscape:window-y="0"
     inkscape:window-maximized="1" />
  <metadata
     id="metadata5">
    <rdf:RDF>
      <cc:Work
         rdf:about="">
        <dc:format>image/svg+xml</dc:format>
        <dc:type
           rdf:resource="http://purl.org/dc/dcmitype/StillImage" />
        <dc:title></dc:title>
      </cc:Work>
    </rdf:RDF>
  </metadata>
  <g
     inkscape:label="Layer 1"
     inkscape:groupmode="layer"
     id="layer1"
     style="display:inline"
     transform="translate(-44.184038,-13.309678)">
    <path
       id="path3717"
       transform="scale(0.26458333)"
       style="stroke-width:0.99999994"
       d="m 255.86719,138.95898 c -0.58991,-5.1e-4 -1.14142,0.0247 -3.42383,0.0801 l -4.70313,3.44141 c -0.3646,-0.29767 -0.76069,-0.55919 -1.19921,-0.76367 -0.3553,-0.16569 -0.73959,-0.26042 -1.10938,-0.39063 -3.65475,-0.70771 -6.82411,0.6227 -10.02539,2.23633 -4.29663,2.34637 -8.58793,4.66484 -12.32227,7.83789 -1.98769,1.68893 -3.73559,3.55237 -5.45507,5.50586 -2.80151,3.54038 -4.47049,7.74269 -5.07618,12.20508 -0.13523,0.99624 -0.17942,2.00258 -0.26953,3.0039 -0.13666,5.62748 0.94341,11.25681 3.14453,16.44141 0.451,1.0623 0.98953,2.08632 1.48438,3.12891 2.64667,4.86338 6.15876,9.29467 10.56836,12.68164 0.83616,0.64225 1.73032,1.20435 2.5957,1.80664 5.68672,3.47193 12.15594,5.06313 18.59766,6.44531 6.71829,1.30211 13.53942,1.89153 20.37109,2.0957 5.19043,0.0248 10.41934,-0.42394 15.4707,-1.66601 0.93193,-0.22914 1.84749,-0.52002 2.77149,-0.7793 2.5542,-0.86738 5.08676,-1.83416 7.43164,-3.18359 6.09583,-3.50803 7.76094,-4.1675 12.03711,-8.05274 2.23572,-2.21785 4.3575,-4.57375 5.95508,-7.30273 0.96173,-1.6428 1.21116,-2.33016 1.98242,-4.05859 1.603,-4.06313 2.02835,-8.43157 2.10156,-12.76172 -0.0236,-4.3065 -1.16304,-8.45098 -2.75586,-12.41602 -1.53871,-3.5789 -3.66552,-6.93626 -6.37304,-9.75195 -0.61473,-0.63927 -1.28364,-1.22423 -1.92579,-1.83594 -4.42619,-3.7597 -9.69311,-6.26833 -15.13867,-8.18555 -1.39105,-0.48975 -2.81053,-0.90127 -4.21484,-1.35156 -8.74688,-2.57453 -17.78991,-3.77123 -26.86524,-4.33398 -2.43687,-0.0491 -3.06438,-0.0757 -3.65429,-0.0762 z m -5.72266,4.14258 c 0.59451,-0.009 1.22712,0.008 3.68164,0.0215 9.04946,0.46427 18.07192,1.60071 26.78906,4.17187 1.38565,0.44596 2.78652,0.85069 4.15821,1.33789 5.33097,1.89345 10.48179,4.37954 14.81836,8.06055 0.62465,0.59657 1.27766,1.16514 1.875,1.78906 2.6439,2.76158 4.72409,6.05062 6.21484,9.56055 1.53404,3.88955 2.62752,7.94877 2.60938,12.16406 -0.10749,4.25044 -0.55226,8.52766 -2.21485,12.48633 -0.78774,1.69212 -1.03602,2.35396 -2.01953,3.95312 -1.63615,2.66033 -3.76975,4.96675 -6.01367,7.1211 -0.60694,0.52805 -1.19304,1.08025 -1.82031,1.58398 -0.36608,0.29398 -1.17138,0.80259 -1.67578,1.14453 -1.1701,0.49435 -2.34133,0.92002 -3.56641,1.38672 -0.91631,0.27329 -1.82295,0.57843 -2.74805,0.82031 -5.02095,1.31286 -10.23869,1.81528 -15.41601,1.83985 -6.80608,-0.14979 -13.59905,-0.72827 -20.29688,-1.98828 -6.36724,-1.33534 -12.76175,-2.86611 -18.41406,-6.22852 -0.85474,-0.58261 -1.73813,-1.12576 -2.56445,-1.74805 -4.36282,-3.28555 -7.84251,-7.62082 -10.44141,-12.39843 -0.48587,-1.02468 -1.01569,-2.02958 -1.45703,-3.07422 -2.15553,-5.10211 -3.17099,-10.65308 -2.93946,-16.18359 0.10406,-0.98281 0.16091,-1.97068 0.3125,-2.94727 0.67945,-4.37661 2.45366,-8.45571 5.27735,-11.87305 2.31435,-2.55283 4.72903,-4.93237 7.53711,-6.94922 0.11356,-0.0816 0.35332,-0.22443 0.5293,-0.33789 2.18456,-0.97054 4.46509,-1.6139 6.9375,-1.30468 0.33836,0.0875 0.68907,0.13722 1.01562,0.26171 1.51024,0.57583 2.50097,1.91576 3.16797,3.32422 L 250,145.38281 c -0.42556,-0.78509 -0.9245,-1.55114 -1.5293,-2.21093 0.47379,-0.0215 1.38549,-0.0658 1.67383,-0.0703 z"
       inkscape:connector-curvature="0" />
    <path
       id="path3719"
       d="m 64.261655,41.693094 c -0.424577,-0.950098 -0.684323,-1.962137 -1.101603,-2.915721 -0.122216,-0.279292 -0.260808,-0.551128 -0.39121,-0.826694 -0.537271,-1.049668 -1.174274,-2.059302 -1.982341,-2.923622 -0.373631,-0.39964 -0.503041,-0.485058 -0.905658,-0.81376 -0.190262,-0.118872 -0.393763,-0.279432 -0.625102,-0.323287 -0.04854,-0.0092 -0.09783,0.01384 -0.146743,0.02077 0,0 1.613048,-1.153374 1.613048,-1.153374 v 0 c 0.302083,0.07964 0.55313,0.234127 0.795743,0.434298 0.397218,0.350107 0.523327,0.442349 0.894397,0.857845 0.797478,0.892961 1.440831,1.914266 1.991662,2.973689 0.386905,0.795028 0.416925,0.817692 0.735414,1.61925 0.273127,0.687393 0.481177,1.40499 0.83479,2.05812 0,0 -1.712397,0.992497 -1.712397,0.992497 z"
       inkscape:connector-curvature="0"
       style="stroke-width:0.26458332" />
    <path
       id="path3721"
       d="m 66.946097,41.820401 c -0.432361,-1.132255 -0.615734,-2.33803 -0.784186,-3.532166 -0.07944,-0.543917 -0.07982,-1.092655 -0.0759,-1.640544 0,0 1.733796,-0.877842 1.733796,-0.877842 v 0 c -0.02392,0.543149 -0.04038,1.087122 0.03169,1.628338 0.155112,1.168633 0.329147,2.357765 0.815472,3.442375 0,0 -1.720873,0.979839 -1.720873,0.979839 z"
       inkscape:connector-curvature="0"
       style="stroke-width:0.26458332" />
    <path
       id="path3723"
       d="m 69.545059,41.731144 c 0.0743,-1.301716 0.542176,-2.5141 1.074372,-3.687956 0.278231,-0.6286 0.649132,-1.204621 1.02747,-1.775378 0,0 1.759344,-0.76804 1.759344,-0.76804 v 0 c -0.390318,0.561869 -0.775547,1.12804 -1.058283,1.754571 -0.528944,1.134052 -1.007536,2.309627 -1.041982,3.579566 0,0 -1.760921,0.897237 -1.760921,0.897237 z"
       inkscape:connector-curvature="0"
       style="stroke-width:0.26458332" />
    <path
       id="path3725"
       d="m 63.425395,43.72267 c -0.0079,0.673164 0.194537,1.316964 0.451932,1.930927 0.112397,0.216752 0.210351,0.448032 0.370221,0.636236 0.04217,0.04964 0.115496,0.153466 0.16256,0.108436 0.02267,-0.0217 0.0075,-0.06234 0.01122,-0.09351 -0.55345,0.31813 -1.090229,0.667203 -1.66035,0.954387 -0.03699,0.01863 0.0154,-0.08251 0.0113,-0.123719 -0.0069,-0.0689 -0.02574,-0.136218 -0.04389,-0.203036 -0.08704,-0.320326 -0.238339,-0.589743 -0.400693,-0.877142 -0.310901,-0.528896 -0.683779,-1.019759 -1.068231,-1.497078 -0.0369,-0.07167 -0.11075,-0.115941 -0.153334,-0.183245 -0.392912,-0.62102 1.116557,-0.968748 1.751084,-1.339454 0.47599,-0.11549 0.948073,-0.241837 1.429498,-0.336079 0.681911,-0.114591 1.365404,-0.213412 2.053844,-0.278825 0.25677,-0.0049 0.576117,-0.06454 0.820862,0.05236 0.101103,0.04829 0.172654,0.13648 0.247859,0.214651 0.255609,0.422791 0.300749,0.942028 0.352094,1.424138 0.0467,0.534739 0.05877,1.071682 0.07286,1.60804 0.130302,0.945909 -1.071128,1.433999 -1.98829,1.441376 -0.06163,-0.0074 -0.123251,-0.01476 -0.184878,-0.02215 0,0 1.607508,-1.156666 1.607508,-1.156666 v 0 c 0.05681,-0.0019 0.113622,-0.0039 0.170434,-0.0058 0.755308,-0.170678 0.0094,-0.01643 -1.481159,0.922004 -0.02304,0.01453 0.05467,0.02233 0.08055,0.01381 0.07674,-0.02521 0.0071,-0.252052 0.03301,-0.292203 0.0033,-0.533231 -0.0046,-1.06707 -0.04988,-1.598671 -0.04584,-0.434139 -0.08164,-0.909714 -0.303697,-1.294132 -0.260091,-0.230955 -0.634823,-0.154906 -0.956879,-0.136023 -0.682702,0.06542 -1.361114,0.164516 -2.035114,0.291793 -0.479203,0.105744 -0.96752,0.211096 -1.422138,0.397717 0.53758,-0.318233 1.083961,-0.622046 1.612744,-0.954696 0.04562,-0.0287 -0.142952,-0.0469 -0.101095,0.02734 0.03938,0.06985 0.108913,0.119981 0.144037,0.192654 0.369348,0.499287 0.742106,0.998691 1.060524,1.532477 0.214651,0.366879 0.415147,0.729046 0.514646,1.146334 0.01445,0.06061 0.07791,0.146484 0.0287,0.184698 -0.539747,0.419131 -1.1429,0.749514 -1.714352,1.124272 -0.368914,-0.167981 -0.50845,-0.583779 -0.680466,-0.923284 -0.260387,-0.635815 -0.468196,-1.296625 -0.511672,-1.986804 0,0 1.768652,-0.901174 1.768652,-0.901174 z"
       inkscape:connector-curvature="0"
       style="stroke-width:0.26458332" />
    <path
       id="path3729"
       transform="scale(0.26458333)"
       style="stroke-width:0.99999994"
       d="m 280.47266,156.75195 c -0.83661,0.0301 -1.70495,0.26697 -2.45899,0.35938 -2.3472,0.50785 -4.67006,1.16856 -6.88281,2.10937 -2.42206,1.3996 -4.85214,2.78485 -7.26563,4.19922 -0.99775,0.58472 -2.07364,1.25016 -2.27539,2.4707 0.002,1.27881 0.64766,2.39433 1.30274,3.4668 0.54211,1.80777 1.16782,3.58335 1.92383,5.31641 1.81096,3.99586 3.33464,1.13473 7.84765,-2.35742 0.19015,-0.14711 -0.11573,-0.46595 -0.17383,-0.69922 -0.62546,-2.00624 -1.80641,-3.78363 -2.90625,-5.55664 -0.0434,-0.0858 -0.10469,-0.17942 -0.15429,-0.26758 -0.10197,-0.38279 -0.2055,-0.76508 -0.29492,-1.15235 l -0.27344,0.1504 c -0.38405,-0.6759 -0.69667,-1.38791 -0.5586,-2.11329 1.24852,-0.42076 2.52528,-0.76232 3.80469,-1.06835 1.29978,-0.22115 2.7573,-0.69837 4.03711,-0.16407 1.11382,1.25177 1.11132,3.14677 1.24609,4.72852 0.11022,2.53875 0.25176,5.09303 0.0664,7.63086 -0.1065,0.67193 -0.0814,1.5237 -0.53125,2.09765 -0.0329,0.042 -0.0816,0.08 -0.12695,0.11914 1.65746,-0.98014 3.3152,-1.96126 4.97265,-2.9414 l -5.85937,4.6543 c 2.34767,-1.33194 4.72077,-2.62022 7.04297,-3.9961 1.07054,-0.63427 1.03769,-2.21972 1.14258,-3.27148 0.0981,-2.56956 -0.0255,-5.14551 -0.13672,-7.71289 -0.1579,-1.87387 -0.24408,-3.90232 -1.52344,-5.39844 -0.17467,-0.11966 -0.33114,-0.27067 -0.52344,-0.35938 -0.4474,-0.20624 -0.93944,-0.26218 -1.4414,-0.24414 z m -3.67383,19.26953 c -0.26955,0.1594 -0.53905,0.31912 -0.8086,0.47852 0.22202,-0.11592 0.57779,-0.27925 0.8086,-0.47852 z m -4.6211,-4.09375 c 0.0975,-0.0505 0.10144,0.25668 0.0195,0.33008 -0.039,0.0349 -0.15026,-0.0534 -0.27735,-0.18945 0.089,-0.0472 0.16619,-0.0932 0.25781,-0.14063 z"
       inkscape:connector-curvature="0" />
    <path
       id="path3733"
       d="m 60.34647,46.412644 c -0.997857,-0.280228 -2.041715,-0.364426 -3.073818,-0.398616 -0.424048,-0.02495 -0.845344,0.01355 -1.265452,0.06395 0,0 1.575965,-1.167918 1.575965,-1.167918 v 0 c 0.417112,-0.02881 0.834908,-0.04765 1.253061,-0.02199 1.054968,0.05403 2.114338,0.149807 3.142345,0.403936 0,0 -1.632101,1.120643 -1.632101,1.120643 z"
       inkscape:connector-curvature="0"
       style="stroke-width:0.26458332" />
    <path
       id="path3735"
       d="m 68.960356,44.490293 c 0.314283,-0.05454 0.148151,-0.02725 0.49857,-0.08081 0,0 -1.57222,1.180848 -1.57222,1.180848 v 0 c -0.360003,0.06014 -0.186933,0.03216 -0.519144,0.08435 0,0 1.592794,-1.184383 1.592794,-1.184383 z"
       inkscape:connector-curvature="0"
       style="stroke-width:0.26458332" />
    <path
       id="path3737"
       d="m 76.017857,43.861561 c 1.008351,-0.335598 2.054318,-0.529119 3.096977,-0.721577 0.208222,-0.03414 0.416441,-0.06829 0.624663,-0.102439 0,0 -1.53379,1.153258 -1.53379,1.153258 v 0 c -0.206451,0.03446 -0.4129,0.06893 -0.619352,0.103394 -1.050978,0.198546 -2.124043,0.386236 -3.111008,0.812255 0,0 1.54251,-1.244891 1.54251,-1.244891 z"
       inkscape:connector-curvature="0"
       style="stroke-width:0.26458332" />
    <path
       id="path3745"
       d="m 72.636347,55.855663 c -0.437853,1.380469 -0.541049,2.826597 -0.638754,4.26203 -0.136041,3.600966 0.05096,7.203345 0.162806,10.802355 0.154966,3.950092 0.291277,7.900792 0.400381,11.852413 0.02267,1.77406 0.135916,3.548401 0.06162,5.322255 -0.04241,0.523676 -0.03689,1.054904 -0.145572,1.570738 -0.03333,0.155348 -0.0956,0.301236 -0.132963,0.455338 -0.245981,1.022651 -2.776699,2.153218 -2.529004,0.95945 0.01233,-0.01506 0.02466,-0.03009 0.03697,-0.04514 0,0 2.582654,-1.147765 2.582654,-1.147765 v 0 c -0.0091,0.02146 -0.01818,0.04292 -0.02725,0.06438 -0.153385,0.04227 -0.04382,0.07423 -0.09301,0.102102 -1.830523,1.037199 -2.675821,2.302973 -2.51727,1.298094 0.03067,-0.163584 0.07091,-0.322205 0.141893,-0.473586 0.156531,-0.498118 0.146551,-1.028266 0.213191,-1.543135 0.135194,-1.785662 0.06541,-3.578341 0.0737,-5.367432 -0.04014,-3.96443 -0.144944,-7.927666 -0.321575,-11.888494 -0.130881,-3.58404 -0.354251,-7.167737 -0.307023,-10.755603 0.06535,-1.43455 0.139058,-2.873037 0.505873,-4.26888 0,0 2.533335,-1.199129 2.533335,-1.199129 z"
       inkscape:connector-curvature="0"
       style="stroke-width:0.26458332" />
    <path
       id="path3747"
       d="m 69.559254,91.175508 c -0.117832,0.05439 -0.238953,0.102161 -0.353494,0.163179 -0.164854,0.08782 -0.646877,0.373812 -0.483743,0.282837 0.570156,-0.317955 1.117251,-0.679455 1.704882,-0.963821 0.28202,-0.136472 -0.526282,0.34027 -0.784127,0.51825 -0.609333,0.420602 -1.353965,0.978947 -1.942655,1.41393 -2.440752,1.806088 -4.83969,3.66816 -7.211309,5.563934 -1.355561,1.135007 -2.760713,2.229053 -3.967488,3.527183 -0.12007,0.2156 -0.463957,0.42623 -0.469836,0.6969 -0.130763,0.0909 -0.225621,0.20474 -0.326052,0.32919 -0.103412,0.12618 -0.214259,0.24598 -0.323773,0.36683 -0.02106,0.0157 -0.03272,0.0386 -0.04205,0.0585 -3.686874,1.58401 -1.69395,1.47449 -3.124965,0.61484 -0.807371,-0.46025 -1.719808,-0.59447 -2.632803,-0.65252 -1.323789,-0.0574 -2.518862,0.4278 -3.661701,1.03929 3.79884,-2.14312 1.325949,-1.00762 0.800542,-0.0435 -0.01593,0.0566 -0.05667,0.15497 -0.03245,0.2205 0.05127,0.13876 0.555766,0.30599 0.666637,0.34508 1.03637,0.28727 2.107657,0.36895 3.178175,0.38778 1.628087,-0.0339 3.234779,-0.32769 4.823065,-0.66523 0.656185,-0.19131 1.332796,-0.36029 1.951869,-0.65918 0.153828,-0.0743 0.59368,-0.3381 0.443203,-0.25726 -2.117688,1.13771 -2.536015,1.73751 -1.850287,0.86654 0.02604,-0.0891 0.07426,-0.17451 0.0781,-0.26723 0.02233,-0.53959 -0.643678,-1.10688 -0.983422,-1.46203 0,0 2.380949,-1.44876 2.380949,-1.44876 v 0 c 0.433294,0.47016 1.042688,1.0076 1.111339,1.68785 0.01238,0.12257 -0.0236,0.24526 -0.03541,0.36789 -0.660218,1.25446 -0.10785,0.34224 -2.856251,1.98944 -0.731309,0.43829 -1.603412,0.59716 -2.410431,0.82841 -1.605434,0.32467 -3.228695,0.61475 -4.871969,0.62408 -1.103061,-0.0317 -2.216057,-0.10846 -3.277184,-0.43492 -0.421278,-0.17478 -0.948865,-0.39331 -0.863376,-0.94039 0.01942,-0.0713 0.02729,-0.14689 0.05826,-0.21402 0.600562,-1.30197 3.222636,-1.95965 3.835739,-2.64678 1.180491,-0.58509 2.413468,-1.01281 3.753831,-0.91852 0.954606,0.0846 1.905646,0.24567 2.747031,0.73387 1.581553,0.98645 0.145836,0.99906 -1.852509,1.97707 0.01397,-0.005 0.04231,-0.0195 0.05503,-0.0414 0.114583,-0.11531 0.225451,-0.23419 0.336862,-0.35254 0.102907,-0.11935 0.178054,-0.27594 0.306131,-0.35862 0.01775,0.0103 0.03458,0.0397 0.05323,0.031 0.01931,-0.009 0.007,-0.0422 0.01426,-0.0623 0.092,-0.25563 0.306949,-0.45415 0.462539,-0.6676 1.222222,-1.34895 2.696538,-2.44218 4.078097,-3.617617 2.365928,-1.890787 4.760045,-3.746612 7.183705,-5.562794 2.061705,-1.544748 4.161623,-3.107073 6.549469,-4.118752 0,0 -2.21565,1.721331 -2.21565,1.721331 z"
       inkscape:connector-curvature="0"
       style="stroke-width:0.26458332" />
    <path
       id="path3749"
       d="m 73.112118,89.9627 c 0.737622,1.595917 2.063343,2.837858 3.27092,4.080386 1.758257,1.818696 3.73726,3.391932 5.721453,4.951643 1.116425,0.877157 2.216417,1.781511 3.243543,2.762881 0.301194,0.30594 0.603803,0.612 0.87998,0.94113 0.699574,0.77125 -2.339128,2.3054 -2.435048,1.25516 -0.01077,-0.0934 -0.0077,-0.18766 -0.0068,-0.28145 0.02482,-0.42061 0.210947,-0.80156 0.409861,-1.16465 0.219435,-0.33188 0.479229,-0.65173 0.833318,-0.84799 2.732405,-1.51453 1.717884,-1.28121 3.078247,-1.54389 0.76068,-0.128636 1.516029,-0.0282 2.239055,0.22038 0.647745,0.29526 1.042654,0.81376 1.233128,1.48601 0.08018,0.6106 -0.08442,1.22044 -0.567809,1.63303 -0.122804,0.10481 -0.267523,0.18083 -0.401286,0.27125 -0.971949,0.51064 -1.921113,1.06722 -2.915848,1.53191 -0.177382,0.0829 -1.182137,0.19612 -1.339826,0.21243 -0.718717,0.0744 -1.428211,0.0762 -2.1496,0.0686 -0.530759,-0.005 -1.058071,-0.0264 -1.585494,-0.083 0,0 2.262904,-1.60914 2.262904,-1.60914 v 0 c 0.513086,0.0496 1.026811,0.0785 1.542635,0.0817 0.948793,0.004 1.892358,-0.0211 2.826314,-0.21001 0.208346,-0.0421 0.783084,-0.29024 0.618341,-0.15591 -0.56276,0.45887 -1.230561,0.77119 -1.845841,1.15679 0.139234,-0.0678 0.287181,-0.12009 0.4177,-0.20346 0.478557,-0.30568 0.713489,-0.80688 0.680561,-1.36293 -0.135906,-0.59649 -0.504134,-1.02631 -1.080677,-1.24938 -0.702376,-0.20705 -1.429406,-0.26635 -2.14938,-0.0986 -1.137608,0.32283 -0.328737,0.12507 1.744924,-1.14707 0.08531,-0.0523 -0.184501,0.079 -0.27065,0.12996 -0.208798,0.12345 -0.272462,0.20017 -0.433991,0.37718 -0.06111,0.067 -0.119028,0.13678 -0.17854,0.20517 -0.200303,0.3193 -0.374179,0.64756 -0.451464,1.01885 0.0011,0.0871 7.94e-4,0.17466 0.0026,0.26152 0.05395,0.99915 -1.979041,2.37004 -2.503453,1.4953 -0.245687,-0.33407 -0.530419,-0.63775 -0.816039,-0.93744 -0.993135,-0.99199 -2.066359,-1.9022 -3.157648,-2.7836 -1.971437,-1.586875 -3.935685,-3.187681 -5.712918,-4.99518 -1.260552,-1.265708 -2.608133,-2.522148 -3.460819,-4.113995 0,0 2.457649,-1.353535 2.457649,-1.353535 z"
       inkscape:connector-curvature="0"
       style="stroke-width:0.26458332" />
    <path
       id="path3751"
       d="m 70.438295,67.389334 c -0.141774,0.10386 -0.290825,0.198451 -0.425318,0.311579 -0.779875,0.655989 -1.460217,1.442974 -2.158336,2.181008 -1.40263,1.48282 -0.605115,0.643131 -2.08462,2.195211 -2.001771,2.072222 -4.125889,4.01878 -6.302378,5.904653 -0.231521,0.204994 -0.799891,0.696209 -1.045728,0.952035 -0.04812,0.05007 -0.294555,0.310329 -0.273492,0.412191 0.0051,0.02455 0.04874,-0.0122 0.07355,-0.01588 0.08358,-0.01241 0.167614,-0.02156 0.251421,-0.03235 0,0 -2.275817,1.620075 -2.275817,1.620075 v 0 c -0.117993,-0.03037 -0.248875,-0.02947 -0.35398,-0.0911 -0.646258,-0.378907 0.224287,-1.037908 0.488547,-1.275715 0.210566,-0.189484 0.427101,-0.372224 0.640652,-0.558337 2.21243,-1.873602 4.365053,-3.817816 6.3784,-5.906273 1.040998,-1.101479 1.045869,-1.101603 2.043552,-2.175936 0.67741,-0.729451 1.332661,-1.490445 2.05246,-2.179523 0.121777,-0.116581 0.253093,-0.222774 0.379638,-0.334158 0,0 2.611453,-1.007486 2.611453,-1.007486 z"
       inkscape:connector-curvature="0"
       style="stroke-width:0.26458332" />
    <path
       id="path3753"
       d="m 73.402692,67.070972 c 1.198345,1.346369 2.723629,2.340396 4.244057,3.282349 1.594884,0.932183 3.295382,1.656789 4.974457,2.418956 0.946386,0.395309 1.851623,0.873067 2.75743,1.350801 0.317042,0.198461 0.638643,0.38985 0.965446,0.571826 0.844475,0.460372 0.975516,-0.418209 -2.326937,1.284824 0.60493,-0.666014 1.072161,-1.449575 1.562561,-2.200865 1.244356,-1.955411 2.426099,-3.949298 3.603069,-5.945666 0.777539,-1.359898 1.555694,-2.721692 2.207239,-4.147489 0.137538,-0.302766 0.263779,-0.611931 0.339397,-0.936424 0.294965,-0.911434 0.01752,-0.06989 2.539508,-1.245995 0.01262,-0.0059 0.01397,0.02439 0.02355,0.03448 0.01971,0.02077 0.211167,0.01447 0.06638,0.108522 -0.811286,0.526941 -1.662171,0.99025 -2.493259,1.485376 -0.171582,-0.02315 -0.335817,0.02656 -0.495252,0.08699 -0.07297,0.02765 -0.282141,0.132606 -0.214601,0.09353 2.455159,-1.420527 2.830317,-1.711939 1.964034,-1.070747 -0.206941,0.211248 -0.697741,0.701645 -0.365244,0.991946 0.207055,0.08206 0.403013,0.06373 0.606724,-0.02432 0.09229,-0.03988 0.352615,-0.193323 0.265163,-0.143727 -2.248247,1.275083 -2.763499,1.712402 -1.89847,1.013865 0.338804,-0.417232 0.437226,-0.711605 -0.07404,-0.996641 0.184496,-0.294751 -0.654336,0.198126 -0.529154,0.128667 5.105273,-2.832647 2.479204,-1.764765 2.059948,-1.050589 -0.0306,0.318159 0.614493,-0.08091 0.696968,-0.136101 -0.730366,0.4128 -1.460732,0.8256 -2.191096,1.2384 0.117268,-0.100673 0.477335,-0.375607 0.300328,-0.576611 -0.0293,-0.03327 -0.07836,-0.04151 -0.117535,-0.06226 -0.05899,-0.01627 -0.115814,-0.04663 -0.17697,-0.04885 -0.173405,-0.0063 -0.24603,0.06759 -0.389043,0.15253 0.73401,-0.407675 1.457105,-0.835644 2.202024,-1.223026 0.06716,-0.03493 -0.115208,0.100137 -0.160044,0.161134 -0.04723,0.06425 -0.07552,0.140457 -0.113281,0.210685 -0.143262,0.641953 0.276799,0.862139 0.834498,0.962488 0.08883,-0.01497 0.180777,-0.01725 0.266491,-0.04496 0.07491,-0.02424 0.278313,-0.147344 0.209553,-0.108992 -0.749996,0.418287 -1.488956,0.857456 -2.253329,1.248849 -0.05201,0.02663 0.08376,-0.08863 0.09809,-0.14527 0.04567,-0.180443 -0.06468,-0.285438 -0.149781,-0.428871 -0.535612,-0.590621 -1.265788,-0.883319 -2.016331,-1.091967 -1.057683,-0.125325 -2.051643,0.979797 1.932143,-1.271201 0.03435,-0.01942 -0.109987,-0.03786 -0.05626,0.02646 0.02524,0.03021 0.05879,0.05235 0.08819,0.07852 0,0 -2.399966,1.465395 -2.399966,1.465395 v 0 c -1.075957,-1.203624 1.544904,-2.254705 2.740234,-1.871131 0.795769,0.264848 1.565055,0.616863 2.126385,1.263528 0.148238,0.242075 0.256849,0.348184 0.275375,0.638585 0.0057,0.0902 0.03139,0.216165 -0.04284,0.267738 -1.197517,0.832109 -1.868008,1.66435 -3.118919,1.557946 -0.70054,-0.229153 -1.116721,-0.5885 -1.075145,-1.373622 0.39274,-1.281007 1.165405,-1.133464 2.824443,-2.043049 0.232357,-0.127394 0.533083,0.01254 0.732372,0.123658 0.0638,0.06174 0.140695,0.112343 0.191413,0.185211 0.183997,0.264364 0.143656,0.727856 -0.149751,0.913099 -0.852133,0.53799 -1.733241,1.028657 -2.599862,1.542986 -0.457439,0.155969 -0.944708,0.179912 -1.051637,-0.407297 0.166624,-1.177351 1.704554,-1.341231 2.690741,-1.887384 0.213688,-0.11834 0.489548,0.0038 0.681593,0.09216 0.550111,0.406627 0.649399,0.843452 0.296042,1.445275 -0.873143,0.999064 -0.25164,0.340855 -2.876616,1.779225 -0.352335,0.193064 -0.774835,0.11837 -1.083969,-0.106537 -0.05026,-0.06406 -0.113162,-0.119962 -0.150778,-0.192172 -0.219675,-0.421717 0.06608,-0.878583 0.332769,-1.194001 0.901145,-1.013381 2.248279,-1.776822 3.610462,-1.837576 -4.486116,2.879106 -2.762946,0.69092 -2.25294,1.546876 0.02749,0.04614 -0.131498,-0.108217 -0.08578,-0.136401 2.470565,-1.522971 2.41735,-2.355985 2.465358,-1.369626 -0.03638,0.363519 -0.21168,0.702815 -0.355499,1.031706 -0.688515,1.44386 -1.487257,2.829435 -2.288559,4.213037 -1.175051,1.981152 -2.346322,3.964492 -3.54635,5.930677 -0.900338,1.442998 0.0409,-0.05347 -0.750515,1.173687 -0.195088,0.3025 -0.375801,0.631436 -0.595817,0.917768 -0.0331,0.04309 -0.0761,0.07758 -0.11415,0.116366 -3.137688,1.721977 -1.739733,1.927371 -2.644825,1.342014 -0.306842,-0.197003 -0.61513,-0.391794 -0.925309,-0.583496 -0.883898,-0.490556 -1.781392,-0.953632 -2.706343,-1.363231 -1.670786,-0.78182 -3.360124,-1.532678 -4.949071,-2.475463 -1.552456,-0.964041 -3.089934,-1.980927 -4.378719,-3.289498 0,0 2.389544,-1.447086 2.389544,-1.447086 z"
       inkscape:connector-curvature="0"
       style="stroke-width:0.26458332" />
    <path
       id="path3759"
       d="m 90.467623,63.528175 c 2.661965,-1.84498 5.283962,-3.747175 7.910129,-5.642597 4.663848,-3.409085 9.401508,-6.714956 14.264768,-9.833261 3.07032,-1.942867 6.20376,-3.782779 9.33767,-5.620316 1.55773,-0.92275 3.07788,-1.918449 4.69402,-2.738374 0.22877,-0.115125 0.21802,0.04367 0.34204,0.282112 0,0 -2.6146,1.092137 -2.6146,1.092137 v 0 c 0.1311,0.220458 0.28672,0.288282 0.0768,0.388202 -0.80043,0.429273 -1.87107,1.075983 1.77501,-1.039233 0.1418,-0.08227 -0.28497,0.162189 -0.42589,0.24597 -0.4492,0.267081 -0.88905,0.549756 -1.34412,0.807077 -3.20365,1.856935 -6.4071,3.715998 -9.5419,5.688081 -4.86593,3.095744 -9.60175,6.387645 -14.24422,9.809429 -2.541315,1.852838 -5.081561,3.707305 -7.636706,5.54096 0,0 -2.592991,1.019813 -2.592991,1.019813 z"
       inkscape:connector-curvature="0"
       style="stroke-width:0.26458332" />
    <path
       id="path4985"
       d="m 64.1727,46.385805 c 0.633227,0.0078 1.264433,-0.06564 1.895297,-0.112337 0.629688,-0.06484 1.259848,-0.124246 1.891549,-0.165486 0.154948,0.0038 0.305776,-0.02747 0.45684,-0.05615 0,0 -1.117116,0.839007 -1.117116,0.839007 v 0 c -0.149865,0.01945 -0.300122,0.03369 -0.451474,0.03504 -0.623832,0.03358 -1.24574,0.09096 -1.867556,0.150624 -0.648634,0.05101 -1.298136,0.130236 -1.949487,0.119822 0,0 1.141947,-0.810519 1.141947,-0.810519 z"
       inkscape:connector-curvature="0"
       style="stroke-width:0.26458332" />
    <path
       id="path4987"
       d="m 71.895744,45.858916 c 0.534392,-0.110498 1.069189,-0.221525 1.608577,-0.305903 0.52396,-0.06114 1.05292,-0.130519 1.581449,-0.11004 0,0 -1.124209,0.811757 -1.124209,0.811757 v 0 c -0.517631,-0.01 -1.035082,0.0467 -1.547178,0.117227 -0.54792,0.0918 -1.093732,0.201911 -1.632254,0.338494 0,0 1.113615,-0.851535 1.113615,-0.851535 z"
       inkscape:connector-curvature="0"
       style="stroke-width:0.26458332" />
    <path
       id="path4989"
       d="m 69.095093,44.10648 c -5.09736,2.934812 -0.313034,0.181859 0.508333,-0.29872 0.695616,-0.407003 -1.395759,0.806228 -2.094992,1.206985 -0.0845,0.04843 0.166386,-0.101331 0.250764,-0.149985 0.871292,-0.502398 1.745922,-0.999011 2.616211,-1.503151 0.731207,-0.423571 -1.465982,0.840971 -2.198974,1.261454 0.958803,-0.632856 1.913173,-1.317267 2.986972,-1.728914 0.111289,-0.02671 0.185965,0.221184 0.207359,0.310883 0,0 -2.505049,1.307851 -2.505049,1.307851 v 0 c 0.01953,-0.04201 0.170379,0.119203 0.08498,0.140795 -1.220949,0.685906 3.237545,-1.952683 1.833166,-1.043178 -8.57913,4.993712 1.598676,-0.919802 -0.681101,0.405403 -0.886457,0.515284 -1.774365,1.028067 -2.661732,1.541782 -0.176578,0.102225 6.760525,-3.918555 -0.526185,0.312719 0,0 2.180249,-1.763924 2.180248,-1.763924 z"
       inkscape:connector-curvature="0"
       style="stroke-width:0.26458332" />
  </g>
  <g
     inkscape:groupmode="layer"
     id="layer2"
     inkscape:label="Layer 2"
     style="display:inline"
     transform="translate(-44.184038,-13.309678)">
    <path
       id="path3764"
       transform="scale(0.26458333)"
       style="stroke-width:0.99999994"
       d="m 391.91797,60.832031 -9.38477,4.914063 c 0.47142,3.144536 0.89086,6.287133 1.13086,9.458984 0.31567,5.190013 0.26604,10.39137 0.45313,15.585938 0.34696,7.553446 0.51274,15.113514 0.60156,22.673824 0.0797,7.87807 0.059,15.75642 0.0703,23.63477 0.0189,8.16352 0.01,16.3267 0.0117,24.49023 -0.0848,8.34037 0.14861,16.67921 0.53711,25.00977 0.28549,6.61126 0.66804,13.21864 0.98047,19.82812 1.03411,-0.75834 2.07249,-1.51103 3.07617,-2.30859 0.38238,-0.30387 0.75131,-0.62337 1.12695,-0.93555 1.27397,-1.17333 2.58534,-2.28204 4.05274,-3.20898 0.0617,-0.039 0.31711,-0.18184 0.5332,-0.30469 -0.28161,-5.88892 -0.59372,-11.77535 -0.8457,-17.66601 -0.35611,-8.32212 -0.56665,-16.65209 -0.49219,-24.98243 0.008,-8.16841 0.004,-16.33745 0.0195,-24.50586 0.004,-7.87982 -0.0173,-15.75911 -0.0898,-23.63867 -0.0911,-7.58327 -0.22334,-15.166944 -0.5,-22.746091 -0.12057,-5.24282 4.2e-4,-10.489553 -0.27734,-15.728515 -0.2391,-3.202742 -0.71585,-6.373845 -1.00196,-9.570313 z m -2.4043,145.574219 c -1.02818,0.77563 -2.07132,1.53264 -3.09765,2.31055 0.005,0.10806 0.009,0.21615 0.0137,0.32422 1.03808,-0.86654 2.06595,-1.74469 3.08398,-2.63477 z m 5.90625,0.29687 c -0.0632,0.0489 -0.12836,0.0956 -0.1914,0.14454 -1.90829,1.46035 -3.79288,2.94777 -5.63086,4.49609 -0.12624,0.0991 -0.26518,0.18346 -0.37891,0.29687 -0.12586,0.1256 -0.22173,0.27808 -0.33398,0.41602 -0.47747,0.58678 -0.92895,1.19404 -1.45313,1.74219 -0.27026,0.28261 -0.53629,0.42651 -0.78516,0.5 0.26018,8.26789 0.63451,16.53031 0.82227,24.80078 0.0486,8.17884 0.4027,16.35049 0.62305,24.52539 0.34227,7.33197 0.60091,14.66583 1.01367,21.99414 0.24219,3.93258 0.65077,7.83428 1.54297,11.67383 l 9.20703,-4.98047 c -1.01839,-3.71794 -1.38545,-7.54733 -1.68555,-11.38281 -0.48506,-7.29636 -0.76014,-14.60241 -1.10937,-21.90625 -0.23857,-8.17047 -0.56995,-16.33729 -0.64063,-24.51172 -0.22911,-8.63499 -0.63457,-17.26365 -0.91992,-25.89649 -0.024,-0.63752 -0.0523,-1.27479 -0.0801,-1.91211 z"
       inkscape:connector-curvature="0" />
    <path
       id="path3766"
       d="m 104.58793,16.007643 c 1.50511,0.393849 3.0708,0.416169 4.61619,0.46875 2.83798,0.08572 5.6757,-0.05555 8.50732,-0.2331 3.95531,-0.313663 7.92058,-0.463449 11.88487,-0.607952 4.15673,-0.141867 8.3159,-0.181841 12.47468,-0.206512 3.75273,-0.01506 7.50461,-0.107147 11.25703,-0.155124 3.49143,-0.06177 6.98173,-0.180236 10.46634,-0.40837 2.48198,-0.178065 4.96628,-0.316591 7.45292,-0.407539 0.7846,-0.02415 1.5691,-0.05352 2.3539,-0.07096 0.0246,-3.44e-4 0.0492,-6.62e-4 0.0738,-0.001 0,0 -2.28559,1.658287 -2.28559,1.658287 v 0 c -0.0221,-6.35e-4 -0.0442,-0.0013 -0.0662,-0.0019 -0.75043,-0.01688 -1.50124,-0.0057 -2.25164,0.0064 -2.45376,0.05751 -4.90519,0.178673 -7.35396,0.345596 -3.47962,0.208655 -6.96393,0.320656 -10.44922,0.379863 -3.74561,0.04478 -7.49078,0.135065 -11.23675,0.138112 -4.15162,0.01879 -8.30386,0.0497 -12.45319,0.200895 -3.98135,0.15437 -7.96358,0.3161 -11.93461,0.652845 -2.86314,0.188572 -5.73224,0.345298 -8.60281,0.271605 -1.59248,-0.04732 -3.19792,-0.08228 -4.75659,-0.4482 0,0 2.30353,-1.58166 2.30353,-1.58166 z"
       inkscape:connector-curvature="0"
       style="stroke-width:0.26458332" />
    <path
       id="path3768"
       d="m 175.50924,13.309678 c 0.12065,1.718171 0.18139,3.437948 0.21369,5.159973 -0.008,3.925216 -0.16821,7.848583 -0.34442,11.769252 -0.25582,5.27581 -0.34642,10.557156 -0.40028,15.838228 -0.0818,4.930897 0.004,9.860582 0.21875,14.786838 0.0971,3.12774 0.39381,6.243537 0.58958,9.365062 0.0571,0.719812 0.0325,1.427726 -0.0796,2.138103 0,0 -2.47703,1.200205 -2.47703,1.200205 v 0 c 0.0419,-0.167137 0.0995,-0.331097 0.12557,-0.501412 0.0791,-0.516802 0.0629,-1.103868 0.0682,-1.618144 -0.11501,-3.148459 -0.38318,-6.290794 -0.44674,-9.441878 -0.16401,-4.944599 -0.22627,-9.891143 -0.14422,-14.838275 0.052,-5.27503 0.129,-10.550313 0.35065,-15.821448 0.14172,-3.889505 0.26066,-7.782179 0.19715,-11.674682 -0.0637,-1.693531 -0.13896,-3.387338 -0.35046,-5.070151 0,0 2.47922,-1.291671 2.47922,-1.291671 z"
       inkscape:connector-curvature="0"
       style="stroke-width:0.26458332" />
    <path
       id="path3770"
       d="m 107.73751,73.170324 c 1.11894,0.03677 2.23645,0.01087 3.35458,-0.0331 1.9035,-0.04984 3.80455,-0.156684 5.70753,-0.222766 2.22609,-0.03409 4.45089,-0.09524 6.67603,-0.16774 2.09307,-0.03358 4.18324,-0.147413 6.27506,-0.219753 2.01012,-0.06599 4.01877,-0.162274 6.02951,-0.213037 2.14236,-0.02061 4.28023,-0.169249 6.41933,-0.274762 2.12389,-0.15644 4.25087,-0.252187 6.37961,-0.306141 1.96086,-0.042 3.92227,-0.04012 5.88347,-0.04161 1.85301,-0.01394 3.70651,0.02522 5.55898,-0.02681 1.69718,-0.07047 3.39499,-0.120084 5.09338,-0.14795 1.48062,-0.04986 2.95862,-0.0021 4.43751,0.0641 1.19099,0.04544 2.3788,0.154673 3.56266,0.289549 0.83731,0.06025 1.65445,0.250762 2.47682,0.40571 0.25258,-0.01389 0.64874,0.284175 0.89439,0.222157 0.0304,-0.0077 0.048,-0.04026 0.072,-0.06039 0,0 -2.25075,1.697352 -2.25075,1.697352 v 0 c -0.33818,-0.0668 -0.65641,-0.209121 -0.99708,-0.268523 -0.80819,-0.166566 -1.61674,-0.33364 -2.44061,-0.404397 -1.17329,-0.138742 -2.35167,-0.238009 -3.53222,-0.28797 -1.46994,-0.07046 -2.93966,-0.105474 -4.41136,-0.06207 -1.69375,0.02686 -3.38675,0.07735 -5.07952,0.140695 -1.85058,0.03944 -3.70185,0.0071 -5.55276,0.01431 -1.95856,0.0013 -3.9173,0.004 -5.87553,0.04397 -2.12265,0.05377 -4.24306,0.15417 -6.36142,0.301135 -2.14429,0.111025 -4.2875,0.258226 -6.43542,0.278432 -2.01201,0.0536 -4.02178,0.157324 -6.03344,0.218707 -2.08631,0.07132 -4.17154,0.17176 -6.25897,0.207163 -2.22829,0.06959 -4.4565,0.125955 -6.68528,0.17584 -1.91501,0.07115 -3.82811,0.182255 -5.74323,0.250814 -1.14338,0.05023 -2.28646,0.0667 -3.43082,0.07452 0,0 2.26751,-1.647444 2.26751,-1.647444 z"
       inkscape:connector-curvature="0"
       style="stroke-width:0.26458332" />
    <path
       id="path3772"
       d="m 109.70308,28.677796 c 0.34387,-1.992067 1.43959,-1.943201 3.43498,-3.05716 1.20449,-0.105521 2.37169,0.328111 3.52948,0.600192 1.45604,0.379094 2.83579,0.35163 4.31302,0.168273 0.24025,-0.04185 0.48121,-0.07981 0.72075,-0.125546 1.04444,-0.199412 0.38758,-0.101658 1.43726,-0.288241 0.72975,-0.129714 1.46582,-0.211867 2.20056,-0.306981 1.60642,-0.173405 3.21957,-0.214196 4.817,-0.466521 1.73692,-0.298579 3.42043,-0.834752 5.10725,-1.33363 1.28803,-0.418346 2.60795,-0.717883 3.92125,-1.04059 0.13447,-0.0419 0.26895,-0.08379 0.40342,-0.125685 0,0 -2.19314,1.689971 -2.19314,1.689971 v 0 c -0.13442,0.03606 -0.26884,0.07212 -0.40325,0.108186 -1.29864,0.295131 -2.59086,0.617194 -3.86279,1.014525 -1.69417,0.498785 -3.38722,1.028651 -5.13505,1.308096 -1.60473,0.229429 -3.22362,0.278003 -4.83249,0.471387 -1.46285,0.191405 -2.90957,0.454544 -4.36064,0.717381 -1.51193,0.161478 -2.88699,0.147971 -4.37043,-0.242668 -0.93604,-0.219448 -2.11076,-0.626229 -3.07555,-0.517602 -0.13556,0.01527 -0.26633,0.0592 -0.39949,0.0888 4.83477,-2.930831 1.95041,-1.398911 1.57482,-0.822357 -0.17768,0.272738 -0.27349,0.596241 -0.31589,0.915522 0,0 -2.51107,1.244648 -2.51107,1.244648 z"
       inkscape:connector-curvature="0"
       style="stroke-width:0.26458332" />
    <path
       id="path3774"
       d="m 109.96083,33.540334 c 0.37732,-0.612185 0.91089,-1.11979 1.53964,-1.471853 2.9598,-1.657321 1.87619,-1.371938 3.57924,-1.717677 1.25747,-0.179041 2.48548,0.18043 3.72333,0.332713 0.28304,0.03482 0.56779,0.05401 0.85169,0.08101 2.03376,0.0579 4.02582,-0.461584 6.00412,-0.867857 2.03399,-0.432951 4.10652,-0.59468 6.17953,-0.683062 1.12717,-0.04177 2.25493,-0.03757 3.38166,-0.08849 0,0 -2.1951,1.606939 -2.1951,1.606939 v 0 c -1.116,0.02989 -2.23256,0.02291 -3.34829,0.06682 -2.05997,0.09471 -4.11826,0.267335 -6.13805,0.704974 -2.00218,0.412663 -4.02304,0.931511 -6.08284,0.82563 -0.28877,-0.0293 -0.5783,-0.05197 -0.86632,-0.0879 -1.22291,-0.152575 -2.44591,-0.477515 -3.68227,-0.233905 -1.31203,0.355981 -0.73782,0.264104 1.14574,-0.930249 0.17154,-0.108775 -0.35614,0.196623 -0.52428,0.310589 -0.29078,0.197096 -0.56753,0.432837 -0.79596,0.701138 -0.0816,0.09587 -0.14496,0.205896 -0.21744,0.308846 0,0 -2.5544,1.142343 -2.5544,1.142343 z"
       inkscape:connector-curvature="0"
       style="stroke-width:0.26458332" />
    <path
       id="path3784"
       d="m 142.5798,40.138011 c -0.17777,1.059958 -0.13416,2.143305 -0.1459,3.213468 -0.008,0.739232 -0.0391,2.568051 -0.0502,3.249705 -0.0534,3.647707 -0.20251,7.290657 -0.44593,10.930257 -0.0298,1.494938 -0.30059,2.97574 -0.36707,4.467111 0.007,0.151908 0.0133,0.176247 -0.004,0.07547 0,0 -2.41633,1.467104 -2.41633,1.467104 v 0 c -0.10594,-0.178207 -0.0795,-0.08065 -0.0744,-0.293941 0.14602,-1.519394 0.4775,-3.022246 0.53432,-4.552501 0.31853,-3.636388 0.50229,-7.280637 0.49062,-10.932347 -0.003,-0.876771 -0.005,-2.303174 -0.0214,-3.208134 -0.0198,-1.065945 -0.0919,-2.133134 -0.0238,-3.198995 0,0 2.52383,-1.217197 2.52383,-1.217197 z"
       inkscape:connector-curvature="0"
       style="stroke-width:0.26458332" />
    <path
       id="path3786"
       d="m 139.91505,61.959587 c 2.35053,-0.320781 4.71029,-0.571108 7.06799,-0.832879 4.1077,-0.445315 8.21895,-0.860518 12.34638,-1.064625 2.6244,-0.116068 5.24783,0.04361 7.85293,0.354306 0.5316,0.06874 1.05919,0.145439 1.59435,0.174024 0,0 -2.25743,1.61095 -2.25743,1.61095 v 0 c -0.51673,-0.06085 -1.02833,-0.150071 -1.54333,-0.224454 -2.54704,-0.349128 -5.11672,-0.521075 -7.68871,-0.41612 -4.12926,0.190605 -8.24221,0.601847 -12.34677,1.086411 -2.42287,0.294859 -4.85186,0.566999 -7.25641,0.990285 0,0 2.231,-1.677898 2.231,-1.677898 z"
       inkscape:connector-curvature="0"
       style="stroke-width:0.26458332" />
    <path
       id="path3788"
       d="m 141.31055,59.460844 c 0.37142,-0.702408 0.78128,-1.382147 1.21245,-2.049108 0.45995,-0.720064 0.88272,-1.461246 1.35667,-2.172388 0.44147,-0.709502 0.92065,-1.393592 1.38668,-2.086822 0.41739,-0.619884 0.92824,-1.166032 1.44433,-1.703274 0.47578,-0.541948 1.02448,-0.984998 1.63187,-1.368147 1.5015,-1.031412 2.59628,-1.615162 4.19547,-2.048351 0.61693,-0.114599 1.23242,-0.231487 1.85631,-0.303839 0.63019,-0.05924 1.26357,-0.06294 1.89594,-0.0686 0.63194,-0.08492 1.27124,-0.103023 1.90237,-0.189307 0.70105,-0.04735 1.33281,-0.283755 1.95148,-0.598905 -3.97658,2.402475 -1.82419,1.075841 -1.006,0.404778 0.38174,-0.31309 0.35997,-0.306208 0.71513,-0.650092 0.79918,-0.77502 1.41358,-1.704618 1.99465,-2.646971 0.64517,-1.160963 1.41819,-2.236914 2.27067,-3.252674 0.88644,-1.036494 1.92187,-1.926076 3.0341,-2.709682 0,0 2.54584,-0.999826 2.54584,-0.999826 v 0 c -1.12786,0.751147 -2.17083,1.625639 -3.06728,2.645627 -0.86359,0.992214 -1.6452,2.051679 -2.27859,3.207554 -0.56756,0.955614 -1.16809,1.904061 -1.9514,2.700258 -1.27214,1.318646 -2.76899,2.207485 -4.42956,3.033898 -0.63967,0.292589 -1.30604,0.472654 -2.01005,0.528047 -0.63998,0.06648 -1.28174,0.124553 -1.92362,0.167079 -0.62648,0.0069 -1.25441,0.01876 -1.87708,0.09431 -0.61504,0.08258 -1.22794,0.193833 -1.83148,0.337547 -0.29896,0.08756 -0.60157,0.171654 -0.89174,0.286136 -0.90337,0.356413 -2.34443,1.364131 1.49807,-0.939448 -0.61455,0.361225 -1.1932,0.752512 -1.6581,1.303047 -0.51893,0.527629 -1.03606,1.060735 -1.47331,1.659937 -0.45908,0.698601 -0.95813,1.369947 -1.38755,2.088097 -0.47666,0.709933 -0.9176,1.438998 -1.36128,2.16992 -0.42353,0.652819 -0.84149,1.309301 -1.1912,2.005779 0,0 -2.55379,1.155415 -2.55379,1.155415 z"
       inkscape:connector-curvature="0"
       style="stroke-width:0.26458332" />
    <path
       id="path4789"
       d="m 114.68109,55.094102 c -0.0526,-0.08406 -0.21803,-0.72458 -0.33238,-0.631235 0.57053,-0.299273 1.13886,-0.602768 1.71159,-0.897821 0.0189,-0.0098 -0.0382,0.02278 -0.0489,0.04123 -0.0164,0.02829 -0.0219,0.06175 -0.029,0.09363 -0.0241,0.107291 -0.0276,0.218773 -0.0332,0.328112 -0.0215,0.77973 0.50195,-0.0011 -1.78612,0.961094 -0.0235,0.0099 -0.0102,-0.05014 -0.0181,-0.07443 -0.008,-0.02532 -0.0199,-0.04934 -0.0299,-0.07401 10e-4,0.0058 -0.0487,-0.08718 -0.0736,-0.06569 -0.0165,0.01423 -0.0338,0.07388 -0.0145,0.06375 0.57091,-0.299734 1.12394,-0.632405 1.68907,-0.942901 0.0129,-0.0071 -0.0292,0.01709 -0.0306,0.03171 -0.004,0.03823 0.0109,0.07604 0.0164,0.114054 0.0668,0.239715 0.27478,0.494456 0.55549,0.459814 0.0503,-0.0062 0.0954,-0.03426 0.1431,-0.05139 0.58499,-0.537623 -0.0433,0.05676 -1.45785,0.778203 -0.0405,0.02066 0.0548,-0.07494 0.0675,-0.118616 0.048,-0.164819 -0.0523,-0.261336 -0.16001,-0.362619 -0.15069,-0.09425 -0.31798,-0.148243 -0.49752,-0.122132 -0.0515,0.0075 -0.19499,0.06933 -0.14993,0.04334 2.04546,-1.179803 2.06812,-1.199686 1.49912,-0.811585 -0.22148,0.239781 0.20834,0.191066 0.33956,0.1758 0,0 -1.5944,1.162444 -1.5944,1.162444 v 0 c -0.36214,-0.02463 -0.68637,-0.147183 -0.57692,-0.576419 0.40298,-0.58384 1.48674,-1.339418 2.27709,-1.10441 0.19764,0.05877 0.21671,0.09017 0.38759,0.204044 0.0484,0.0531 0.10472,0.0999 0.14509,0.159311 0.62602,0.921366 -1.1972,1.561049 -1.86291,1.75618 -0.4468,-0.01667 -0.70398,-0.236826 -0.85985,-0.652283 -0.0299,-0.100322 -0.0889,-0.287033 -0.0743,-0.29695 0.49175,-0.334222 1.49798,-1.589071 1.96572,-0.818848 0.0342,0.07387 0.0859,0.177411 0.0711,0.186621 -2.24548,1.404631 -1.77817,1.632511 -1.74615,0.869127 0.062,-1.151787 -0.0255,-0.594646 1.83345,-1.56872 0.23176,0.197591 0.27043,0.508733 0.40434,0.769956 0,0 -1.73005,0.971648 -1.73005,0.971648 z"
       inkscape:connector-curvature="0"
       style="stroke-width:0.26458332" />
    <path
       id="path4791"
       d="m 118.42902,53.826301 c 1.33192,-0.19185 2.66515,-0.374206 3.99665,-0.568992 1.20572,-0.176585 2.41737,-0.311523 3.62274,-0.489601 0,0 -1.5326,1.145696 -1.5326,1.145696 v 0 c -1.19279,0.150236 -2.3878,0.282991 -3.57744,0.458079 -1.36371,0.20216 -2.73095,0.387715 -4.08581,0.644083 0,0 1.57646,-1.189265 1.57646,-1.189265 z"
       inkscape:connector-curvature="0"
       style="stroke-width:0.26458332" />
    <path
       id="path4793"
       d="m 116.41792,58.8388 c -0.31832,0.269881 -0.60902,0.5748 -0.82293,0.934617 -0.0708,0.183441 -0.0128,-0.09719 -0.0382,-0.08489 -2.67048,1.293402 -1.88643,1.247788 -1.38263,0.66567 0.0764,-0.11021 0.1,-0.133302 0.15461,-0.25296 0.0449,-0.09828 0.0327,-0.132414 0.0354,-0.125079 0.0212,0.05717 -0.002,0.103531 -0.0165,0.15848 2.80665,-1.657956 1.56526,-1.196835 1.29202,-0.350692 0.0442,-0.09071 -0.0358,0.113694 -0.008,0.09747 0.0105,-0.006 0.007,-0.02326 0.009,-0.03506 0.005,-0.02207 0.0331,-0.07696 0.013,-0.06658 -1.18653,0.613693 -2.21957,1.275739 -1.56969,0.860899 0.0896,-0.06668 0.15276,-0.156324 0.21644,-0.246097 0,0 1.8142,-0.808257 1.8142,-0.808257 v 0 c -0.052,0.110974 -0.11369,0.211706 -0.18916,0.308869 -0.31369,0.347139 -2.03149,1.743059 -2.07593,0.751295 0.15103,-0.995738 1.26986,-1.311894 2.06479,-1.740805 0.38862,0.113078 0.21158,0.420296 0.0739,0.671552 -0.55758,0.776029 -0.38625,0.527945 -2.02659,1.306889 -0.0755,0.03584 -0.18213,-0.142333 -0.1905,-0.192434 -0.006,-0.03515 0.0115,-0.07033 0.0173,-0.105495 0.18247,-0.391284 0.48934,-0.700635 0.789,-1.004906 0,0 1.83952,-0.74249 1.83952,-0.74249 z"
       inkscape:connector-curvature="0"
       style="stroke-width:0.26458332" />
    <path
       id="path4795"
       d="m 118.77397,59.005901 c 1.2656,-0.401244 2.55362,-0.727872 3.84257,-1.044229 1.13854,-0.289385 2.29804,-0.478909 3.45358,-0.684091 0,0 -1.50181,1.130779 -1.50181,1.130779 v 0 c -1.14571,0.191289 -2.29289,0.380834 -3.41812,0.674431 -1.32426,0.335439 -2.6524,0.675066 -3.93668,1.144717 0,0 1.56046,-1.221607 1.56046,-1.221607 z"
       inkscape:connector-curvature="0"
       style="stroke-width:0.26458332" />
    <path
       id="path4797"
       d="m 116.95711,63.776849 c -0.11797,0.07631 -0.23096,0.161499 -0.32335,0.268205 -0.0211,0.0244 -0.0392,0.05125 -0.0582,0.07733 -0.0104,0.01426 -0.0125,0.04655 -0.03,0.04369 -0.0173,-0.0028 -0.009,-0.03386 -0.0133,-0.0508 -0.0776,-0.735137 0.0229,-0.107817 -1.65095,0.810194 -0.0319,0.01749 0.0594,-0.04258 0.0851,-0.0684 0.0817,-0.0823 0.11988,-0.165812 0.13967,-0.277096 0.0675,-0.172878 -0.25534,0.0241 -0.24719,0.01963 1.59309,-0.876986 2.03296,-1.251358 1.41806,-0.748583 -0.11752,0.147148 -0.38127,0.481711 -0.17203,0.653187 -0.024,0.08673 0.41764,-0.14573 0.32343,-0.09247 -1.6448,0.929939 -2.22816,1.152176 -1.59317,0.907339 0.0587,-0.04348 0.0341,-0.06128 7.9e-4,-0.08701 0.58435,-0.345263 1.1687,-0.690526 1.75304,-1.035788 0,0 -1.66562,1.092131 -1.66562,1.092131 v 0 c 0.0992,-0.06785 1.73483,-1.860166 1.74109,-0.763029 -0.21896,0.739182 -0.0129,0.115242 -1.80671,1.106765 -0.1375,0.076 -0.34196,-0.01923 -0.45154,-0.09568 -0.25806,-0.316677 -0.1375,-0.604292 0.0495,-0.930312 0.56513,-0.692573 0.19285,-0.275029 1.97505,-1.211585 0.19741,-0.103743 0.4111,0.124703 0.44832,0.290981 0.006,0.123446 0.0188,0.158488 -0.0226,0.279903 -0.007,0.01934 -0.10231,0.20874 -0.1273,0.224059 -1.7792,1.090877 -1.21735,1.411158 -1.90749,0.954958 -0.0254,-0.04166 -0.0626,-0.07815 -0.0763,-0.124992 -0.0472,-0.161253 0.25883,-0.434451 0.36297,-0.519223 0,0 1.84883,-0.723395 1.84883,-0.723395 z"
       inkscape:connector-curvature="0"
       style="stroke-width:0.26458332" />
    <path
       id="path4799"
       d="m 120.06871,64.008155 c 1.44236,-0.107939 2.86775,-0.373232 4.28952,-0.629724 1.73581,-0.305374 3.4704,-0.614831 5.16771,-1.094549 0,0 -1.50269,1.153953 -1.50269,1.153953 v 0 c -1.6918,0.441862 -3.41357,0.737958 -5.13337,1.048216 -1.46238,0.266859 -2.92598,0.540454 -4.40583,0.692113 0,0 1.58466,-1.170009 1.58466,-1.170009 z"
       inkscape:connector-curvature="0"
       style="stroke-width:0.26458332" />
  </g>
</svg>
